<?xml version="1.0" standalone="no"?>
<!DOCTYPE svg PUBLIC "-//W3C//DTD SVG 20010904//EN"
 "http://www.w3.org/TR/2001/REC-SVG-20010904/DTD/svg10.dtd">
<svg version="1.0" xmlns="http://www.w3.org/2000/svg"
 width="300.000000pt" height="431.000000pt" viewBox="0 0 300.000000 431.000000"
 preserveAspectRatio="xMidYMid meet">
<metadata>
Created by potrace 1.10, written by Peter Selinger 2001-2011
</metadata>
<g transform="translate(0.000000,431.000000) scale(0.100000,-0.100000)"
fill="#000000" stroke="none">
<path d="M356 4289 c-159 -37 -302 -200 -326 -371 -5 -35 -10 -219 -10 -410 0
-225 -4 -348 -10 -348 -6 0 -10 -42 -10 -105 0 -58 4 -105 8 -105 5 0 8 -255
8 -567 -2 -1385 4 -2383 14 -2383 7 0 9 299 5 922 -3 508 -5 1005 -6 1106 0
190 0 213 0 520 0 103 3 233 6 290 5 85 4 108 -9 127 -20 30 -23 161 -3 167 9
4 13 98 18 409 3 239 10 416 16 434 40 116 116 211 205 260 29 16 85 37 123
46 40 10 57 17 40 17 -16 0 -47 -4 -69 -9z"/>
<path d="M2551 4296 c2 -2 24 -6 49 -9 30 -4 38 -3 25 3 -19 8 -83 14 -74 6z"/>
<path d="M480 4260 c-94 -9 -126 -17 -188 -49 -92 -47 -167 -140 -199 -248
-17 -54 -18 -188 -21 -2011 -2 -1946 -2 -1952 18 -1952 19 0 20 8 23 208 l2
207 3 -207 2 -208 25 0 25 0 0 1961 0 1961 26 59 c33 73 112 149 181 175 61
22 444 34 468 14 9 -7 15 -30 15 -53 0 -51 33 -105 76 -123 27 -11 136 -14
576 -14 497 0 546 2 577 18 47 23 72 61 78 116 3 25 12 51 19 57 9 7 75 9 211
7 240 -5 270 -14 354 -97 39 -40 62 -73 77 -114 l22 -58 0 -1954 c0 -1948 0
-1955 20 -1955 11 0 21 1 22 3 1 1 4 94 8 207 l6 205 2 -207 c2 -201 3 -208
22 -208 20 0 20 7 20 1898 0 1230 -4 1927 -10 1982 -18 150 -96 272 -212 331
-107 55 -71 53 -1158 55 -553 1 -1043 -2 -1090 -6z m1710 -34 c0 -3 -13 -18
-30 -34 -16 -17 -30 -40 -30 -52 0 -44 -28 -90 -64 -105 -52 -22 -1060 -22
-1111 -1 -37 16 -50 37 -60 97 -3 20 -16 46 -30 59 -14 13 -25 27 -25 32 0 4
304 8 675 8 371 0 675 -2 675 -4z m653 -178 c17 -32 17 -32 0 -8 -10 14 -36
45 -58 70 l-39 45 40 -37 c22 -21 47 -52 57 -70z m-2613 59 c0 -2 -12 -14 -26
-28 l-27 -24 18 28 c14 22 35 36 35 24z m-113 -1010 c-1 -138 -2 -25 -2 253 0
278 1 391 2 252 2 -138 2 -366 0 -505z m2791 246 c-2 -343 -4 -427 -8 -283 -5
220 -2 770 6 770 2 0 3 -219 2 -487z"/>
<path d="M360 4040 c0 -25 4 -31 18 -28 11 2 17 12 17 28 0 16 -6 26 -17 28
-14 3 -18 -3 -18 -28z"/>
<path d="M425 4060 c-3 -5 -3 -15 1 -22 4 -7 3 -8 -4 -4 -7 4 -12 3 -12 -2 0
-8 22 -22 36 -22 2 0 4 14 4 30 0 29 -13 40 -25 20z"/>
<path d="M490 4059 c0 -5 5 -9 12 -9 9 0 9 -3 0 -12 -17 -17 -15 -28 7 -28 11
0 18 6 17 16 0 9 5 19 12 21 7 3 12 -4 12 -16 0 -12 5 -21 11 -21 6 0 9 12 7
27 -3 24 -8 27 -40 30 -21 1 -38 -2 -38 -8z"/>
<path d="M2437 4048 c-12 -37 16 -61 41 -36 9 9 12 9 12 0 0 -18 37 -14 44 4
5 13 2 15 -14 11 -13 -3 -20 0 -20 10 0 9 6 13 15 9 8 -3 15 -1 15 4 0 16 -37
11 -44 -5 -3 -9 -12 -12 -22 -8 -16 6 -16 7 2 14 18 7 18 8 -3 8 -12 1 -23 -5
-26 -11z"/>
<path d="M2365 4040 c-3 -5 -15 -10 -26 -10 -10 0 -19 -7 -19 -15 0 -10 10
-15 30 -15 25 0 30 4 30 25 0 27 -5 31 -15 15z"/>
<path d="M2572 4028 c3 -21 9 -23 66 -26 61 -3 62 -2 62 23 0 24 -2 25 -66 25
-62 0 -65 -1 -62 -22z"/>
<path d="M2683 3853 c4 -3 -3 -11 -16 -17 -34 -17 -36 -70 -3 -92 24 -15 28
-15 51 0 14 10 25 26 25 39 0 21 -1 21 -13 -3 -15 -29 -48 -37 -66 -16 -15 18
-6 52 15 60 8 3 12 2 9 -4 -9 -14 8 -13 23 2 13 13 -1 38 -21 38 -6 0 -7 -3
-4 -7z"/>
<path d="M1114 3806 c-10 -41 -1 -61 26 -61 29 0 35 19 21 58 -13 34 -39 35
-47 3z"/>
<path d="M360 3803 c0 -10 -4 -25 -10 -33 -7 -11 -11 -8 -20 15 l-12 30 -13
-25 c-8 -14 -14 -28 -15 -31 0 -10 65 -6 72 4 4 7 12 6 22 -2 19 -16 21 -4 6
33 -11 30 -30 35 -30 9z"/>
<path d="M1228 3814 c-12 -11 -10 -52 3 -59 14 -10 16 -5 9 33 -3 19 -8 30
-12 26z"/>
<path d="M1362 3785 c0 -23 3 -30 5 -17 2 12 8 22 13 22 5 0 11 -10 13 -22 4
-17 5 -16 4 5 -1 15 -6 27 -11 26 -5 0 -13 5 -17 13 -6 8 -8 -2 -7 -27z"/>
<path d="M1260 3795 c-16 -19 -6 -45 17 -45 15 0 16 2 3 10 -13 8 -12 10 3 10
20 0 22 13 3 29 -10 9 -16 8 -26 -4z"/>
<path d="M1317 3803 c-4 -3 -7 -17 -7 -30 0 -16 6 -23 20 -23 11 0 20 4 20 10
0 5 -7 7 -15 4 -9 -4 -15 0 -15 10 0 9 7 16 16 16 8 0 12 5 9 10 -7 12 -19 13
-28 3z"/>
<path d="M1443 3803 c-15 -5 -18 -53 -3 -53 6 0 11 10 11 23 1 19 2 19 6 3 6
-24 28 -47 37 -39 11 11 7 65 -4 58 -6 -4 -16 -2 -23 3 -7 5 -18 7 -24 5z"/>
<path d="M1517 3804 c-4 -4 -7 -18 -7 -31 0 -17 6 -23 21 -23 16 0 20 5 17 27
-3 26 -18 39 -31 27z m23 -29 c0 -8 -4 -15 -10 -15 -5 0 -10 7 -10 15 0 8 5
15 10 15 6 0 10 -7 10 -15z"/>
<path d="M1569 3808 c-1 -2 -3 -15 -4 -29 l-4 -26 85 0 c54 0 84 4 84 11 0 6
4 5 9 -2 6 -10 10 -8 16 10 l7 23 8 -25 c8 -24 8 -24 9 -2 1 27 21 30 21 2 0
-14 7 -20 23 -20 12 0 18 4 12 8 -5 4 -15 16 -21 26 -12 22 -51 28 -67 11 -9
-10 -14 -9 -23 3 -9 13 -15 14 -26 4 -11 -8 -17 -9 -26 0 -13 13 -42 -6 -42
-28 0 -18 -10 -17 -34 1 -11 8 -14 15 -7 15 7 0 9 5 6 10 -6 9 -23 14 -26 8z
m111 -27 c0 -5 -7 -11 -15 -15 -9 -3 -15 0 -15 9 0 8 7 15 15 15 8 0 15 -4 15
-9z m40 -6 c0 -8 -4 -15 -10 -15 -5 0 -10 7 -10 15 0 8 5 15 10 15 6 0 10 -7
10 -15z"/>
<path d="M1851 3777 c1 -24 3 -26 6 -9 2 12 8 22 13 22 5 0 11 -10 13 -22 4
-16 5 -14 4 6 -1 19 -8 30 -19 32 -14 2 -18 -5 -17 -29z"/>
<path d="M1904 3797 c-10 -26 3 -62 22 -62 14 0 20 8 22 29 5 37 -32 64 -44
33z"/>
<path d="M757 3623 c299 -2 787 -2 1085 0 299 1 55 2 -542 2 -597 0 -841 -1
-543 -2z"/>
<path d="M2413 3623 c15 -2 39 -2 55 0 15 2 2 4 -28 4 -30 0 -43 -2 -27 -4z"/>
<path d="M2573 3623 c43 -2 110 -2 150 0 40 1 5 3 -78 3 -82 0 -115 -2 -72 -3z"/>
<path d="M2585 3520 c-3 -5 -4 -10 -1 -10 58 -5 207 1 209 7 3 12 -200 16
-208 3z"/>
<path d="M507 3453 c1 -48 5 -68 14 -68 8 0 13 14 13 35 1 25 6 36 19 38 14 3
17 -4 17 -37 0 -30 4 -41 15 -41 21 0 21 83 -1 101 -13 10 -19 10 -36 0 -19
-12 -20 -11 -16 13 4 19 1 26 -11 26 -13 0 -16 -11 -14 -67z"/>
<path d="M620 3450 c0 -56 3 -70 15 -70 12 0 15 14 15 70 0 56 -3 70 -15 70
-12 0 -15 -14 -15 -70z"/>
<path d="M670 3449 c0 -62 2 -70 17 -67 14 3 17 11 15 41 -4 48 7 47 36 -4 13
-22 28 -39 35 -36 6 2 12 32 14 70 3 54 1 67 -11 67 -10 0 -16 -13 -18 -42
l-3 -42 -28 42 c-42 64 -57 56 -57 -29z"/>
<path d="M860 3465 c0 -60 -1 -61 -30 -43 -23 14 -33 8 -24 -16 9 -22 52 -32
69 -15 7 8 15 40 18 72 5 52 4 57 -14 57 -16 0 -19 -7 -19 -55z"/>
<path d="M227 3496 c-8 -19 3 -87 16 -103 13 -18 37 -16 37 2 0 8 -4 15 -10
15 -5 0 -10 11 -10 25 0 14 5 25 10 25 15 0 12 19 -4 36 -19 18 -32 18 -39 0z"/>
<path d="M307 3472 c-22 -24 -21 -55 1 -75 22 -20 43 -22 60 -5 20 20 14 28
-18 22 -19 -4 -30 -2 -30 5 0 6 14 11 30 11 23 0 30 4 30 20 0 18 -26 40 -48
40 -5 0 -16 -8 -25 -18z m45 -24 c-12 -12 -35 -1 -27 12 3 5 13 6 21 3 10 -4
12 -9 6 -15z"/>
<path d="M418 3479 c-12 -6 -18 -22 -18 -45 0 -27 5 -37 26 -46 27 -13 54 -3
62 21 3 10 -4 11 -27 6 -29 -6 -31 -5 -31 20 0 24 3 26 30 20 34 -8 41 8 11
25 -24 12 -31 12 -53 -1z"/>
<path d="M923 3464 c-15 -24 -15 -29 -2 -53 18 -32 45 -38 70 -15 23 21 25 57
3 78 -23 24 -51 19 -71 -10z m57 -29 c0 -25 -23 -35 -35 -15 -10 16 2 40 20
40 9 0 15 -9 15 -25z"/>
<path d="M1043 3483 c-22 -8 -14 -43 12 -53 14 -5 25 -14 25 -20 0 -13 -17
-13 -25 0 -10 16 -35 12 -29 -5 8 -21 51 -30 69 -15 24 20 18 40 -15 51 -16 6
-27 15 -24 20 3 5 14 4 25 -2 26 -13 36 -5 19 16 -12 15 -34 18 -57 8z"/>
<path d="M2580 3450 c0 -6 43 -10 110 -10 67 0 110 4 110 10 0 6 -43 10 -110
10 -67 0 -110 -4 -110 -10z"/>
<path d="M2685 3390 c-3 -5 0 -13 8 -16 23 -8 102 0 102 11 0 14 -102 19 -110
5z"/>
<path d="M180 3270 c0 -7 448 -10 1324 -10 873 0 1327 3 1331 10 4 7 -440 10
-1324 10 -881 0 -1331 -3 -1331 -10z"/>
<path d="M221 3048 c0 -29 1 -31 9 -11 9 21 15 22 167 25 191 4 214 1 220 -23
8 -30 23 -22 23 11 l0 30 -210 0 -210 0 1 -32z"/>
<path d="M240 3006 c0 -19 5 -38 10 -41 6 -4 10 10 10 34 0 23 -4 41 -10 41
-5 0 -10 -15 -10 -34z"/>
<path d="M519 3035 c0 -5 -3 -22 -5 -36 -4 -22 -1 -26 18 -25 14 1 22 7 20 15
-3 14 14 31 32 31 4 0 6 -11 4 -25 -3 -14 -1 -28 3 -31 5 -3 9 13 9 35 0 42
-7 50 -28 29 -9 -9 -12 -9 -12 3 0 12 -2 12 -10 -1 -9 -13 -11 -13 -20 0 -5 8
-10 11 -11 5z"/>
<path d="M272 3008 c2 -6 10 -14 18 -16 7 -3 10 0 6 6 -3 6 0 13 6 15 7 3 3 6
-10 6 -14 1 -22 -4 -20 -11z"/>
<path d="M320 3005 c0 -8 -12 -18 -26 -21 -17 -5 -22 -10 -15 -17 7 -7 14 -7
24 1 10 9 16 9 25 0 9 -9 15 -9 25 1 10 10 8 15 -6 26 -18 13 -18 13 0 18 14
4 14 5 -4 6 -14 1 -23 -5 -23 -14z"/>
<path d="M372 2993 c2 -21 9 -28 26 -29 19 -1 22 4 21 30 -1 23 -3 26 -6 9 -5
-28 -23 -30 -23 -3 0 11 -5 20 -11 20 -6 0 -9 -12 -7 -27z"/>
<path d="M432 2993 c3 -26 38 -49 38 -24 0 5 -8 12 -17 14 -13 3 -12 5 5 6 30
1 24 25 -7 29 -19 3 -22 0 -19 -25z"/>
<path d="M620 2983 c0 -38 -19 -43 -164 -43 -76 0 -137 -2 -135 -4 2 -2 75 -6
162 -9 l157 -5 -2 35 c-2 36 -18 58 -18 26z"/>
<path d="M220 2958 c0 -41 -7 -39 80 -27 8 1 -1 4 -20 8 -23 4 -39 14 -47 31
-12 25 -13 24 -13 -12z"/>
<path d="M210 2870 c0 -7 440 -10 1300 -10 860 0 1300 3 1300 10 0 7 -440 10
-1300 10 -860 0 -1300 -3 -1300 -10z"/>
<path d="M236 2717 c-39 -29 1 -106 42 -81 27 18 28 44 0 44 -18 0 -20 -2 -8
-10 18 -11 6 -25 -15 -16 -10 3 -15 15 -13 28 2 19 8 22 32 20 26 -3 28 -1 17
12 -16 19 -32 20 -55 3z"/>
<path d="M500 2714 c0 -8 -4 -13 -9 -10 -14 9 -33 -21 -29 -46 2 -18 9 -23 33
-23 29 0 30 2 33 48 2 37 0 47 -12 47 -9 0 -16 -7 -16 -16z m5 -44 c0 -7 -6
-15 -12 -17 -8 -3 -13 4 -13 17 0 13 5 20 13 18 6 -3 12 -11 12 -18z"/>
<path d="M643 2715 c-11 -19 -4 -85 8 -85 5 0 9 12 10 28 0 15 2 37 5 50 4 25
-11 30 -23 7z"/>
<path d="M1210 2680 c0 -27 5 -50 10 -50 6 0 10 23 10 50 0 28 -4 50 -10 50
-5 0 -10 -22 -10 -50z"/>
<path d="M1300 2704 c0 -14 4 -23 10 -19 6 3 10 15 10 26 0 10 -4 19 -10 19
-5 0 -10 -12 -10 -26z"/>
<path d="M1690 2680 c0 -51 16 -70 22 -25 4 35 22 35 28 -1 3 -16 9 -24 12
-18 12 19 -7 69 -25 66 -10 -2 -17 4 -17 13 0 8 -4 15 -10 15 -5 0 -10 -22
-10 -50z"/>
<path d="M1921 2712 c-11 -21 2 -42 26 -42 7 0 13 -5 13 -10 0 -6 -11 -8 -27
-4 -26 7 -27 6 -14 -10 20 -24 55 -17 59 12 3 17 -2 25 -17 29 -12 3 -21 10
-21 15 0 5 10 6 21 3 15 -5 20 -3 17 6 -7 22 -45 23 -57 1z"/>
<path d="M2190 2715 c0 -8 -3 -14 -7 -14 -27 4 -34 -3 -31 -33 3 -28 7 -33 31
-35 26 -2 27 0 27 48 0 27 -4 49 -10 49 -5 0 -10 -7 -10 -15z m0 -45 c0 -21
-15 -27 -25 -10 -7 12 2 30 16 30 5 0 9 -9 9 -20z"/>
<path d="M2426 2683 c-17 -49 -13 -69 8 -40 17 22 25 22 42 0 17 -23 18 -4 2
48 -15 52 -33 49 -52 -8z"/>
<path d="M688 2708 c-7 -20 6 -71 18 -75 10 -3 10 6 5 80 -1 12 -19 8 -23 -5z"/>
<path d="M1249 2708 c-5 -55 12 -91 33 -70 9 9 9 12 -1 12 -8 0 -11 11 -9 32
2 18 -2 33 -9 35 -7 3 -13 -1 -14 -9z"/>
<path d="M1647 2713 c-8 -13 7 -76 19 -80 6 -2 10 14 9 39 -1 38 -16 60 -28
41z"/>
<path d="M320 2695 c-15 -18 -10 -45 13 -59 15 -9 21 -7 33 8 14 20 14 20 28
0 12 -15 18 -17 33 -8 23 14 28 41 13 59 -16 19 -25 19 -44 -1 -15 -14 -17
-14 -32 0 -19 20 -28 20 -44 1z m32 -37 c-15 -15 -26 -4 -18 18 5 13 9 15 18
6 9 -9 9 -15 0 -24z m78 12 c0 -11 -4 -20 -9 -20 -14 0 -23 18 -16 30 10 17
25 11 25 -10z"/>
<path d="M577 2704 c-12 -13 -7 -24 8 -18 8 4 15 1 15 -5 0 -6 -9 -11 -21 -11
-33 0 -20 -35 14 -36 26 -1 28 1 25 35 -3 34 -24 52 -41 35z"/>
<path d="M742 2698 c-17 -17 -15 -57 3 -64 8 -4 23 -3 33 2 15 7 14 8 -5 11
-13 3 -23 8 -23 13 0 5 6 7 14 4 20 -8 30 14 16 31 -15 18 -22 19 -38 3z"/>
<path d="M804 2701 c-2 -2 -4 -19 -4 -38 0 -39 17 -45 22 -6 4 39 28 42 28 4
0 -17 5 -31 10 -31 6 0 10 11 10 24 0 26 19 47 21 24 3 -33 4 -38 12 -38 4 0
9 0 11 0 2 0 1 14 -3 32 -6 31 -9 32 -55 33 -26 0 -49 -2 -52 -4z"/>
<path d="M936 2694 c-20 -19 -20 -25 -2 -50 12 -15 18 -17 33 -8 23 14 28 41
13 59 -16 19 -25 19 -44 -1z m34 -30 c0 -16 -16 -19 -25 -4 -8 13 4 32 16 25
5 -4 9 -13 9 -21z"/>
<path d="M1010 2696 c-6 -8 -10 -25 -8 -38 2 -17 10 -23 28 -23 18 0 26 6 28
23 3 22 -13 52 -28 52 -4 0 -13 -7 -20 -14z m30 -26 c0 -11 -4 -20 -10 -20 -5
0 -10 9 -10 20 0 11 5 20 10 20 6 0 10 -9 10 -20z"/>
<path d="M1075 2702 c-3 -3 -5 -20 -5 -39 0 -39 17 -45 22 -8 2 14 8 26 13 26
6 0 11 -12 13 -26 2 -14 8 -25 13 -25 14 0 11 56 -3 67 -14 11 -44 13 -53 5z"/>
<path d="M1343 2703 c-20 -8 -15 -29 10 -42 l22 -12 -23 5 c-15 3 -22 0 -19
-7 6 -18 51 -15 55 4 1 8 -7 21 -20 27 l-23 12 24 -6 c17 -4 22 -2 19 7 -5 15
-26 21 -45 12z"/>
<path d="M1437 2704 c-13 -13 -7 -23 11 -18 11 4 9 0 -7 -14 -28 -23 -21 -43
15 -40 22 2 25 6 22 38 -3 33 -24 51 -41 34z"/>
<path d="M1500 2668 c0 -21 5 -38 10 -38 6 0 10 14 10 31 0 17 4 28 10 24 6
-3 10 -17 10 -31 0 -13 5 -24 10 -24 14 0 12 57 -2 66 -33 20 -48 11 -48 -28z"/>
<path d="M1582 2698 c-26 -26 0 -77 33 -64 20 7 20 62 -1 70 -20 8 -18 8 -32
-6z m28 -28 c0 -11 -4 -20 -10 -20 -5 0 -10 9 -10 20 0 11 5 20 10 20 6 0 10
-9 10 -20z"/>
<path d="M1783 2703 c-19 -7 -16 -62 3 -70 8 -3 20 -1 27 6 8 8 7 11 -6 11 -9
0 -17 4 -17 10 0 5 6 7 14 4 20 -8 30 14 16 31 -13 16 -17 17 -37 8z"/>
<path d="M1840 2670 c0 -22 5 -40 10 -40 6 0 10 11 10 25 0 13 8 29 18 34 9 6
15 11 12 11 -50 11 -50 11 -50 -30z"/>
<path d="M1998 2705 c-3 -3 -2 -20 1 -38 5 -25 12 -32 34 -34 25 -2 27 1 27
38 0 21 -4 39 -10 39 -5 0 -10 -14 -10 -31 0 -20 -4 -29 -12 -26 -7 2 -13 13
-13 24 0 23 -8 36 -17 28z"/>
<path d="M2075 2701 c-3 -2 -5 -19 -5 -38 0 -39 17 -45 22 -8 4 30 23 34 23 5
1 -25 13 -37 20 -18 10 26 -12 67 -35 65 -12 -1 -23 -3 -25 -6z"/>
<path d="M2237 2703 c-13 -12 -7 -22 10 -16 11 4 14 3 9 -5 -4 -7 -14 -12 -22
-12 -28 0 -11 -34 19 -37 24 -2 27 1 27 32 0 21 -6 35 -16 39 -19 7 -19 7 -27
-1z"/>
<path d="M2294 2686 c3 -13 9 -31 12 -40 3 -9 1 -16 -5 -16 -6 0 -11 -4 -11
-10 0 -5 7 -10 15 -10 15 0 61 88 51 97 -9 10 -26 -9 -26 -28 0 -11 -4 -17
-10 -14 -5 3 -10 15 -10 26 0 10 -5 19 -11 19 -7 0 -9 -9 -5 -24z"/>
<path d="M2502 2673 c3 -34 6 -38 31 -39 25 -1 27 2 27 39 0 22 -3 37 -7 33
-5 -4 -8 -17 -8 -29 0 -11 -6 -22 -12 -24 -9 -3 -13 6 -13 26 0 17 -5 31 -11
31 -6 0 -9 -16 -7 -37z"/>
<path d="M2580 2690 c-13 -25 -3 -48 23 -53 22 -4 22 -4 0 -6 -13 0 -23 -6
-23 -12 0 -6 12 -9 28 -7 24 3 27 7 30 48 3 42 1 45 -23 46 -15 1 -29 -5 -35
-16z m35 -30 c-5 -8 -11 -8 -17 -2 -6 6 -7 16 -3 22 5 8 11 8 17 2 6 -6 7 -16
3 -22z"/>
<path d="M1150 2645 c0 -8 5 -15 10 -15 6 0 10 7 10 15 0 8 -4 15 -10 15 -5 0
-10 -7 -10 -15z"/>
<path d="M2656 2652 c-3 -6 -1 -14 5 -17 15 -10 25 3 12 16 -7 7 -13 7 -17 1z"/>
<path d="M2350 2630 c0 -11 4 -20 9 -20 5 0 11 9 14 20 3 13 0 20 -9 20 -8 0
-14 -9 -14 -20z"/>
<path d="M2980 2280 c0 -183 2 -331 5 -328 3 3 6 151 6 328 0 177 -3 325 -6
328 -3 3 -5 -145 -5 -328z"/>
<path d="M224 2558 c-4 -6 -2 -14 4 -16 7 -2 12 -17 12 -33 0 -16 5 -29 10
-29 6 0 10 20 10 45 0 33 -4 45 -14 45 -8 0 -18 -5 -22 -12z"/>
<path d="M291 2548 c2 -13 0 -29 -4 -35 -12 -20 1 -33 33 -33 29 0 30 2 27 43
-2 38 -5 42 -30 45 -25 3 -28 0 -26 -20z m39 -43 c0 -8 -4 -15 -9 -15 -13 0
-22 16 -14 24 11 11 23 6 23 -9z"/>
<path d="M426 2554 c-5 -13 -1 -15 19 -10 32 8 32 -1 -2 -36 l-27 -28 37 0
c20 0 37 4 37 10 0 5 -7 7 -15 4 -20 -8 -19 5 1 27 9 10 14 25 11 34 -8 20
-53 19 -61 -1z"/>
<path d="M511 2551 c-15 -27 -14 -47 5 -65 12 -12 20 -13 35 -5 29 15 23 83
-8 87 -14 2 -26 -4 -32 -17z m39 -25 c0 -14 -5 -28 -10 -31 -13 -8 -24 20 -16
40 9 24 26 17 26 -9z"/>
<path d="M587 2563 c-15 -14 -6 -23 18 -17 32 8 32 -3 -2 -38 l-27 -28 38 0
c23 0 35 4 31 10 -4 6 -11 8 -16 5 -15 -10 -10 7 7 26 9 10 14 25 11 34 -6 15
-48 21 -60 8z"/>
<path d="M676 2545 c-23 -35 -20 -52 12 -58 35 -7 40 0 35 46 -6 43 -24 48
-47 12z"/>
<path d="M368 2494 c-5 -4 -8 -16 -8 -28 0 -14 3 -17 11 -9 6 6 9 19 7 28 -1
9 -6 13 -10 9z"/>
<path d="M742 2489 c2 -6 8 -10 13 -10 5 0 11 4 13 10 2 6 -4 11 -13 11 -9 0
-15 -5 -13 -11z"/>
<path d="M231 2279 c-15 -43 -14 -54 4 -39 12 10 18 10 32 -1 15 -12 16 -12
10 4 -4 11 -10 30 -13 43 -8 33 -20 30 -33 -7z"/>
<path d="M288 2298 c-2 -7 -1 -26 3 -43 4 -20 7 -23 8 -10 1 11 4 30 7 43 7
23 -11 32 -18 10z"/>
<path d="M600 2303 c0 -5 -11 -13 -25 -20 -15 -6 -25 -7 -25 -1 0 5 -10 8 -22
6 -25 -3 -33 -25 -18 -48 8 -12 13 -13 29 -3 13 8 22 9 26 3 3 -6 15 -10 26
-10 16 0 19 7 19 40 0 22 -2 40 -5 40 -3 0 -5 -3 -5 -7z m-60 -38 c0 -8 -4
-15 -10 -15 -5 0 -10 7 -10 15 0 8 5 15 10 15 6 0 10 -7 10 -15z m55 -15 c-5
-8 -11 -8 -17 -2 -6 6 -7 16 -3 22 5 8 11 8 17 2 6 -6 7 -16 3 -22z"/>
<path d="M812 2270 c0 -25 2 -36 5 -25 8 34 23 41 23 12 0 -28 14 -37 23 -14
4 10 6 10 6 0 1 -15 41 -18 41 -3 0 5 -7 7 -15 4 -8 -4 -15 -1 -15 5 0 18 38
12 43 -6 4 -15 5 -14 6 3 0 11 6 25 13 32 9 9 8 12 -5 12 -9 0 -17 -5 -17 -10
0 -6 -8 -5 -20 2 -17 11 -22 10 -31 -2 -8 -11 -12 -12 -16 -2 -2 6 -11 12 -18
12 -7 0 -16 6 -18 13 -3 6 -5 -8 -5 -33z"/>
<path d="M1010 2295 c0 -8 5 -15 10 -15 6 0 10 7 10 15 0 8 -4 15 -10 15 -5 0
-10 -7 -10 -15z"/>
<path d="M1041 2275 c-1 -33 3 -41 18 -42 15 -1 18 6 18 38 0 47 -16 53 -18 7
l-2 -33 -7 35 -7 35 -2 -40z"/>
<path d="M1110 2269 c0 -36 2 -40 22 -37 30 4 35 35 9 59 -28 26 -31 25 -31
-22z m32 -21 c-9 -9 -12 -7 -12 12 0 19 3 21 12 12 9 -9 9 -15 0 -24z"/>
<path d="M1254 2299 c-3 -6 -2 -14 4 -18 5 -3 12 -17 15 -31 3 -16 5 -10 6 18
1 40 -10 54 -25 31z"/>
<path d="M1307 2304 c-15 -16 -7 -44 14 -44 11 0 18 -4 14 -10 -3 -5 -13 -6
-23 -3 -13 5 -15 3 -5 -7 21 -22 45 -4 41 32 -3 31 -25 48 -41 32z"/>
<path d="M1646 2295 c-3 -9 3 -19 14 -25 27 -15 25 -29 -2 -23 -18 5 -20 3
-12 -7 15 -16 48 -9 52 11 1 9 -7 21 -20 27 l-23 11 23 0 c13 1 20 5 17 11 -9
15 -42 12 -49 -5z"/>
<path d="M1860 2300 c0 -5 -7 -10 -15 -10 -7 0 -18 -7 -23 -16 -8 -15 -10 -15
-15 0 -4 9 -16 16 -27 16 -16 0 -20 -7 -20 -30 0 -16 5 -30 10 -30 6 0 10 12
10 26 0 14 4 23 10 19 6 -3 10 -16 10 -28 0 -16 3 -18 9 -8 6 9 11 10 15 2 4
-6 16 -11 27 -11 16 0 19 7 19 40 0 22 -2 40 -5 40 -3 0 -5 -4 -5 -10z m-5
-50 c-5 -8 -11 -8 -17 -2 -6 6 -7 16 -3 22 5 8 11 8 17 2 6 -6 7 -16 3 -22z"/>
<path d="M2060 2269 c0 -36 2 -40 22 -37 30 4 35 35 9 59 -28 26 -31 25 -31
-22z m35 -19 c-6 -9 -9 -9 -16 1 -10 17 0 34 13 21 6 -6 7 -16 3 -22z"/>
<path d="M2178 2298 c-2 -7 -1 -26 3 -43 4 -20 7 -23 8 -10 1 11 4 30 7 43 7
23 -11 32 -18 10z"/>
<path d="M2410 2300 c0 -5 -7 -7 -17 -3 -13 5 -15 2 -10 -18 4 -13 7 -30 7
-36 0 -7 9 -13 20 -13 15 0 20 7 20 25 0 34 18 32 23 -2 4 -26 4 -26 6 5 1 22
-3 32 -14 32 -8 0 -15 5 -15 10 0 6 -4 10 -10 10 -5 0 -10 -4 -10 -10z"/>
<path d="M2700 2300 c0 -5 -7 -10 -16 -10 -26 0 -14 -54 14 -58 20 -3 22 1 22
37 0 23 -4 41 -10 41 -5 0 -10 -4 -10 -10z m0 -42 c0 -16 -3 -19 -11 -11 -6 6
-8 16 -5 22 11 17 16 13 16 -11z"/>
<path d="M322 2268 c2 -17 8 -33 14 -35 6 -2 8 10 6 32 -5 44 -24 47 -20 3z"/>
<path d="M472 2269 c4 -42 23 -49 22 -7 0 18 -6 34 -13 36 -9 3 -11 -6 -9 -29z"/>
<path d="M772 2269 c4 -43 27 -51 23 -7 -1 17 -8 34 -14 36 -9 3 -11 -6 -9
-29z"/>
<path d="M354 2276 c-13 -35 24 -64 42 -34 5 8 2 9 -9 5 -10 -3 -17 -2 -17 3
0 6 7 10 16 10 20 0 13 24 -9 28 -10 2 -20 -4 -23 -12z"/>
<path d="M411 2258 c1 -22 3 -26 6 -13 3 11 10 26 15 33 8 9 6 12 -6 12 -12 0
-16 -9 -15 -32z"/>
<path d="M627 2268 c-7 -25 -1 -38 18 -38 19 0 27 17 20 40 -8 27 -31 25 -38
-2z"/>
<path d="M671 2285 c0 -5 4 -19 8 -30 5 -11 4 -25 -1 -32 -7 -9 -7 -13 1 -13
11 0 41 51 41 70 0 5 -4 10 -10 10 -5 0 -10 -8 -10 -17 0 -15 -2 -14 -15 3 -8
10 -14 15 -14 9z"/>
<path d="M957 2275 c-4 -8 -4 -22 -1 -30 7 -17 44 -21 44 -4 0 6 -7 9 -15 5
-8 -3 -15 -1 -15 4 0 6 7 10 16 10 20 0 13 24 -8 28 -9 2 -18 -4 -21 -13z"/>
<path d="M1174 2276 c-13 -35 24 -64 42 -34 5 8 2 9 -9 5 -10 -3 -17 -2 -17 3
0 6 7 10 16 10 20 0 13 24 -9 28 -10 2 -20 -4 -23 -12z"/>
<path d="M1387 2283 c-11 -10 -8 -53 3 -53 6 0 10 9 10 20 0 27 18 25 23 -2 4
-19 4 -18 6 5 1 33 21 27 22 -6 0 -12 3 -16 6 -9 4 10 8 10 19 1 19 -16 44 -4
44 21 0 25 -25 37 -45 20 -10 -9 -15 -9 -15 -1 0 12 -62 16 -73 4z m118 -33
c-5 -8 -11 -8 -17 -2 -6 6 -7 16 -3 22 5 8 11 8 17 2 6 -6 7 -16 3 -22z"/>
<path d="M1531 2258 c1 -22 3 -26 6 -13 3 11 10 26 15 33 8 9 6 12 -6 12 -12
0 -16 -9 -15 -32z"/>
<path d="M1566 2275 c-3 -8 -3 -22 0 -30 7 -17 44 -21 44 -4 0 6 -7 9 -15 5
-8 -3 -15 -1 -15 4 0 6 9 10 20 10 13 0 18 5 14 15 -4 8 -14 15 -24 15 -10 0
-20 -7 -24 -15z"/>
<path d="M1711 2263 c-1 -27 3 -33 19 -33 16 0 20 6 19 33 -1 23 -3 26 -6 10
-2 -13 -8 -23 -13 -23 -5 0 -11 10 -13 23 -3 16 -5 13 -6 -10z"/>
<path d="M1898 2282 c11 -8 11 -10 -2 -15 -23 -9 -20 -37 4 -37 14 0 20 7 20
21 0 12 4 17 11 13 6 -3 8 -17 4 -31 -4 -17 -2 -24 6 -21 15 5 42 78 28 78 -5
0 -9 -8 -9 -17 0 -15 -2 -15 -9 -4 -5 8 -22 16 -38 18 -19 2 -24 1 -15 -5z"/>
<path d="M1985 2279 c-4 -6 1 -17 11 -25 18 -14 18 -14 0 -7 -13 4 -17 3 -12
-5 4 -7 13 -12 21 -12 23 0 28 20 9 36 -11 9 -13 13 -6 9 6 -3 12 -1 12 4 0
14 -27 14 -35 0z"/>
<path d="M2124 2275 c-4 -8 -4 -22 0 -30 6 -17 36 -21 36 -4 0 5 -4 8 -9 4 -5
-3 -12 -1 -16 5 -3 5 3 10 14 10 14 0 19 5 15 15 -4 8 -13 15 -20 15 -8 0 -17
-7 -20 -15z"/>
<path d="M2217 2283 c-4 -3 -7 -15 -7 -25 0 -23 29 -36 41 -17 6 10 9 10 9 2
0 -26 18 -12 22 17 3 19 1 29 -6 27 -6 -3 -10 -11 -8 -18 1 -9 -3 -8 -11 4
-15 18 -29 22 -40 10z m23 -25 c0 -16 -3 -19 -11 -11 -6 6 -8 16 -5 22 11 17
16 13 16 -11z"/>
<path d="M2304 2276 c-13 -35 24 -64 42 -34 5 8 2 9 -9 5 -9 -3 -19 -2 -22 3
-4 6 3 10 15 10 13 0 20 5 18 13 -7 18 -37 21 -44 3z"/>
<path d="M2475 2271 c-3 -12 -3 -25 0 -31 8 -14 45 -13 45 1 0 6 -7 9 -15 5
-8 -3 -15 -1 -15 4 0 6 7 10 16 10 20 0 13 24 -8 28 -9 2 -19 -6 -23 -17z"/>
<path d="M2554 2276 c-13 -33 23 -65 41 -36 3 6 -1 7 -9 4 -9 -3 -16 -1 -16 5
0 6 7 11 16 11 20 0 13 24 -9 28 -10 2 -20 -4 -23 -12z"/>
<path d="M2610 2261 c0 -17 5 -31 10 -31 6 0 10 12 10 26 0 15 4 23 11 19 6
-4 8 -13 5 -21 -3 -7 0 -16 5 -20 7 -4 9 5 7 22 -2 21 -9 30 -25 32 -20 3 -23
-1 -23 -27z"/>
<path d="M716 2235 c-3 -8 -1 -17 3 -20 5 -3 11 2 15 10 3 8 1 17 -3 20 -5 3
-11 -2 -15 -10z"/>
<path d="M282 2155 c-10 -19 -4 -75 9 -75 5 0 9 10 10 23 0 12 2 30 4 39 4 24
-12 32 -23 13z"/>
<path d="M340 2144 c0 -14 3 -14 15 -4 12 10 15 10 15 -3 0 -8 -7 -20 -15 -27
-22 -18 -18 -30 10 -30 14 0 25 5 25 10 0 6 -5 10 -10 10 -7 0 -7 7 0 20 6 11
8 25 5 30 -10 16 -45 11 -45 -6z"/>
<path d="M404 2146 c-11 -28 0 -61 21 -61 16 0 20 7 20 35 0 25 -5 36 -18 38
-9 2 -20 -3 -23 -12z m31 -26 c0 -7 -6 -15 -12 -17 -8 -3 -13 4 -13 17 0 13 5
20 13 18 6 -3 12 -11 12 -18z"/>
<path d="M467 2153 c-14 -13 -6 -25 8 -13 12 10 15 10 15 -3 0 -8 -7 -20 -15
-27 -22 -18 -18 -30 10 -30 14 0 25 5 25 10 0 14 37 12 43 -2 4 -10 6 -9 6 1
1 11 4 11 16 1 9 -7 15 -8 15 -2 0 5 -7 12 -15 16 -8 3 -15 17 -15 31 0 14 -5
25 -10 25 -6 0 -8 -11 -4 -25 4 -15 2 -25 -5 -25 -6 0 -8 8 -5 18 4 12 0 10
-12 -5 -9 -13 -21 -23 -26 -23 -6 0 -5 7 2 15 22 26 -10 62 -33 38z"/>
<path d="M224 2126 c-9 -24 4 -48 23 -44 24 4 24 52 0 56 -9 2 -20 -4 -23 -12z
m33 -22 c-9 -9 -28 6 -21 18 4 6 10 6 17 -1 6 -6 8 -13 4 -17z"/>
<path d="M255 1849 c-22 -3 -34 -7 -27 -8 6 0 12 -14 12 -31 0 -16 5 -30 11
-30 7 0 9 11 6 30 -5 22 -3 30 8 30 10 0 15 -10 15 -30 0 -16 5 -30 10 -30 6
0 10 9 10 20 0 27 17 25 23 -2 4 -17 5 -16 4 5 -1 15 -6 27 -12 27 -5 -1 -12
4 -15 12 -3 9 -17 11 -45 7z"/>
<path d="M343 1820 c0 -25 2 -35 4 -22 2 12 2 32 0 45 -2 12 -4 2 -4 -23z"/>
<path d="M629 1856 c-3 -3 -3 -22 -1 -42 3 -25 7 -32 13 -23 6 10 9 11 9 2 0
-27 15 -11 16 17 1 23 -2 28 -12 19 -9 -8 -13 -5 -16 11 -2 12 -5 19 -9 16z"/>
<path d="M1082 1820 c-1 -29 1 -40 7 -31 6 9 11 10 15 2 4 -6 16 -11 27 -11
14 0 19 7 19 25 0 14 -4 25 -10 25 -5 0 -10 -9 -10 -21 0 -12 -4 -17 -11 -14
-6 4 -8 14 -5 22 4 10 2 13 -8 10 -10 -4 -16 2 -19 16 -2 12 -5 2 -5 -23z"/>
<path d="M1380 1860 c-5 -19 -4 -80 3 -80 4 0 7 9 7 20 0 27 17 25 23 -2 4
-17 5 -16 4 5 -1 15 -6 27 -12 27 -5 -1 -12 7 -16 17 -4 10 -8 16 -9 13z"/>
<path d="M1538 1823 c-1 -37 -1 -37 -5 -5 -4 32 -18 43 -25 20 -3 -7 -2 -23 0
-35 6 -31 52 -33 52 -3 0 27 18 25 23 -2 4 -21 4 -21 6 2 1 22 -27 60 -44 60
-3 0 -6 -17 -7 -37z"/>
<path d="M2043 1820 c2 -52 17 -52 17 0 0 22 -4 40 -9 40 -5 0 -8 -18 -8 -40z"/>
<path d="M2162 1843 c-5 -10 -6 -29 -2 -43 6 -23 7 -22 14 14 8 43 2 57 -12
29z"/>
<path d="M2500 1833 c0 -26 -1 -26 -15 -7 -15 19 -15 19 -33 -3 -13 -15 -23
-18 -33 -12 -12 7 -12 9 1 9 10 0 11 3 3 11 -16 16 -30 4 -30 -25 0 -22 3 -24
46 -24 25 1 49 6 53 12 5 8 8 7 8 -1 0 -7 3 -13 8 -13 4 0 8 18 9 40 0 22 -3
40 -8 40 -5 0 -9 -12 -9 -27z m-20 -28 c0 -8 -4 -15 -10 -15 -5 0 -10 7 -10
15 0 8 5 15 10 15 6 0 10 -7 10 -15z"/>
<path d="M2583 1820 c0 -25 2 -35 4 -22 2 12 2 32 0 45 -2 12 -4 2 -4 -23z"/>
<path d="M830 1834 c0 -13 -3 -14 -15 -4 -19 16 -35 4 -35 -26 0 -17 5 -24 20
-24 11 0 20 6 20 14 0 7 7 19 15 26 17 14 20 30 5 30 -5 0 -10 -7 -10 -16z"/>
<path d="M1745 1840 c-3 -6 -12 -10 -18 -9 -30 4 -38 -2 -35 -23 2 -15 11 -24
26 -26 18 -3 22 1 22 21 0 14 6 27 13 30 6 2 9 7 6 11 -4 4 -10 2 -14 -4z"/>
<path d="M2124 1818 c2 -18 7 -33 13 -35 5 -2 7 12 5 32 -2 19 -8 35 -13 35
-5 0 -7 -14 -5 -32z"/>
<path d="M364 1828 c-4 -6 1 -17 10 -24 16 -12 16 -13 -1 -17 -15 -4 -14 -5 4
-6 29 -1 38 15 16 28 -10 6 -12 11 -5 11 17 0 15 20 -2 20 -8 0 -18 -5 -22
-12z"/>
<path d="M438 1835 c-3 -5 -1 -21 4 -35 9 -24 10 -24 24 -6 8 11 14 27 14 35
-1 13 -3 13 -14 -2 -14 -18 -14 -18 -18 0 -2 10 -6 14 -10 8z"/>
<path d="M522 1828 c-7 -7 -12 -8 -12 -4 0 5 -7 3 -15 -4 -17 -14 -20 -40 -5
-40 6 0 10 8 10 18 1 16 1 16 11 0 5 -10 19 -18 30 -18 16 0 20 6 17 27 -3 30
-18 39 -36 21z"/>
<path d="M577 1834 c-4 -4 -7 -18 -7 -31 0 -17 6 -23 21 -23 16 0 20 5 17 27
-3 26 -18 39 -31 27z"/>
<path d="M700 1827 c0 -41 24 -63 33 -29 4 16 5 16 6 0 0 -10 5 -18 10 -18 12
0 25 39 17 47 -3 4 -6 -2 -7 -13 0 -15 -2 -14 -11 6 -6 16 -12 20 -15 12 -4
-10 -8 -10 -19 -1 -11 9 -14 8 -14 -4z"/>
<path d="M873 1833 c-15 -5 -18 -53 -4 -53 5 0 7 9 4 20 -3 11 -1 20 5 20 5 0
12 -9 15 -20 8 -30 47 -27 47 4 0 30 -16 42 -34 26 -8 -6 -16 -7 -18 -2 -1 5
-9 7 -15 5z"/>
<path d="M985 1831 c-3 -6 0 -11 7 -11 8 0 6 -5 -4 -11 -26 -15 -22 -29 8 -29
22 0 25 4 22 27 -3 28 -22 41 -33 24z"/>
<path d="M1039 1838 c-1 -2 -3 -15 -5 -30 -2 -22 1 -28 17 -28 21 0 26 25 7
33 -10 4 -10 6 0 6 15 1 6 21 -9 21 -5 0 -10 -1 -10 -2z"/>
<path d="M1161 1807 c1 -24 3 -26 6 -9 5 27 23 29 23 2 0 -11 4 -20 9 -20 17
0 -5 53 -22 56 -13 2 -17 -5 -16 -29z"/>
<path d="M1221 1826 c-17 -20 -3 -66 20 -66 20 0 35 39 25 65 -7 19 -30 19
-45 1z m29 -14 c0 -13 -12 -22 -22 -16 -10 6 -1 24 13 24 5 0 9 -4 9 -8z"/>
<path d="M1301 1818 c-1 -31 17 -47 30 -27 6 10 9 11 9 2 0 -23 18 -14 22 12
3 14 1 25 -3 25 -5 0 -9 -6 -9 -12 0 -9 -4 -8 -10 2 -8 13 -11 13 -19 1 -7
-11 -10 -10 -14 5 -3 14 -5 12 -6 -8z"/>
<path d="M1433 1801 c2 -50 13 -52 33 -6 17 41 17 45 4 45 -5 0 -10 -8 -10
-17 -1 -17 -2 -17 -14 0 -13 16 -14 14 -13 -22z"/>
<path d="M1613 1833 c-7 -3 -13 -16 -13 -29 0 -30 35 -34 43 -4 6 21 -11 40
-30 33z"/>
<path d="M1658 1810 c-3 -16 -1 -30 4 -30 4 0 8 6 8 14 0 8 3 21 6 30 3 9 2
16 -4 16 -5 0 -12 -13 -14 -30z"/>
<path d="M1777 1833 c-4 -3 -7 -17 -7 -30 0 -16 6 -23 20 -23 22 0 28 25 8 33
-10 4 -10 6 0 6 7 1 10 6 7 11 -7 12 -19 13 -28 3z"/>
<path d="M1847 1834 c-11 -11 -8 -54 3 -54 6 0 10 9 10 20 0 27 17 25 23 -2 4
-16 5 -13 4 7 -2 29 -24 45 -40 29z"/>
<path d="M1904 1826 c-9 -24 3 -46 26 -46 17 0 21 5 18 27 -3 31 -34 44 -44
19z m28 -21 c0 -5 -5 -11 -11 -13 -6 -2 -11 4 -11 13 0 9 5 15 11 13 6 -2 11
-8 11 -13z"/>
<path d="M1989 1837 c-6 -10 -4 -77 3 -77 4 0 8 5 8 10 0 6 6 10 14 10 18 0
30 30 16 44 -8 8 -38 18 -41 13z m31 -32 c0 -8 -4 -15 -10 -15 -5 0 -10 7 -10
15 0 8 5 15 10 15 6 0 10 -7 10 -15z"/>
<path d="M2076 1831 c-4 -5 2 -12 11 -14 17 -4 17 -5 1 -6 -25 -1 -22 -31 3
-31 16 0 20 5 17 27 -3 27 -22 41 -32 24z"/>
<path d="M2197 1833 c-4 -3 -7 -17 -7 -29 0 -20 5 -23 35 -22 27 1 35 6 35 20
0 10 5 18 10 18 6 0 10 -9 10 -20 0 -27 18 -25 23 3 l4 22 2 -22 c0 -13 5 -23
10 -23 5 0 12 10 14 23 l4 22 2 -22 c0 -13 6 -23 12 -23 6 0 9 12 7 28 -3 25
-6 27 -53 27 -27 1 -55 -3 -62 -7 -6 -5 -14 -5 -18 2 -7 12 -19 13 -28 3z m23
-28 c0 -8 -4 -15 -10 -15 -5 0 -10 7 -10 15 0 8 5 15 10 15 6 0 10 -7 10 -15z"/>
<path d="M2537 1834 c-4 -4 -7 -18 -7 -31 0 -17 6 -23 21 -23 16 0 20 5 17 27
-3 26 -18 39 -31 27z"/>
<path d="M2631 1823 c-6 -10 -11 -12 -11 -5 0 6 -4 12 -10 12 -6 0 -6 -9 0
-24 5 -15 5 -27 -3 -35 -8 -8 -7 -11 5 -11 10 0 21 14 28 36 13 39 8 56 -9 27z"/>
<path d="M227 1703 c-11 -10 -8 -73 3 -73 6 0 10 11 10 24 0 13 3 31 6 40 6
16 -7 22 -19 9z"/>
<path d="M546 1690 c-14 -15 -23 -17 -32 -9 -19 16 -44 4 -44 -21 0 -25 27
-37 43 -21 9 9 8 11 -5 6 -13 -5 -18 -2 -18 9 0 14 4 15 20 6 11 -6 20 -15 20
-20 0 -6 11 -10 25 -10 23 0 25 4 25 40 0 44 -6 48 -34 20z m14 -35 c0 -8 -4
-15 -10 -15 -5 0 -10 7 -10 15 0 8 5 15 10 15 6 0 10 -7 10 -15z"/>
<path d="M930 1670 c0 -22 3 -40 8 -40 4 0 7 18 7 40 0 22 -3 40 -7 40 -5 0
-8 -18 -8 -40z"/>
<path d="M1147 1697 c-3 -7 -2 -26 1 -43 l6 -29 7 25 c10 36 10 60 0 60 -5 0
-11 -6 -14 -13z"/>
<path d="M1230 1675 c0 -26 -3 -33 -15 -29 -8 4 -15 1 -15 -5 0 -15 33 -14 48
1 9 9 12 9 12 0 0 -18 38 -14 48 4 6 10 14 14 22 9 9 -6 9 -9 -1 -16 -11 -7
-10 -9 3 -9 20 0 36 22 20 28 -6 2 -8 10 -5 18 6 17 -18 19 -35 2 -9 -9 -12
-9 -12 0 0 18 -28 14 -39 -5 -9 -15 -10 -14 -11 10 0 15 -4 27 -10 27 -5 0
-10 -16 -10 -35z m60 -20 c0 -8 -4 -15 -10 -15 -5 0 -10 7 -10 15 0 8 5 15 10
15 6 0 10 -7 10 -15z"/>
<path d="M1560 1670 c0 -22 5 -40 10 -40 6 0 10 9 10 20 0 11 5 20 11 20 6 0
9 -9 6 -20 -3 -11 -1 -20 4 -20 17 0 9 46 -11 63 -28 24 -30 22 -30 -23z"/>
<path d="M2324 1699 c-3 -6 -1 -16 5 -22 8 -8 11 -5 11 11 0 24 -5 28 -16 11z"/>
<path d="M807 1693 c-7 -10 3 -63 12 -63 7 0 6 58 -1 66 -3 3 -8 2 -11 -3z"/>
<path d="M1420 1666 c0 -33 1 -34 41 -34 38 -1 40 1 37 26 -4 36 -35 42 -44 8
-3 -14 -10 -23 -15 -20 -5 3 -6 16 -3 30 4 14 2 24 -5 24 -6 0 -11 -15 -11
-34z"/>
<path d="M1967 1693 c-7 -10 3 -63 12 -63 7 0 6 58 -1 66 -3 3 -8 2 -11 -3z"/>
<path d="M257 1683 c-13 -12 -7 -44 8 -49 8 -4 22 -1 29 5 8 7 17 8 20 3 3 -5
26 -9 51 -10 44 0 45 0 44 31 -2 31 -2 31 -6 5 -5 -34 -23 -37 -23 -5 0 19 -5
23 -30 22 -17 0 -34 -6 -39 -13 -7 -11 -9 -11 -14 2 -6 16 -28 21 -40 9z m31
-24 c-2 -6 -8 -10 -13 -10 -5 0 -11 4 -13 10 -2 6 4 11 13 11 9 0 15 -5 13
-11z m72 2 c0 -11 -26 -22 -34 -14 -12 12 -5 23 14 23 11 0 20 -4 20 -9z"/>
<path d="M425 1679 c-4 -6 1 -17 11 -25 17 -14 17 -15 2 -10 -10 3 -18 1 -18
-4 0 -6 9 -10 19 -10 15 0 19 7 19 30 -1 30 -20 41 -33 19z"/>
<path d="M614 1676 c-9 -24 3 -46 26 -46 17 0 21 5 18 27 -3 31 -34 44 -44 19z
m36 -21 c0 -8 -4 -15 -10 -15 -5 0 -10 7 -10 15 0 8 5 15 10 15 6 0 10 -7 10
-15z"/>
<path d="M671 1658 c1 -23 3 -26 6 -10 5 27 23 29 23 2 0 -11 5 -20 11 -20 6
0 9 12 7 28 -2 19 -9 28 -25 30 -20 3 -23 -1 -22 -30z"/>
<path d="M755 1679 c-4 -6 1 -17 11 -25 17 -12 17 -13 2 -8 -10 3 -18 1 -18
-5 0 -13 36 -15 45 -2 3 5 1 12 -4 16 -6 3 -8 12 -4 20 6 17 -22 21 -32 4z"/>
<path d="M844 1675 c-8 -21 3 -45 20 -45 20 0 29 16 21 40 -7 23 -33 27 -41 5z
m27 -18 c-1 -12 -15 -9 -19 4 -3 6 1 10 8 8 6 -3 11 -8 11 -12z"/>
<path d="M900 1658 c0 -36 4 -35 14 5 4 16 2 27 -4 27 -5 0 -10 -14 -10 -32z"/>
<path d="M955 1671 c-3 -12 -3 -25 0 -31 8 -13 45 -13 45 0 0 5 -7 7 -15 4 -9
-4 -15 0 -15 10 0 10 5 13 16 9 12 -4 15 -2 12 8 -7 22 -36 22 -43 0z"/>
<path d="M1012 1660 c1 -22 6 -30 20 -30 20 0 25 26 6 33 -10 4 -10 6 0 6 20
2 14 21 -7 21 -15 0 -19 -7 -19 -30z"/>
<path d="M1091 1676 c-15 -18 -3 -46 20 -46 25 0 35 26 19 45 -15 19 -24 19
-39 1z m29 -21 c0 -8 -4 -15 -10 -15 -5 0 -10 7 -10 15 0 8 5 15 10 15 6 0 10
-7 10 -15z"/>
<path d="M1514 1675 c-4 -8 -4 -22 0 -30 6 -16 36 -21 36 -5 0 5 -7 7 -15 4
-9 -4 -15 0 -15 10 0 9 7 16 15 16 8 0 15 5 15 10 0 16 -30 12 -36 -5z"/>
<path d="M1645 1671 c-8 -27 1 -41 26 -41 16 0 20 6 17 27 -4 34 -33 43 -43
14z"/>
<path d="M1704 1675 c-14 -34 2 -43 78 -40 87 3 85 2 71 16 -6 6 -9 18 -6 25
6 17 -23 19 -33 3 -4 -8 -9 -7 -15 2 -7 11 -12 12 -28 2 -13 -8 -22 -9 -26 -3
-9 15 -35 12 -41 -5z m46 -14 c0 -11 -26 -22 -34 -14 -12 12 -5 23 14 23 11 0
20 -4 20 -9z m40 -6 c0 -8 -4 -15 -10 -15 -5 0 -10 7 -10 15 0 8 5 15 10 15 6
0 10 -7 10 -15z"/>
<path d="M1863 1652 c2 -50 12 -54 29 -12 12 29 14 30 33 15 20 -17 20 -17 0
-10 -15 5 -17 3 -8 -6 6 -6 19 -9 29 -5 13 5 14 10 6 18 -6 6 -8 16 -5 24 3 9
-5 12 -26 12 -21 -1 -31 -6 -31 -16 0 -12 -3 -12 -14 4 -13 17 -14 15 -13 -24z"/>
<path d="M2007 1684 c-4 -4 -7 -18 -7 -31 0 -17 6 -23 21 -23 16 0 20 5 17 27
-3 26 -18 39 -31 27z"/>
<path d="M2057 1684 c-10 -11 -9 -54 2 -54 5 0 12 10 14 23 l4 22 2 -22 c1
-28 21 -31 21 -3 0 31 17 24 24 -10 6 -33 20 -39 30 -14 4 11 2 15 -8 11 -10
-4 -16 2 -18 21 -2 22 -9 28 -33 30 -17 2 -34 0 -38 -4z"/>
<path d="M2194 1670 c3 -14 6 -28 6 -32 0 -16 19 -8 23 10 4 16 5 16 6 0 0
-10 5 -18 10 -18 10 0 25 50 16 58 -3 3 -5 -3 -5 -14 -1 -18 -1 -18 -14 -1
-11 14 -15 15 -19 5 -4 -10 -8 -10 -17 2 -10 12 -11 10 -6 -10z"/>
<path d="M2277 1684 c-4 -4 -7 -18 -7 -31 0 -17 6 -23 21 -23 16 0 20 5 17 27
-3 26 -18 39 -31 27z"/>
<path d="M2351 1658 c1 -24 3 -27 6 -10 2 12 9 22 14 22 5 0 9 5 9 10 0 6 -7
10 -15 10 -11 0 -15 -10 -14 -32z"/>
<path d="M2385 1670 c-8 -25 1 -40 24 -40 22 0 34 33 18 49 -17 17 -35 13 -42
-9z"/>
<path d="M500 1524 c0 -22 -4 -33 -10 -29 -6 4 -10 15 -8 24 3 19 0 21 -32 21
-16 0 -20 -6 -19 -32 1 -30 2 -30 8 -9 9 34 31 39 31 7 0 -19 5 -26 20 -26 17
0 20 7 20 40 0 22 -2 40 -5 40 -3 0 -5 -16 -5 -36z"/>
<path d="M702 1520 c0 -25 2 -36 5 -25 8 34 23 41 23 12 0 -28 14 -37 23 -14
4 10 6 10 6 0 1 -15 41 -18 41 -3 0 5 -7 7 -15 4 -8 -4 -15 -1 -15 5 0 6 7 11
15 11 8 0 15 7 15 15 0 8 -9 15 -20 15 -12 0 -20 -7 -20 -17 -1 -17 -1 -17
-11 0 -5 9 -16 17 -24 17 -7 0 -16 6 -18 13 -3 6 -5 -8 -5 -33z"/>
<path d="M1327 1553 c-8 -15 -5 -73 4 -73 5 0 9 8 9 18 0 9 3 27 6 40 6 20 -9
32 -19 15z"/>
<path d="M1676 1545 c5 -11 2 -13 -10 -9 -12 5 -16 0 -16 -22 0 -30 -14 -23
-23 11 -3 12 -5 8 -4 -10 2 -23 7 -31 25 -33 17 -3 22 2 23 20 1 23 1 23 9 -2
7 -21 8 -19 9 18 1 23 -3 42 -9 42 -5 0 -7 -7 -4 -15z"/>
<path d="M1750 1518 c0 -32 3 -39 10 -28 9 13 11 13 19 0 6 -8 13 -11 17 -7 4
3 2 13 -4 20 -9 10 -8 17 0 25 7 7 8 12 2 12 -5 0 -15 -5 -21 -11 -9 -9 -10
-7 -6 10 3 12 1 21 -6 21 -6 0 -11 -18 -11 -42z"/>
<path d="M2187 1553 c-10 -10 -8 -73 2 -73 5 0 11 18 13 40 3 38 -1 48 -15 33z"/>
<path d="M2273 1520 c0 -25 2 -35 4 -22 2 12 2 32 0 45 -2 12 -4 2 -4 -23z"/>
<path d="M2290 1520 c0 -22 5 -40 10 -40 6 0 10 18 10 40 0 22 -4 40 -10 40
-5 0 -10 -18 -10 -40z"/>
<path d="M2453 1520 c0 -25 2 -35 4 -22 2 12 2 32 0 45 -2 12 -4 2 -4 -23z"/>
<path d="M2651 1520 c1 -25 3 -36 6 -25 8 34 23 41 23 12 0 -28 14 -37 23 -14
4 10 6 10 6 0 1 -15 41 -18 41 -3 0 5 -7 7 -15 4 -8 -4 -15 -1 -15 5 0 6 9 11
20 11 13 0 18 5 14 15 -7 17 -44 21 -44 5 0 -11 -40 8 -52 25 -4 6 -7 -10 -7
-35z"/>
<path d="M667 1543 c-7 -10 3 -63 12 -63 7 0 6 58 -1 66 -3 3 -8 2 -11 -3z"/>
<path d="M953 1529 c4 -13 7 -30 7 -36 0 -7 3 -13 8 -13 13 0 6 64 -8 68 -9 3
-11 -2 -7 -19z"/>
<path d="M2612 1519 c4 -43 27 -51 23 -7 -1 17 -8 34 -14 36 -9 3 -11 -6 -9
-29z"/>
<path d="M220 1510 c0 -16 4 -30 9 -30 5 0 11 14 13 30 3 20 0 30 -9 30 -8 0
-13 -12 -13 -30z"/>
<path d="M256 1525 c-8 -23 4 -45 25 -45 10 0 19 4 19 10 0 5 -7 7 -15 4 -8
-4 -15 -1 -15 5 0 6 9 11 20 11 15 0 20 -7 20 -27 0 -16 4 -23 8 -18 15 21 49
34 60 23 16 -16 42 -2 42 22 0 25 -25 37 -44 21 -10 -8 -16 -9 -21 -1 -9 14
-42 13 -48 -2 -4 -10 -6 -10 -6 0 -1 17 -38 15 -45 -3z m89 -25 c-5 -8 -11 -8
-17 -2 -6 6 -7 16 -3 22 5 8 11 8 17 2 6 -6 7 -16 3 -22z m60 0 c-5 -8 -11 -8
-17 -2 -6 6 -7 16 -3 22 5 8 11 8 17 2 6 -6 7 -16 3 -22z"/>
<path d="M520 1511 c0 -17 5 -31 11 -31 6 0 9 6 6 13 -3 8 -1 20 3 28 8 11 10
11 14 -1 12 -39 15 -43 13 -15 -1 23 -7 31 -24 33 -20 3 -23 -1 -23 -27z"/>
<path d="M584 1527 c-10 -26 3 -62 22 -62 15 0 20 8 22 38 3 32 0 37 -18 37
-11 0 -23 -6 -26 -13z m27 -20 c-13 -13 -26 -3 -16 12 3 6 11 8 17 5 6 -4 6
-10 -1 -17z"/>
<path d="M836 1524 c-7 -19 10 -44 31 -44 7 0 18 10 23 23 l9 22 0 -22 c1 -16
7 -23 21 -23 16 0 20 6 19 33 -1 21 -3 25 -6 12 -8 -32 -23 -42 -23 -14 0 20
-5 24 -34 26 -24 2 -36 -2 -40 -13z m34 -16 c0 -16 -3 -19 -11 -11 -6 6 -8 16
-5 22 11 17 16 13 16 -11z"/>
<path d="M986 1525 c-8 -23 4 -45 25 -45 10 0 19 5 19 10 0 6 -6 9 -12 8 -7
-2 -13 4 -13 12 0 8 6 14 13 13 6 -2 12 2 12 7 0 16 -37 12 -44 -5z"/>
<path d="M1044 1526 c-9 -24 4 -48 23 -44 12 2 18 12 18 28 0 29 -32 41 -41
16z m26 -18 c0 -16 -3 -19 -11 -11 -6 6 -8 16 -5 22 11 17 16 13 16 -11z"/>
<path d="M1101 1508 c1 -24 3 -27 6 -10 2 12 9 22 14 22 5 0 10 -10 10 -22 1
-21 2 -21 6 -3 8 33 23 42 23 14 0 -21 4 -25 33 -24 25 0 33 5 35 23 4 27 -22
40 -43 22 -10 -9 -15 -9 -15 -1 0 6 -16 11 -35 11 -33 0 -35 -2 -34 -32z"/>
<path d="M1264 1526 c-9 -24 4 -48 23 -44 24 4 24 52 0 56 -9 2 -20 -4 -23
-12z"/>
<path d="M1384 1526 c-9 -24 4 -48 23 -44 24 4 24 52 0 56 -9 2 -20 -4 -23
-12z m28 -28 c-9 -9 -12 -7 -12 12 0 19 3 21 12 12 9 -9 9 -15 0 -24z"/>
<path d="M1443 1515 c2 -23 7 -31 25 -33 19 -3 22 1 22 27 0 17 -4 31 -10 31
-5 0 -10 -12 -10 -27 0 -29 -14 -22 -23 12 -3 12 -5 8 -4 -10z"/>
<path d="M1501 1508 c1 -22 3 -26 6 -13 3 11 10 26 15 33 8 9 6 12 -6 12 -12
0 -16 -9 -15 -32z"/>
<path d="M1567 1533 c-15 -14 -6 -41 18 -57 l25 -16 0 40 c0 32 -4 40 -18 40
-10 0 -22 -3 -25 -7z m28 -33 c-5 -8 -11 -8 -17 -2 -6 6 -7 16 -3 22 5 8 11 8
17 2 6 -6 7 -16 3 -22z"/>
<path d="M1704 1525 c-4 -8 -4 -22 0 -30 6 -17 36 -21 36 -5 0 6 -5 9 -11 8
-6 -2 -14 3 -16 10 -3 6 2 12 11 12 9 0 16 5 16 10 0 16 -30 12 -36 -5z"/>
<path d="M1830 1529 c0 -7 8 -18 18 -26 16 -14 16 -14 0 -9 -10 3 -18 1 -18
-4 0 -6 9 -10 20 -10 23 0 26 19 8 39 -10 11 -10 13 0 7 6 -4 12 -2 12 3 0 6
-9 11 -20 11 -11 0 -20 -5 -20 -11z"/>
<path d="M1882 1513 c2 -20 9 -29 26 -31 19 -3 22 1 21 30 -1 21 -3 26 -6 13
-8 -34 -23 -41 -23 -12 0 15 -5 27 -11 27 -6 0 -9 -12 -7 -27z"/>
<path d="M1941 1508 c1 -22 3 -26 6 -13 9 35 22 40 32 12 11 -29 31 -37 31
-13 0 8 3 23 6 33 5 17 5 17 -9 0 -13 -15 -15 -16 -21 -2 -3 8 -15 15 -26 15
-16 0 -20 -6 -19 -32z"/>
<path d="M2026 1525 c-8 -23 4 -45 25 -45 10 0 19 4 19 10 0 5 -7 7 -15 4 -8
-4 -15 -1 -15 5 0 6 12 11 26 11 23 0 25 -3 20 -25 -10 -38 12 -30 29 11 18
43 18 44 5 44 -5 0 -10 -8 -10 -17 -1 -16 -2 -16 -11 1 -9 15 -13 16 -20 5 -6
-10 -9 -11 -9 -1 0 17 -37 15 -44 -3z"/>
<path d="M2214 1526 c-9 -24 4 -48 23 -44 24 4 24 52 0 56 -9 2 -20 -4 -23
-12z m31 -26 c-5 -8 -11 -8 -17 -2 -6 6 -7 16 -3 22 5 8 11 8 17 2 6 -6 7 -16
3 -22z"/>
<path d="M2320 1510 c0 -21 5 -30 16 -30 19 0 43 28 44 50 0 13 -1 13 -10 0
-6 -10 -10 -11 -10 -2 0 6 -9 12 -20 12 -16 0 -20 -7 -20 -30z m30 -5 c0 -8
-4 -15 -10 -15 -5 0 -10 7 -10 15 0 8 5 15 10 15 6 0 10 -7 10 -15z"/>
<path d="M2392 1520 c-7 -11 -12 -24 -12 -30 0 -17 18 -11 23 8 4 16 5 16 6 0
1 -17 21 -26 21 -10 0 4 3 18 6 32 5 20 3 22 -5 10 -8 -11 -13 -12 -19 -3 -6
9 -11 7 -20 -7z"/>
<path d="M2471 1508 c1 -22 3 -26 6 -13 8 34 23 41 23 12 0 -15 5 -27 10 -27
6 0 10 8 10 18 0 14 2 14 9 3 5 -8 7 -20 4 -28 -3 -8 2 -13 15 -13 22 0 32 18
32 56 0 19 -5 24 -24 24 -13 0 -27 -6 -30 -12 -5 -10 -7 -10 -12 0 -3 6 -14
12 -25 12 -15 0 -19 -7 -18 -32z"/>
<path d="M2125 1487 c-4 -10 -5 -21 -1 -24 10 -10 18 4 13 24 -4 17 -4 17 -12
0z"/>
<path d="M476 1394 c-9 -24 -7 -62 4 -69 6 -3 10 4 11 17 0 13 2 33 5 46 4 25
-11 30 -20 6z"/>
<path d="M1078 1402 c-10 -2 -18 -8 -18 -13 0 -5 -7 -9 -15 -9 -11 0 -15 -10
-14 -32 2 -31 2 -31 6 -5 5 33 23 36 23 4 0 -16 6 -23 20 -23 16 0 20 7 19 31
-1 29 -1 29 -9 5 l-8 -25 -1 27 c-1 14 5 28 12 31 17 6 5 14 -15 9z"/>
<path d="M1172 1365 c0 -27 2 -44 5 -37 3 9 9 10 18 2 9 -8 12 -3 11 20 -1 19
-5 28 -13 26 -6 -3 -14 5 -16 17 -2 12 -5 0 -5 -28z"/>
<path d="M1248 1404 c-5 -4 -8 -22 -8 -41 0 -38 21 -53 46 -32 13 10 17 10 24
-1 13 -22 40 -3 39 27 l0 28 -11 -25 c-11 -25 -11 -25 -15 -2 -5 24 -18 29
-26 10 -4 -10 -6 -10 -6 0 -1 6 -7 12 -15 12 -8 0 -16 7 -18 16 -2 9 -6 12
-10 8z m32 -49 c0 -8 -4 -15 -10 -15 -5 0 -10 7 -10 15 0 8 5 15 10 15 6 0 10
-7 10 -15z"/>
<path d="M2020 1395 c0 -8 -6 -15 -14 -15 -8 0 -18 -5 -21 -10 -11 -18 6 -50
26 -50 16 0 19 7 19 45 0 25 -2 45 -5 45 -3 0 -5 -7 -5 -15z m0 -40 c0 -8 -4
-15 -9 -15 -13 0 -22 16 -14 24 11 11 23 6 23 -9z"/>
<path d="M2458 1403 c-2 -5 -1 -26 3 -48 l6 -40 2 48 c1 44 -3 57 -11 40z"/>
<path d="M357 1393 c-7 -12 4 -73 13 -73 4 0 7 16 5 36 -4 38 -10 51 -18 37z"/>
<path d="M530 1359 c0 -23 4 -38 10 -34 5 3 7 13 4 23 -5 14 -2 13 11 -3 14
-17 17 -18 25 -5 7 10 10 11 10 3 0 -30 16 -10 17 22 1 38 -15 48 -24 15 -3
-11 -9 -20 -13 -20 -5 0 -12 9 -15 20 -11 34 -25 22 -25 -21z"/>
<path d="M725 1369 c7 -29 6 -30 -14 -18 -14 9 -17 16 -8 21 6 4 -3 6 -21 6
-24 -1 -32 -6 -32 -20 0 -26 -18 -23 -23 5 -4 15 -5 12 -4 -8 2 -36 35 -49 44
-17 3 13 10 19 20 15 12 -5 12 -7 2 -14 -23 -14 -1 -22 29 -11 21 7 33 7 41
-1 8 -8 11 -8 11 0 0 7 -5 15 -10 18 -8 5 -7 12 2 23 11 13 10 15 -4 9 -12 -4
-18 -2 -18 8 0 8 -5 15 -11 15 -7 0 -8 -11 -4 -31z"/>
<path d="M780 1384 c0 -8 5 -12 10 -9 6 3 10 -1 10 -9 0 -9 6 -16 13 -16 8 0
7 -3 -3 -10 -18 -11 -7 -25 15 -17 23 10 20 57 -5 57 -11 0 -20 5 -20 10 0 6
-4 10 -10 10 -5 0 -10 -7 -10 -16z"/>
<path d="M877 1386 c-3 -8 4 -22 16 -30 l22 -17 -22 6 c-18 5 -22 3 -17 -10 9
-21 48 -15 52 8 3 12 -4 20 -17 24 -12 3 -21 10 -21 15 0 5 10 6 21 3 15 -5
19 -4 15 4 -10 16 -43 14 -49 -3z"/>
<path d="M942 1365 c3 -37 5 -39 35 -40 18 0 33 3 33 8 1 43 -1 47 -23 47 -13
0 -29 6 -36 13 -10 10 -12 4 -9 -28z m43 -9 c-20 -14 -35 -12 -35 5 0 5 12 9
27 9 26 0 26 -1 8 -14z"/>
<path d="M1380 1365 c0 -19 5 -35 10 -35 6 0 10 16 10 35 0 19 -4 35 -10 35
-5 0 -10 -16 -10 -35z"/>
<path d="M1440 1390 c0 -5 -7 -10 -15 -10 -9 0 -15 -9 -15 -24 0 -29 12 -39
34 -30 18 7 23 74 6 74 -5 0 -10 -4 -10 -10z m2 -35 c0 -5 -5 -11 -11 -13 -6
-2 -11 4 -11 13 0 9 5 15 11 13 6 -2 11 -8 11 -13z"/>
<path d="M1634 1388 c-5 -8 -2 -9 9 -5 9 3 19 2 22 -3 4 -6 1 -10 -6 -10 -8 0
-7 -5 2 -16 12 -15 11 -16 -9 -10 -25 8 -32 -11 -7 -20 24 -10 42 12 37 46 -4
31 -33 42 -48 18z"/>
<path d="M2124 1387 c-3 -9 -3 -28 0 -41 5 -20 12 -23 41 -23 31 1 35 4 35 29
0 23 -4 28 -22 27 -19 0 -20 -2 -6 -7 15 -6 13 -9 -9 -19 -22 -11 -25 -10 -20
6 7 27 -10 51 -19 28z"/>
<path d="M2210 1367 c0 -20 4 -38 9 -42 11 -6 9 60 -2 71 -4 4 -7 -9 -7 -29z"/>
<path d="M223 1345 c2 -29 6 -35 25 -35 19 0 22 5 22 35 0 31 -3 35 -25 35
-22 0 -25 -4 -22 -35z m37 17 c0 -13 -12 -22 -22 -16 -10 6 -1 24 13 24 5 0 9
-4 9 -8z"/>
<path d="M281 1358 c0 -16 2 -28 7 -28 4 0 17 -3 30 -6 18 -5 22 -2 22 15 0
11 -6 21 -12 21 -9 0 -8 4 2 10 12 8 11 10 -7 10 -27 0 -30 -15 -5 -29 15 -9
15 -10 -5 -11 -15 0 -23 7 -26 23 -4 19 -4 18 -6 -5z"/>
<path d="M414 1365 c-9 -23 4 -47 23 -43 11 2 19 14 21 31 3 22 -1 27 -18 27
-11 0 -23 -7 -26 -15z m36 -10 c0 -8 -4 -15 -10 -15 -5 0 -10 7 -10 15 0 8 5
15 10 15 6 0 10 -7 10 -15z"/>
<path d="M1111 1348 c1 -22 3 -26 6 -13 8 31 23 42 23 17 0 -12 5 -22 10 -22
11 0 13 11 4 34 -3 9 -15 16 -25 16 -15 0 -19 -7 -18 -32z"/>
<path d="M1362 1350 c0 -19 2 -27 5 -17 2 9 2 25 0 35 -3 9 -5 1 -5 -18z"/>
<path d="M1491 1348 c1 -22 3 -26 6 -13 8 31 23 42 23 17 0 -24 15 -30 23 -9
3 6 6 2 6 -11 1 -18 6 -23 24 -20 17 2 23 11 25 36 3 29 1 32 -22 32 -14 0
-26 -5 -26 -12 0 -9 -3 -9 -12 0 -7 7 -20 12 -30 12 -14 0 -18 -7 -17 -32z
m89 7 c0 -8 -4 -15 -10 -15 -5 0 -10 7 -10 15 0 8 5 15 10 15 6 0 10 -7 10
-15z"/>
<path d="M1720 1344 c0 -31 3 -35 23 -32 17 2 23 11 25 36 3 29 1 32 -22 32
-23 0 -26 -4 -26 -36z m31 13 c-1 -12 -15 -9 -19 4 -3 6 1 10 8 8 6 -3 11 -8
11 -12z"/>
<path d="M1781 1346 c2 -30 2 -30 6 -3 5 31 23 37 23 7 0 -27 30 -39 44 -18 9
15 11 15 22 1 16 -23 44 -9 44 22 0 14 -4 25 -10 25 -5 0 -10 -9 -10 -20 0
-11 -4 -20 -10 -20 -5 0 -10 10 -10 23 0 18 -2 19 -10 7 -6 -9 -10 -10 -10 -3
0 7 -16 12 -40 11 -38 0 -40 -2 -39 -32z m69 9 c0 -8 -4 -15 -9 -15 -13 0 -22
16 -14 24 11 11 23 6 23 -9z"/>
<path d="M1931 1348 c2 -31 2 -31 6 -5 2 15 8 27 13 27 5 0 11 -12 13 -27 4
-26 4 -26 6 5 1 26 -3 32 -19 32 -16 0 -20 -6 -19 -32z"/>
<path d="M2070 1365 c0 -8 6 -15 13 -15 9 0 8 -3 -2 -9 -10 -6 -10 -10 -1 -16
19 -11 36 11 21 29 -9 11 -9 15 1 19 7 3 3 6 -9 6 -14 1 -23 -5 -23 -14z"/>
<path d="M2240 1352 c0 -16 4 -22 14 -19 7 3 18 1 24 -5 15 -15 32 -1 32 27 0
21 -4 24 -35 23 -30 -1 -35 -5 -35 -26z m60 3 c0 -8 -4 -15 -10 -15 -5 0 -10
7 -10 15 0 8 5 15 10 15 6 0 10 -7 10 -15z"/>
<path d="M2320 1356 c0 -14 5 -28 10 -31 6 -4 10 6 10 21 0 30 15 23 23 -11 3
-13 5 -9 6 13 1 28 -2 32 -24 32 -20 0 -25 -5 -25 -24z"/>
<path d="M2380 1365 c0 -8 6 -15 13 -15 8 0 7 -3 -3 -10 -12 -8 -12 -10 4 -16
11 -4 21 -2 26 7 11 17 4 29 -18 30 -14 0 -13 2 3 9 19 8 19 9 -2 9 -14 1 -23
-5 -23 -14z"/>
<path d="M2480 1350 c0 -17 4 -29 10 -25 5 3 7 12 4 19 -3 8 -1 17 5 21 7 3
11 -2 11 -14 0 -11 5 -23 11 -26 7 -5 9 3 7 21 -2 21 -9 30 -25 32 -20 3 -23
-1 -23 -28z"/>
<path d="M716 1248 c-4 -10 -14 -18 -22 -18 -18 0 -18 -46 -1 -53 25 -10 38 9
35 49 -3 29 -6 35 -12 22z m-6 -43 c0 -8 -4 -15 -10 -15 -5 0 -10 7 -10 15 0
8 5 15 10 15 6 0 10 -7 10 -15z"/>
<path d="M968 1254 c-12 -11 -10 -74 2 -74 6 0 10 9 10 20 0 27 18 25 23 -2 4
-20 4 -19 6 5 1 17 -4 27 -13 27 -8 0 -16 7 -18 16 -2 9 -6 12 -10 8z"/>
<path d="M220 1215 c0 -35 20 -51 20 -17 1 16 1 16 14 0 20 -27 26 -22 25 20
-1 32 -2 34 -8 12 l-7 -25 -12 23 c-18 32 -32 27 -32 -13z"/>
<path d="M290 1203 c0 -24 15 -31 23 -10 3 6 6 2 6 -11 1 -18 6 -23 23 -20 18
2 23 10 24 35 2 32 1 33 -37 31 -34 -1 -39 -4 -39 -25z m60 2 c0 -8 -4 -15
-10 -15 -5 0 -10 7 -10 15 0 8 5 15 10 15 6 0 10 -7 10 -15z"/>
<path d="M378 1218 c-8 -21 2 -38 23 -38 14 0 19 7 19 25 0 18 -5 25 -19 25
-10 0 -21 -6 -23 -12z"/>
<path d="M430 1205 c0 -14 5 -25 11 -25 6 0 9 6 6 14 -3 7 0 19 6 25 8 8 7 11
-6 11 -11 0 -17 -8 -17 -25z"/>
<path d="M505 1220 c17 -7 17 -9 3 -9 -25 -1 -23 -31 2 -31 15 0 20 7 20 25 0
19 -5 25 -22 24 -22 0 -22 -1 -3 -9z"/>
<path d="M585 1220 c17 -7 17 -9 3 -9 -17 -1 -24 -21 -12 -34 12 -12 34 6 34
29 0 18 -5 24 -22 23 -22 0 -22 -1 -3 -9z"/>
<path d="M620 1205 c0 -14 5 -25 10 -25 6 0 10 9 10 20 0 27 18 25 23 -2 4
-20 4 -19 6 5 1 23 -3 27 -24 27 -20 0 -25 -5 -25 -25z"/>
<path d="M770 1221 c0 -5 -3 -16 -6 -25 -3 -9 -1 -16 5 -16 6 0 11 9 11 20 0
27 18 25 23 -2 l4 -23 2 23 c0 12 5 22 10 22 5 0 12 -10 14 -22 4 -20 4 -19 6
5 1 25 -2 27 -34 27 -19 0 -35 -4 -35 -9z"/>
<path d="M850 1206 c0 -13 6 -26 13 -29 22 -8 37 5 36 32 0 26 0 26 -10 3 -5
-13 -13 -21 -18 -17 -6 3 -8 12 -4 20 3 8 0 15 -6 15 -6 0 -11 -11 -11 -24z"/>
<path d="M910 1206 c0 -23 22 -41 34 -29 12 12 6 22 -9 17 -10 -4 -15 0 -15
11 0 11 5 15 15 11 8 -3 15 -1 15 4 0 6 -9 10 -20 10 -14 0 -20 -7 -20 -24z"/>
<path d="M1040 1205 c0 -14 5 -25 10 -25 6 0 10 9 10 20 0 27 18 25 23 -2 l4
-23 2 23 c0 12 6 22 11 22 6 0 10 -10 11 -22 0 -13 3 -17 6 -11 3 10 8 9 19
-2 20 -19 46 -8 42 19 -3 24 -37 34 -49 14 -6 -10 -9 -10 -9 0 0 7 -15 12 -40
12 -36 0 -40 -2 -40 -25z m130 0 c0 -8 -7 -15 -15 -15 -8 0 -15 7 -15 15 0 8
7 15 15 15 8 0 15 -7 15 -15z"/>
<path d="M1191 1201 c2 -23 2 -24 6 -3 5 23 23 31 23 9 0 -19 20 -36 36 -30 8
3 14 16 14 28 0 21 -5 24 -40 23 -37 0 -40 -2 -39 -27z"/>
<path d="M227 953 c-11 -10 -8 -73 3 -73 6 0 10 6 10 14 0 8 6 17 13 19 10 4
10 6 0 6 -18 1 -16 21 2 21 8 0 15 5 15 10 0 11 -33 14 -43 3z"/>
<path d="M283 920 c0 -25 2 -35 4 -22 2 12 2 32 0 45 -2 12 -4 2 -4 -23z"/>
<path d="M483 920 c0 -25 2 -35 4 -22 2 12 2 32 0 45 -2 12 -4 2 -4 -23z"/>
<path d="M850 948 c0 -4 -6 -8 -14 -8 -8 0 -16 -7 -20 -15 -8 -23 4 -45 25
-45 14 0 19 7 19 30 0 20 5 30 15 30 8 0 15 4 15 9 0 6 -9 9 -20 8 -11 -1 -20
-5 -20 -9z m0 -43 c0 -8 -4 -15 -10 -15 -5 0 -10 7 -10 15 0 8 5 15 10 15 6 0
10 -7 10 -15z"/>
<path d="M1023 953 c-7 -3 -13 -9 -13 -14 0 -4 7 -6 15 -3 11 5 12 0 5 -25 -5
-17 -6 -31 -2 -31 7 0 32 48 32 61 0 10 -23 17 -37 12z"/>
<path d="M1117 953 c-4 -3 -7 -19 -7 -34 0 -23 -4 -27 -17 -22 -14 5 -16 3 -6
-7 20 -22 43 -4 43 35 0 36 -2 40 -13 28z"/>
<path d="M1478 955 c-8 -8 13 -75 24 -75 11 0 10 13 -5 49 -7 17 -16 29 -19
26z"/>
<path d="M1581 917 c1 -23 4 -32 6 -19 2 12 8 22 13 22 5 0 11 -10 13 -22 4
-21 4 -21 6 2 0 15 -8 33 -19 43 -20 16 -20 16 -19 -26z"/>
<path d="M1780 924 c-7 -19 -9 -38 -6 -41 3 -4 6 -1 6 5 0 19 21 14 43 -10 13
-16 21 -19 24 -10 3 6 11 12 18 12 7 0 16 6 18 13 3 6 6 2 6 -10 1 -22 21 -34
21 -13 0 6 6 10 14 10 20 0 29 16 21 40 -7 22 -34 27 -52 9 -8 -8 -13 -8 -17
0 -13 21 -36 12 -36 -14 0 -35 -17 -31 -25 5 -10 43 -22 45 -35 4z m90 -19 c0
-8 -4 -15 -10 -15 -5 0 -10 7 -10 15 0 8 5 15 10 15 6 0 10 -7 10 -15z m60 0
c0 -8 -4 -15 -10 -15 -5 0 -10 7 -10 15 0 8 5 15 10 15 6 0 10 -7 10 -15z"/>
<path d="M2030 931 c0 -27 -20 -47 -34 -34 -11 11 -6 23 9 23 8 0 15 5 15 11
0 6 -8 9 -17 7 -12 -2 -18 -12 -18 -28 0 -21 5 -25 33 -27 25 -1 32 3 32 18 0
26 18 24 23 -3 4 -21 4 -21 6 2 0 15 -8 33 -19 43 -27 23 -30 22 -30 -12z"/>
<path d="M2310 920 c0 -22 5 -40 10 -40 6 0 10 18 10 40 0 22 -4 40 -10 40 -5
0 -10 -18 -10 -40z"/>
<path d="M387 943 c-7 -10 3 -63 12 -63 8 0 8 56 0 65 -4 3 -9 3 -12 -2z"/>
<path d="M447 943 c-7 -10 3 -63 12 -63 8 0 8 56 0 65 -4 3 -9 3 -12 -2z"/>
<path d="M1510 929 c0 -11 5 -17 10 -14 6 3 10 -3 10 -14 0 -12 5 -21 10 -21
6 0 10 1 10 3 0 1 4 17 9 35 6 20 6 32 0 32 -5 0 -9 -8 -9 -17 -1 -17 -1 -17
-14 0 -17 23 -26 22 -26 -4z"/>
<path d="M1690 916 c0 -34 2 -36 35 -36 24 0 35 5 35 15 0 8 -6 15 -12 15 -10
0 -9 3 1 9 10 6 10 10 1 16 -6 4 -17 2 -23 -5 -9 -9 -8 -14 6 -24 16 -12 15
-13 -9 -13 -22 0 -25 3 -20 23 3 12 2 26 -4 29 -6 4 -10 -8 -10 -29z"/>
<path d="M300 910 c0 -16 5 -30 11 -30 6 0 8 9 4 20 -4 11 -2 20 4 20 6 0 11
5 11 10 0 6 -7 10 -15 10 -10 0 -15 -10 -15 -30z"/>
<path d="M340 927 c0 -7 6 -19 13 -26 10 -10 8 -11 -8 -5 -16 5 -18 4 -8 -6 6
-7 19 -10 27 -7 17 7 22 27 6 27 -5 0 -7 7 -4 15 4 9 0 15 -10 15 -9 0 -16 -6
-16 -13z"/>
<path d="M506 933 c-10 -10 -7 -53 3 -53 5 0 12 10 14 23 l4 22 2 -22 c1 -28
21 -31 21 -3 0 11 5 20 11 20 6 0 9 -9 6 -20 -3 -11 -1 -20 4 -20 5 0 9 6 9
13 0 9 3 9 9 -1 5 -8 16 -12 26 -10 20 3 27 28 14 49 -7 11 -12 12 -28 2 -11
-7 -22 -9 -25 -4 -6 9 -61 12 -70 4z"/>
<path d="M671 908 c1 -24 3 -27 6 -10 2 12 9 22 14 22 5 0 9 5 9 10 0 6 -7 10
-15 10 -11 0 -15 -10 -14 -32z"/>
<path d="M710 925 c-17 -20 -6 -45 20 -45 17 0 21 5 18 27 -4 31 -20 40 -38
18z"/>
<path d="M766 931 c-3 -5 1 -11 9 -15 17 -6 20 -26 4 -26 -5 0 -7 5 -4 10 3 6
1 10 -4 10 -6 0 -11 -7 -11 -15 0 -8 9 -15 20 -15 16 0 20 7 20 30 0 29 -21
42 -34 21z"/>
<path d="M901 908 c1 -23 3 -26 6 -10 2 12 8 22 13 22 5 0 11 -10 13 -22 4
-16 5 -13 4 7 -1 20 -8 31 -19 33 -15 3 -18 -3 -17 -30z"/>
<path d="M954 927 c-10 -26 3 -62 22 -62 15 0 20 8 22 38 3 32 0 37 -18 37
-11 0 -23 -6 -26 -13z m34 -18 c-2 -6 -8 -10 -13 -10 -5 0 -11 4 -13 10 -2 6
4 11 13 11 9 0 15 -5 13 -11z"/>
<path d="M1144 926 c-9 -24 4 -48 23 -44 12 2 18 12 18 28 0 29 -32 41 -41 16z
m34 -18 c-6 -18 -28 -21 -28 -4 0 9 7 16 16 16 9 0 14 -5 12 -12z"/>
<path d="M1221 908 c1 -23 3 -26 6 -10 5 27 23 29 23 2 0 -11 5 -20 11 -20 6
0 9 12 7 28 -2 19 -9 28 -25 30 -20 3 -23 -1 -22 -30z"/>
<path d="M1304 926 c-9 -24 4 -48 23 -44 12 2 18 12 18 28 0 29 -32 41 -41 16z"/>
<path d="M1361 913 c-1 -31 1 -33 34 -33 28 0 35 4 35 20 0 11 5 20 10 20 6 0
10 5 10 10 0 6 -7 10 -15 10 -9 0 -15 -10 -16 -27 -1 -21 -2 -23 -6 -8 -8 34
-23 41 -23 12 0 -35 -17 -35 -23 1 -4 25 -4 25 -6 -5z"/>
<path d="M1640 931 c0 -6 5 -13 10 -16 13 -8 13 -25 -1 -25 -5 0 -7 5 -4 10 3
6 1 10 -4 10 -6 0 -11 -7 -11 -15 0 -9 9 -15 25 -15 25 0 31 13 19 44 -7 17
-34 22 -34 7z"/>
<path d="M2095 930 c-3 -5 1 -10 9 -10 9 0 16 -7 16 -15 0 -8 -5 -15 -11 -15
-5 0 -7 5 -4 10 3 6 1 10 -4 10 -6 0 -11 -7 -11 -15 0 -10 11 -15 35 -15 28 0
35 4 35 20 0 27 18 25 23 -2 4 -20 4 -19 6 5 1 32 -21 46 -44 27 -10 -9 -15
-9 -15 -1 0 14 -27 15 -35 1z"/>
<path d="M2207 934 c-11 -11 -8 -54 3 -54 6 0 10 9 10 21 0 11 4 18 10 14 5
-3 7 -12 3 -20 -3 -8 0 -15 7 -15 17 0 8 54 -10 58 -9 1 -19 0 -23 -4z"/>
<path d="M2264 926 c-9 -22 2 -46 21 -46 12 0 15 8 13 27 -3 30 -25 42 -34 19z"/>
<path d="M2364 928 c-4 -6 2 -18 12 -26 16 -13 17 -14 2 -9 -10 4 -18 2 -18
-3 0 -5 21 -8 48 -7 43 2 47 4 47 27 0 32 -34 41 -42 11 -3 -11 -9 -18 -14
-16 -4 3 -6 12 -2 20 6 18 -22 21 -33 3z m86 -23 c0 -8 -4 -15 -9 -15 -13 0
-22 16 -14 24 11 11 23 6 23 -9z"/>
<path d="M2496 923 c4 -10 8 -28 8 -40 1 -13 4 -23 8 -23 9 0 31 70 24 77 -3
4 -6 -1 -6 -10 0 -9 -4 -17 -10 -17 -5 0 -10 7 -10 15 0 8 -5 15 -11 15 -7 0
-8 -7 -3 -17z"/>
<path d="M2557 933 c-4 -3 -7 -17 -7 -30 0 -25 27 -32 48 -11 9 9 12 9 12 0 0
-7 9 -12 20 -12 16 0 20 6 19 33 -1 21 -3 25 -6 12 -8 -34 -23 -41 -23 -11 0
24 -2 27 -15 16 -10 -9 -15 -9 -15 -1 0 12 -23 15 -33 4z m23 -28 c0 -8 -4
-15 -10 -15 -5 0 -10 7 -10 15 0 8 5 15 10 15 6 0 10 -7 10 -15z"/>
<path d="M870 905 c0 -14 5 -25 10 -25 6 0 10 11 10 25 0 14 -4 25 -10 25 -5
0 -10 -11 -10 -25z"/>
<path d="M883 765 c0 -27 2 -38 4 -22 2 15 2 37 0 50 -2 12 -4 0 -4 -28z"/>
<path d="M1480 766 c0 -26 4 -45 8 -42 10 6 8 73 -2 83 -3 3 -6 -15 -6 -41z"/>
<path d="M618 789 c-6 -18 3 -69 12 -69 4 0 7 16 5 36 -4 39 -11 52 -17 33z"/>
<path d="M678 789 c-6 -18 3 -69 12 -69 4 0 7 16 5 36 -4 39 -11 52 -17 33z"/>
<path d="M1312 760 c0 -25 2 -36 5 -25 8 34 23 41 23 11 0 -15 4 -25 9 -22 13
8 1 56 -14 56 -7 0 -16 6 -18 13 -3 6 -5 -8 -5 -33z"/>
<path d="M1800 772 c0 -22 -5 -32 -15 -32 -8 0 -15 -5 -15 -11 0 -6 8 -9 17
-7 20 4 37 58 23 72 -7 7 -10 -1 -10 -22z"/>
<path d="M1879 778 c0 -13 -3 -17 -6 -10 -6 14 -39 16 -48 2 -10 -16 5 -50 21
-50 8 0 18 8 21 17 6 15 7 14 13 -3 5 -14 8 -7 11 24 3 23 1 42 -3 42 -5 0 -8
-10 -9 -22z m-24 -38 c-6 -9 -9 -9 -16 1 -10 17 0 34 13 21 6 -6 7 -16 3 -22z"/>
<path d="M1992 760 c0 -25 2 -38 5 -30 14 43 16 44 23 15 l8 -30 1 33 c1 21
-4 32 -13 32 -8 0 -17 6 -19 13 -3 6 -5 -8 -5 -33z"/>
<path d="M1273 769 c4 -13 7 -30 7 -36 0 -7 4 -13 9 -13 14 0 5 64 -9 68 -9 3
-11 -2 -7 -19z"/>
<path d="M220 751 c0 -17 5 -31 10 -31 6 0 10 12 10 26 0 15 4 23 11 19 6 -4
8 -13 5 -21 -3 -7 0 -16 5 -20 7 -4 9 5 7 22 -2 21 -9 30 -25 32 -20 3 -23 -1
-23 -27z"/>
<path d="M284 765 c-4 -8 -4 -22 0 -30 6 -17 36 -21 36 -4 0 5 -4 8 -9 4 -5
-3 -12 -1 -16 5 -3 5 3 10 14 10 14 0 19 5 15 15 -4 8 -13 15 -20 15 -8 0 -17
-7 -20 -15z"/>
<path d="M336 760 c10 -39 24 -48 31 -21 6 24 6 24 14 3 9 -24 33 -29 45 -10
5 8 2 9 -9 5 -10 -3 -17 -2 -17 3 0 18 38 11 43 -7 4 -15 5 -14 6 3 0 11 6 25
13 32 9 9 8 12 -5 12 -9 0 -17 -5 -17 -11 0 -8 -4 -8 -12 -1 -21 16 -68 12
-68 -6 0 -13 -3 -12 -16 4 -14 18 -15 18 -8 -6z"/>
<path d="M502 743 c3 -30 8 -38 23 -38 16 0 21 8 23 38 3 34 1 37 -23 37 -24
0 -26 -3 -23 -37z m38 6 c0 -5 -7 -9 -15 -9 -15 0 -20 12 -9 23 8 8 24 -1 24
-14z"/>
<path d="M564 765 c-4 -8 -4 -22 0 -30 6 -17 36 -21 36 -4 0 5 -4 8 -9 4 -5
-3 -12 -1 -16 5 -3 5 3 10 14 10 14 0 19 5 15 15 -4 8 -13 15 -20 15 -8 0 -17
-7 -20 -15z"/>
<path d="M714 766 c-9 -24 4 -48 23 -44 12 2 18 12 18 28 0 29 -32 41 -41 16z
m36 -17 c0 -5 -7 -9 -15 -9 -15 0 -20 12 -9 23 8 8 24 -1 24 -14z"/>
<path d="M790 751 c0 -38 17 -41 23 -3 l4 27 2 -27 c1 -35 21 -37 21 -2 0 15
4 23 11 19 6 -4 8 -13 5 -21 -3 -7 0 -16 5 -20 7 -4 9 5 7 22 -3 26 -8 29 -40
32 -36 3 -38 2 -38 -27z"/>
<path d="M905 769 c-4 -6 1 -17 11 -25 18 -14 18 -14 0 -7 -13 4 -17 3 -12 -5
10 -16 36 -15 36 1 0 7 -6 19 -12 26 -10 11 -10 13 0 7 6 -4 12 -2 12 3 0 14
-27 14 -35 0z"/>
<path d="M954 769 c-3 -6 -1 -15 6 -19 10 -6 9 -9 -1 -13 -11 -3 -9 -7 4 -12
29 -12 45 11 21 31 -10 8 -13 13 -6 9 6 -3 12 -1 12 4 0 14 -27 14 -36 0z"/>
<path d="M1032 750 c0 -23 4 -30 19 -30 14 0 19 7 19 30 0 23 -5 30 -18 30
-14 0 -19 -8 -20 -30z"/>
<path d="M1080 750 c0 -17 5 -30 10 -30 6 0 10 12 10 26 0 30 20 22 21 -9 1
-20 2 -20 8 3 6 21 8 22 14 8 3 -10 4 -25 1 -33 -4 -8 -2 -15 3 -15 6 0 17 18
26 40 16 42 13 51 -9 23 -12 -16 -13 -16 -14 -2 0 11 -10 16 -35 17 -32 1 -35
-1 -35 -28z"/>
<path d="M1215 770 c-11 -17 5 -50 25 -50 20 0 32 23 24 45 -7 17 -40 20 -49
5z m35 -15 c0 -8 -4 -15 -10 -15 -5 0 -10 7 -10 15 0 8 5 15 10 15 6 0 10 -7
10 -15z"/>
<path d="M1367 765 c-13 -33 21 -63 39 -33 5 8 2 9 -9 5 -10 -3 -17 -2 -17 3
0 6 7 10 16 10 20 0 13 24 -8 28 -9 2 -18 -4 -21 -13z"/>
<path d="M1421 748 c1 -22 3 -26 6 -13 3 11 10 26 15 33 8 9 6 12 -6 12 -12 0
-16 -9 -15 -32z"/>
<path d="M1510 765 c0 -8 5 -15 10 -15 6 0 10 -5 10 -11 0 -5 -4 -7 -10 -4 -5
3 -10 1 -10 -4 0 -15 27 -14 36 0 4 7 -1 16 -11 21 -14 8 -15 12 -4 19 11 7
10 9 -3 9 -10 0 -18 -7 -18 -15z"/>
<path d="M1557 774 c-8 -9 1 -24 14 -24 6 0 8 4 5 9 -4 5 0 12 6 14 9 4 8 6
-3 6 -9 1 -19 -2 -22 -5z"/>
<path d="M1600 769 c0 -15 -26 -39 -34 -32 -3 4 -6 1 -6 -5 0 -16 23 -15 38 0
9 9 12 9 12 0 0 -7 9 -12 20 -12 16 0 20 6 19 33 -1 23 -3 26 -6 10 -5 -28
-23 -30 -23 -3 0 11 -4 20 -10 20 -5 0 -10 -5 -10 -11z"/>
<path d="M1664 766 c-13 -35 24 -64 42 -34 5 8 2 9 -9 5 -10 -3 -17 -2 -17 3
0 6 7 10 16 10 20 0 13 24 -9 28 -10 2 -20 -4 -23 -12z"/>
<path d="M1908 755 c-3 -14 -1 -28 3 -31 5 -3 9 7 9 21 0 15 4 24 10 20 6 -3
10 -15 10 -26 0 -11 4 -18 9 -15 15 10 0 56 -19 56 -11 0 -20 -10 -22 -25z"/>
<path d="M2047 765 c-13 -33 21 -63 39 -33 5 8 2 9 -9 5 -10 -3 -17 -2 -17 3
0 6 7 10 16 10 20 0 13 24 -8 28 -9 2 -18 -4 -21 -13z"/>
<path d="M2101 747 c1 -21 3 -25 6 -12 8 33 20 38 27 11 7 -27 29 -35 42 -14
5 8 2 9 -9 5 -10 -3 -17 -2 -17 3 0 6 7 10 16 10 33 0 6 25 -29 27 -36 2 -37
1 -36 -30z"/>
<path d="M1862 703 c59 -2 158 -2 220 0 62 1 14 3 -107 3 -121 0 -172 -2 -113
-3z"/>
<path d="M473 465 c0 -27 2 -38 4 -22 5 31 23 37 23 7 0 -16 7 -20 35 -20 31
0 35 3 35 25 0 19 -5 25 -22 25 -17 0 -19 -3 -10 -9 11 -7 11 -9 -1 -14 -9 -3
-18 1 -21 9 -3 8 -12 14 -20 14 -8 0 -17 8 -19 18 -3 9 -5 -5 -4 -33z"/>
<path d="M899 503 c-5 -30 -3 -73 4 -73 4 0 7 18 7 40 0 22 -2 40 -5 40 -3 0
-6 -3 -6 -7z"/>
<path d="M1388 505 c-3 -6 -3 -26 2 -45 7 -29 8 -31 10 -10 1 25 1 25 10 3 9
-23 30 -32 30 -14 0 5 3 16 6 25 3 9 1 16 -4 16 -6 0 -13 -8 -15 -17 -4 -17
-5 -17 -6 0 0 9 -5 17 -10 17 -5 0 -11 8 -13 18 -2 9 -6 13 -10 7z"/>
<path d="M1890 499 c0 -8 -11 -19 -25 -26 -14 -6 -25 -7 -25 -2 0 5 -9 9 -20
9 -15 0 -20 -6 -19 -27 2 -24 2 -25 6 -5 6 28 23 29 23 1 0 -14 5 -19 15 -16
8 4 17 2 20 -2 3 -5 13 -7 23 -5 12 4 17 15 17 39 0 18 -4 37 -8 41 -4 4 -7 1
-7 -7z m0 -44 c0 -8 -4 -15 -10 -15 -5 0 -10 7 -10 15 0 8 5 15 10 15 6 0 10
-7 10 -15z"/>
<path d="M2076 494 c-9 -25 -7 -64 4 -64 6 0 10 8 11 18 0 9 2 27 5 40 4 25
-11 30 -20 6z"/>
<path d="M2270 502 c-8 -3 -18 -10 -22 -16 -4 -5 -23 -10 -43 -9 -23 1 -38 -4
-42 -13 -7 -20 15 -44 34 -37 14 6 14 8 -3 14 -15 6 -15 8 -3 8 9 1 22 -5 28
-13 20 -24 51 -8 52 28 l2 31 4 -30 c6 -35 22 -48 41 -33 9 8 16 8 24 0 16
-16 38 -3 38 24 0 18 -5 24 -22 23 -21 0 -22 -1 -4 -8 19 -7 19 -8 -1 -13 -14
-4 -24 0 -27 8 -3 8 -12 14 -20 14 -8 0 -16 6 -18 13 -2 8 -10 12 -18 9z m-20
-47 c0 -8 -4 -15 -10 -15 -5 0 -10 7 -10 15 0 8 5 15 10 15 6 0 10 -7 10 -15z
m60 0 c0 -8 -4 -15 -10 -15 -5 0 -10 7 -10 15 0 8 5 15 10 15 6 0 10 -7 10
-15z"/>
<path d="M2440 469 c0 -31 3 -40 14 -36 7 3 19 0 25 -6 8 -8 11 -8 11 0 0 7
-5 15 -10 18 -8 5 -7 12 2 23 11 13 10 15 -4 9 -13 -5 -18 -1 -18 13 0 11 -4
20 -10 20 -5 0 -10 -18 -10 -41z"/>
<path d="M220 491 c0 -6 5 -13 10 -16 6 -3 10 -15 10 -26 0 -31 14 -22 26 16
10 33 3 50 -10 23 -5 -10 -7 -10 -12 0 -7 14 -24 16 -24 3z"/>
<path d="M725 468 c11 -50 18 -55 31 -23 11 27 12 28 18 7 10 -32 23 -27 29
11 6 40 0 47 -12 16 -10 -24 -10 -24 -10 -1 -1 30 -17 28 -29 -5 l-10 -28 -1
28 c-1 15 -6 27 -12 27 -7 0 -8 -12 -4 -32z"/>
<path d="M992 468 c2 -17 8 -33 13 -35 9 -3 11 15 6 60 -1 4 -6 7 -12 7 -6 0
-9 -14 -7 -32z"/>
<path d="M1200 470 c-13 -32 -7 -51 11 -33 8 8 19 6 41 -4 23 -12 32 -13 41
-3 9 9 8 15 -6 25 -18 13 -18 13 0 18 15 4 14 5 -4 6 -29 1 -38 -15 -16 -28
17 -10 17 -10 0 -11 -11 0 -22 11 -28 30 -14 38 -23 38 -39 0z"/>
<path d="M277 466 c-3 -8 1 -22 9 -33 13 -17 15 -17 28 0 12 15 15 15 25 3 7
-8 19 -12 27 -9 16 6 19 53 3 53 -6 0 -9 -7 -6 -15 4 -8 2 -17 -3 -20 -6 -4
-10 3 -10 14 0 23 -15 28 -23 9 -4 -10 -6 -10 -6 0 -1 17 -38 15 -44 -2z m33
-11 c0 -8 -4 -15 -10 -15 -5 0 -10 7 -10 15 0 8 5 15 10 15 6 0 10 -7 10 -15z"/>
<path d="M415 470 c-3 -6 1 -13 10 -16 12 -5 13 -9 5 -14 -7 -4 -8 -10 -3 -13
5 -3 15 -1 23 4 13 8 12 11 -3 23 -18 14 -18 14 0 19 15 4 14 5 -4 6 -12 0
-25 -4 -28 -9z"/>
<path d="M581 451 c2 -23 2 -24 6 -3 5 24 23 31 23 8 0 -19 27 -39 41 -30 9 5
7 10 -7 15 -17 7 -17 8 -1 8 9 1 17 7 17 15 0 11 -12 15 -40 14 -37 0 -40 -2
-39 -27z"/>
<path d="M813 464 c-7 -19 20 -49 36 -40 6 4 11 18 11 32 0 17 -5 24 -20 24
-11 0 -23 -7 -27 -16z"/>
<path d="M940 470 c0 -5 8 -14 18 -19 16 -10 16 -10 -2 -11 -15 0 -17 -3 -9
-11 6 -6 16 -8 22 -5 15 10 14 36 -1 36 -9 0 -8 4 2 10 12 8 11 10 -7 10 -13
0 -23 -4 -23 -10z"/>
<path d="M1023 464 c-7 -20 21 -49 38 -38 9 5 8 9 -7 15 -17 7 -17 8 -1 8 9 1
17 8 17 16 0 20 -39 19 -47 -1z"/>
<path d="M1081 448 c1 -22 3 -26 6 -13 8 31 23 42 23 17 0 -12 5 -22 10 -22 6
0 10 11 10 25 0 20 -5 25 -25 25 -22 0 -25 -4 -24 -32z"/>
<path d="M1345 471 c17 -8 18 -10 3 -10 -19 -1 -25 -26 -9 -35 18 -11 42 6 39
28 -2 14 -11 22 -28 23 -23 2 -23 2 -5 -6z"/>
<path d="M1456 464 c-8 -22 -7 -34 3 -34 5 0 11 9 14 20 3 11 13 20 24 20 17
-1 17 -1 1 -11 -26 -14 -22 -29 7 -29 19 0 25 5 26 23 l0 22 10 -23 c5 -13 7
-28 3 -33 -3 -5 -1 -9 4 -9 6 0 15 14 21 31 15 42 14 47 -4 23 -13 -17 -14
-17 -15 -1 0 24 -85 25 -94 1z"/>
<path d="M1590 465 c0 -8 6 -15 13 -15 9 0 8 -3 -2 -9 -7 -5 -9 -11 -4 -14 5
-3 15 -1 23 4 13 8 12 11 -3 23 -18 14 -18 14 0 19 14 4 14 5 -4 6 -14 1 -23
-5 -23 -14z"/>
<path d="M1690 456 c0 -29 16 -42 33 -27 8 6 18 6 27 1 8 -5 18 -6 23 -3 5 3
3 9 -4 14 -11 7 -10 9 4 9 22 0 22 19 1 27 -10 4 -22 0 -29 -10 -7 -9 -16 -12
-24 -7 -11 6 -11 9 0 13 8 3 4 6 -8 6 -18 1 -23 -5 -23 -23z"/>
<path d="M1940 456 c0 -29 12 -39 34 -30 17 7 22 54 6 54 -5 0 -10 -9 -10 -21
0 -12 -4 -17 -11 -14 -6 4 -8 13 -5 21 3 8 1 14 -4 14 -6 0 -10 -11 -10 -24z"/>
<path d="M2000 465 c0 -8 6 -15 13 -15 9 0 8 -3 -2 -9 -10 -6 -10 -10 -1 -16
6 -4 17 -2 23 5 9 9 8 15 -6 25 -18 13 -18 13 0 18 14 4 14 5 -4 6 -14 1 -23
-5 -23 -14z"/>
<path d="M2103 464 c-7 -20 21 -49 38 -38 9 5 8 9 -7 15 -17 7 -17 8 -1 8 9 1
17 8 17 16 0 20 -39 19 -47 -1z"/>
<path d="M2390 456 c0 -23 22 -41 34 -29 12 12 6 22 -9 17 -10 -4 -15 0 -15
11 0 11 5 15 15 11 8 -3 15 -1 15 4 0 6 -9 10 -20 10 -14 0 -20 -7 -20 -24z"/>
<path d="M483 320 c0 -25 2 -35 4 -22 5 27 23 29 23 2 0 -13 7 -20 20 -20 15
0 20 6 19 28 l-1 27 -7 -25 c-7 -25 -7 -25 -13 -2 -3 12 -13 22 -21 22 -9 0
-18 8 -20 18 -3 9 -5 -3 -4 -28z"/>
<path d="M980 330 c0 -23 -4 -28 -16 -23 -13 5 -13 7 -2 14 14 9 5 13 -27 9
-11 -1 -23 -7 -27 -14 -11 -16 -10 -36 2 -36 6 0 10 9 10 20 0 18 3 19 20 8
18 -12 19 -13 2 -20 -11 -4 -4 -6 18 -5 19 0 38 6 42 12 5 6 8 6 8 -2 0 -7 10
-12 23 -12 16 1 18 2 5 6 -19 5 -25 33 -7 33 5 0 7 -4 4 -10 -3 -5 -1 -10 4
-10 6 0 11 7 11 15 0 18 -36 20 -43 3 -3 -7 -6 -1 -6 15 -1 37 -21 35 -21 -3z"/>
<path d="M1530 320 c0 -22 5 -40 10 -40 6 0 10 18 10 40 0 22 -4 40 -10 40 -5
0 -10 -18 -10 -40z"/>
<path d="M277 343 c-7 -10 3 -63 12 -63 8 0 8 56 0 65 -4 3 -9 3 -12 -2z"/>
<path d="M338 339 c-6 -17 2 -59 11 -59 8 0 8 56 0 65 -4 3 -9 1 -11 -6z"/>
<path d="M1062 318 c2 -17 8 -33 15 -35 7 -3 9 3 6 16 -3 12 -1 21 6 21 6 0
11 -9 11 -20 0 -11 3 -20 8 -20 4 0 6 14 6 30 -2 44 -3 46 -15 30 -8 -11 -12
-12 -16 -2 -10 24 -24 11 -21 -20z"/>
<path d="M1232 338 c-27 -27 -2 -74 35 -65 15 4 14 5 -3 6 -28 1 -39 30 -20
49 18 18 46 9 45 -15 -1 -17 -2 -17 -6 0 -6 21 -38 19 -38 -3 0 -9 11 -16 28
-18 17 -2 27 1 27 9 0 9 4 8 13 -3 6 -8 20 -18 30 -21 14 -5 17 -1 17 22 0 32
-16 43 -42 30 -11 -6 -18 -4 -22 6 -7 18 -47 20 -64 3z m116 -29 c-2 -6 -8
-10 -13 -10 -5 0 -11 4 -13 10 -2 6 4 11 13 11 9 0 15 -5 13 -11z"/>
<path d="M225 331 c-3 -5 3 -12 12 -14 17 -4 17 -5 1 -6 -29 -2 -22 -31 7 -31
28 0 28 0 15 34 -10 26 -24 33 -35 17z"/>
<path d="M381 331 c-17 -11 -10 -45 9 -47 8 0 10 1 3 3 -7 2 -9 11 -7 18 5 11
10 10 27 -5 22 -21 57 -27 57 -10 0 5 -7 7 -15 4 -10 -4 -15 0 -15 11 0 11 5
15 15 11 8 -3 15 -1 15 4 0 16 -21 22 -35 10 -11 -9 -19 -9 -28 -2 -7 6 -19 7
-26 3z"/>
<path d="M573 333 c-7 -3 -12 -17 -12 -31 2 -24 2 -24 6 -4 5 27 23 29 23 2 0
-11 5 -20 10 -20 14 0 12 36 -2 47 -7 6 -19 8 -25 6z"/>
<path d="M653 333 c-7 -3 -13 -16 -13 -29 0 -17 5 -24 20 -24 11 0 23 7 27 16
7 18 -16 44 -34 37z m17 -28 c0 -8 -4 -15 -10 -15 -5 0 -10 7 -10 15 0 8 5 15
10 15 6 0 10 -7 10 -15z"/>
<path d="M703 324 c-4 -11 -1 -20 6 -22 11 -4 11 -6 0 -13 -11 -7 -10 -9 3 -9
23 0 33 19 13 26 -12 5 -13 9 -5 14 9 5 9 9 1 14 -6 4 -14 -1 -18 -10z"/>
<path d="M751 307 c1 -24 3 -26 6 -9 5 27 23 29 23 2 0 -11 4 -20 9 -20 17 0
-5 53 -22 56 -13 2 -17 -5 -16 -29z"/>
<path d="M809 324 c-16 -20 -3 -44 23 -43 17 1 18 2 6 6 -10 2 -18 12 -18 21
0 15 2 15 10 2 8 -12 12 -13 19 -2 6 10 10 8 14 -10 6 -22 7 -22 21 -3 18 23
20 35 7 35 -5 0 -12 -8 -14 -17 -4 -15 -5 -16 -6 -2 -1 21 -47 30 -62 13z"/>
<path d="M1142 331 c-20 -12 -10 -45 13 -48 11 -2 14 0 8 3 -7 3 -13 13 -13
22 0 14 2 15 10 2 5 -8 12 -11 16 -7 12 12 -19 37 -34 28z"/>
<path d="M1195 332 c-13 -9 -18 -52 -6 -52 5 0 11 12 14 28 6 31 5 34 -8 24z"/>
<path d="M1381 332 c-6 -2 -11 -16 -10 -30 l0 -27 11 25 c11 25 11 25 15 3 3
-13 9 -23 15 -23 5 0 8 7 5 15 -4 8 -2 17 3 20 6 4 10 -3 10 -14 0 -12 5 -21
11 -21 6 0 9 12 7 28 -2 22 -8 27 -29 27 -15 1 -31 -1 -38 -3z"/>
<path d="M1466 331 c-4 -5 2 -12 11 -14 17 -4 17 -5 1 -6 -25 -1 -22 -31 3
-31 16 0 20 5 17 27 -3 27 -22 41 -32 24z"/>
<path d="M1592 331 c-19 -12 -11 -45 12 -49 10 -2 22 2 27 10 6 10 9 10 9 1 0
-7 9 -13 19 -13 11 0 22 6 24 13 4 10 6 10 6 0 2 -22 21 -14 21 8 0 11 4 18
10 14 5 -3 7 -12 3 -20 -3 -8 0 -15 6 -15 6 0 11 9 11 20 0 27 17 25 23 -2 4
-16 5 -13 4 7 -2 26 -6 30 -31 30 -16 1 -34 -4 -40 -11 -8 -8 -14 -7 -23 5
-11 14 -15 13 -37 -14 -20 -25 -27 -28 -38 -17 -10 10 -9 14 10 18 12 4 19 10
16 15 -7 11 -15 11 -32 0z m78 -26 c0 -8 -4 -15 -10 -15 -5 0 -10 7 -10 15 0
8 5 15 10 15 6 0 10 -7 10 -15z"/>
<path d="M620 300 l-5 -35 -147 -3 c-88 -1 -148 -7 -148 -12 0 -7 261 -10 730
-10 458 1 730 4 730 10 0 10 -124 12 -792 10 l-357 -1 -3 38 -4 38 -4 -35z"/>
<path d="M1929 20 c-20 -18 -21 -20 -4 -14 26 10 65 10 90 -1 18 -7 18 -6 5 8
-26 28 -64 31 -91 7z"/>
<path d="M1170 15 c0 -12 13 -15 66 -15 48 0 65 3 62 13 -3 7 -28 13 -66 15
-51 2 -62 0 -62 -13z"/>
</g>
</svg>
