<?xml version="1.0" standalone="no"?>
<!DOCTYPE svg PUBLIC "-//W3C//DTD SVG 20010904//EN"
 "http://www.w3.org/TR/2001/REC-SVG-20010904/DTD/svg10.dtd">
<svg version="1.0" xmlns="http://www.w3.org/2000/svg"
 width="344.000000pt" height="494.000000pt" viewBox="0 0 344.000000 494.000000"
 preserveAspectRatio="xMidYMid meet">

<g transform="translate(0.000000,494.000000) scale(0.100000,-0.100000)"
fill="#000000" stroke="none">
<path d="M428 4913 c6 -2 18 -2 25 0 6 3 1 5 -13 5 -14 0 -19 -2 -12 -5z"/>
<path d="M1590 4890 c-1005 -5 -1130 -7 -1171 -22 -80 -28 -131 -58 -187 -111
-62 -60 -96 -112 -126 -200 l-21 -62 -3 -2247 -2 -2248 55 0 55 0 0 2223 c0
2470 -5 2290 68 2397 43 62 110 117 179 144 41 17 82 20 274 24 258 4 269 2
269 -56 0 -47 36 -119 73 -146 28 -21 41 -21 650 -24 342 -2 637 0 655 3 70
13 132 96 132 177 0 17 8 31 19 38 26 13 381 13 452 0 118 -22 218 -99 271
-208 l33 -67 3 -2252 2 -2253 55 0 55 0 1 2098 c2 2383 2 2324 -16 2413 -38
188 -194 339 -382 367 -105 17 -189 17 -1393 12z"/>
<path d="M325 4880 c-3 -6 1 -7 9 -4 18 7 21 14 7 14 -6 0 -13 -4 -16 -10z"/>
<path d="M239 4827 c-65 -49 -95 -82 -137 -154 -65 -110 -66 -113 -70 -605 -3
-381 -5 -448 -18 -448 -11 0 -14 -22 -14 -120 0 -100 3 -120 15 -120 12 0 15
-18 15 -104 0 -59 -4 -108 -10 -111 -14 -8 -14 -472 0 -480 13 -8 13 -125 0
-125 -14 0 -14 -472 0 -486 6 -6 11 -375 13 -1044 l2 -1035 3 1063 c1 707 -1
1061 -8 1057 -7 -4 -10 67 -10 205 0 138 3 209 10 205 6 -4 10 30 10 95 0 65
-4 99 -10 95 -7 -4 -10 69 -10 212 0 144 4 213 10 203 6 -10 10 36 10 140 0
104 -4 150 -10 140 -7 -10 -10 19 -10 90 0 68 4 100 10 90 5 -9 10 160 12 445
4 427 6 465 24 526 36 118 104 211 199 275 27 19 45 34 40 34 -6 0 -35 -19
-66 -43z"/>
<path d="M414 4646 c-9 -24 4 -48 23 -44 12 2 18 12 18 28 0 29 -32 41 -41 16z
m31 -26 c-5 -8 -11 -8 -17 -2 -6 6 -7 16 -3 22 5 8 11 8 17 2 6 -6 7 -16 3
-22z"/>
<path d="M480 4639 c-13 -23 -12 -26 10 -31 17 -3 20 2 20 32 0 26 -16 26 -30
-1z m20 -9 c0 -5 -5 -10 -11 -10 -5 0 -7 5 -4 10 3 6 8 10 11 10 2 0 4 -4 4
-10z"/>
<path d="M565 4650 c-3 -6 1 -7 9 -4 21 8 20 -5 -1 -28 -15 -17 -15 -18 13
-17 24 0 26 2 10 8 -14 5 -16 10 -8 15 7 4 12 14 12 22 0 16 -26 19 -35 4z"/>
<path d="M626 4633 c10 -40 14 -41 14 -5 0 18 -5 32 -10 32 -6 0 -8 -11 -4
-27z"/>
<path d="M2800 4635 c0 -8 7 -15 15 -15 8 0 15 -5 15 -11 0 -6 -7 -9 -15 -5
-8 3 -15 1 -15 -4 0 -14 27 -12 36 2 4 6 -1 17 -10 24 -16 12 -16 13 1 17 14
4 14 5 -4 6 -14 1 -23 -5 -23 -14z"/>
<path d="M2854 4635 c-9 -23 3 -45 25 -45 10 0 21 7 25 15 3 9 0 15 -10 15 -9
0 -12 -5 -8 -11 4 -7 1 -10 -7 -7 -20 7 -17 33 4 32 9 -1 17 2 17 7 0 15 -40
10 -46 -6z"/>
<path d="M2952 4618 c3 -21 9 -23 71 -26 66 -3 67 -3 67 23 0 24 -2 25 -71 25
-67 0 -70 -1 -67 -22z"/>
<path d="M2710 4611 c0 -11 5 -23 10 -26 6 -4 10 5 10 19 0 14 -4 26 -10 26
-5 0 -10 -9 -10 -19z"/>
<path d="M2692 4600 c0 -14 2 -19 5 -12 2 6 2 18 0 25 -3 6 -5 1 -5 -13z"/>
<path d="M2660 4600 c0 -5 5 -10 10 -10 6 0 10 5 10 10 0 6 -4 10 -10 10 -5 0
-10 -4 -10 -10z"/>
<path d="M3085 4410 c3 -5 -1 -10 -9 -10 -48 0 -63 -79 -20 -107 24 -15 29
-15 53 -2 15 8 27 25 29 39 l3 25 -13 -25 c-15 -28 -52 -38 -74 -20 -20 18
-17 57 5 70 26 13 34 13 25 -2 -4 -7 1 -6 11 4 17 16 14 38 -6 38 -6 0 -7 -4
-4 -10z"/>
<path d="M1292 4382 c-7 -5 -13 -26 -15 -48 -2 -36 0 -39 26 -42 33 -4 41 13
30 59 -10 35 -20 43 -41 31z m28 -23 c0 -5 -7 -9 -15 -9 -15 0 -20 12 -9 23 8
8 24 -1 24 -14z"/>
<path d="M411 4344 c-7 -19 -10 -38 -7 -41 3 -4 6 -1 6 5 0 7 9 12 20 12 11 0
20 -5 20 -12 0 -6 3 -9 6 -6 5 6 -21 78 -28 78 -2 0 -10 -16 -17 -36z m29 -4
c0 -5 -4 -10 -10 -10 -5 0 -10 5 -10 10 0 6 5 10 10 10 6 0 10 -4 10 -10z"/>
<path d="M1563 4340 c0 -25 2 -35 4 -22 2 12 2 32 0 45 -2 12 -4 2 -4 -23z"/>
<path d="M1408 4365 c-6 -7 3 -65 11 -65 7 0 7 58 -1 65 -2 3 -7 3 -10 0z"/>
<path d="M351 4336 c-7 -16 -10 -31 -7 -33 2 -3 7 6 12 19 l7 23 9 -24 c4 -13
11 -21 14 -18 3 3 -1 18 -9 34 l-15 28 -11 -29z"/>
<path d="M1444 4345 c-9 -23 3 -45 23 -44 17 1 17 2 1 6 -19 5 -25 43 -8 43 6
0 10 -4 10 -10 0 -5 5 -10 11 -10 8 0 8 5 -1 15 -7 8 -17 15 -22 15 -5 0 -11
-7 -14 -15z"/>
<path d="M1504 4345 c-13 -32 23 -63 40 -36 4 5 -3 7 -14 4 -15 -4 -20 0 -20
17 0 17 4 20 21 15 15 -5 19 -4 15 4 -10 16 -36 14 -42 -4z"/>
<path d="M1588 4348 c7 -7 12 -21 12 -32 0 -10 3 -17 6 -13 10 10 -5 57 -18
57 -9 0 -9 -3 0 -12z"/>
<path d="M1622 4330 c0 -19 2 -27 5 -17 2 9 2 25 0 35 -3 9 -5 1 -5 -18z"/>
<path d="M1654 4346 c-3 -8 -4 -23 -1 -33 3 -12 5 -8 6 10 0 15 5 27 10 27 5
0 12 -12 14 -27 5 -28 5 -28 3 1 -1 32 -22 47 -32 22z"/>
<path d="M1734 4346 c-9 -24 4 -48 23 -44 12 2 18 12 18 28 0 29 -32 41 -41
16z m34 -19 c2 -10 -3 -17 -12 -17 -10 0 -16 9 -16 21 0 24 23 21 28 -4z"/>
<path d="M1794 4349 c-4 -7 1 -16 11 -21 14 -8 15 -12 4 -19 -11 -7 -11 -9 2
-9 28 0 31 14 7 33 -16 13 -18 17 -5 13 9 -3 17 -1 17 4 0 14 -27 12 -36 -1z"/>
<path d="M1881 4346 c-15 -18 -3 -46 20 -46 10 0 19 4 19 9 0 5 -8 8 -17 7
-10 0 -18 6 -18 14 0 8 8 14 17 14 10 -1 15 2 12 7 -8 13 -20 11 -33 -5z"/>
<path d="M1941 4346 c-15 -18 -3 -46 19 -46 22 0 30 19 18 43 -11 21 -22 22
-37 3z m32 -11 c8 -18 -11 -31 -25 -17 -11 11 -3 32 12 32 4 0 10 -7 13 -15z"/>
<path d="M2001 4327 c2 -30 2 -31 6 -4 2 15 9 27 14 27 5 0 9 -12 10 -27 1
-26 1 -27 7 -5 4 13 12 23 17 23 6 0 13 -10 17 -23 6 -20 7 -19 5 7 -2 26 -6
29 -39 32 -37 2 -38 1 -37 -30z"/>
<path d="M2121 4326 c1 -27 2 -28 7 -8 4 13 12 23 17 23 6 0 13 -10 17 -23 6
-19 7 -18 5 7 -2 23 -7 30 -24 31 -19 1 -23 -4 -22 -30z"/>
<path d="M2184 4347 c-10 -26 3 -62 22 -62 15 0 20 8 22 35 2 30 0 36 -18 37
-12 1 -23 -4 -26 -10z m33 -30 c1 -20 -3 -27 -15 -27 -13 0 -14 2 -3 9 9 6 10
11 2 15 -15 10 -14 39 1 34 7 -3 14 -17 15 -31z"/>
<path d="M1711 4333 c0 -12 -4 -30 -7 -40 -5 -14 -4 -15 5 -7 7 6 11 24 8 40
-3 21 -4 23 -6 7z"/>
<path d="M2970 4030 c0 -6 45 -10 115 -10 70 0 115 4 115 10 0 6 -45 10 -115
10 -70 0 -115 -4 -115 -10z"/>
<path d="M580 3955 c0 -59 3 -75 14 -75 10 0 16 14 18 43 2 29 8 42 18 42 10
0 16 -13 18 -42 3 -35 7 -43 23 -43 15 0 19 7 19 33 0 70 -22 97 -61 77 -16
-9 -19 -7 -19 15 0 16 -6 25 -15 25 -12 0 -15 -15 -15 -75z"/>
<path d="M710 3955 c0 -60 3 -75 15 -75 12 0 15 15 15 75 0 60 -3 75 -15 75
-12 0 -15 -15 -15 -75z"/>
<path d="M770 3955 c0 -60 3 -75 15 -75 11 0 15 12 15 45 0 25 3 45 8 45 4 0
20 -20 35 -45 43 -68 57 -60 57 30 0 59 -3 75 -14 75 -11 0 -16 -14 -18 -47
l-3 -48 -30 47 c-17 28 -38 48 -47 48 -16 0 -18 -10 -18 -75z"/>
<path d="M990 3970 c0 -62 -6 -69 -40 -48 -24 15 -38 3 -24 -20 7 -11 24 -17
45 -17 41 0 59 29 59 98 0 40 -3 47 -20 47 -18 0 -20 -7 -20 -60z"/>
<path d="M261 3999 c-8 -14 -9 -24 -3 -28 6 -3 12 -24 14 -46 2 -33 7 -41 26
-43 22 -3 30 12 12 23 -5 3 -10 19 -10 36 0 16 5 29 10 29 15 0 12 19 -4 36
-20 19 -29 18 -45 -7z"/>
<path d="M364 3990 c-29 -12 -39 -56 -19 -86 18 -28 65 -33 85 -9 18 21 4 32
-21 17 -20 -13 -39 -9 -39 9 0 5 16 9 35 9 28 0 35 4 35 19 0 11 -10 27 -22
35 -25 18 -25 18 -54 6z m41 -30 c3 -5 -3 -10 -14 -10 -12 0 -21 5 -21 10 0 6
6 10 14 10 8 0 18 -4 21 -10z"/>
<path d="M482 3984 c-25 -17 -31 -71 -10 -92 24 -24 88 -9 88 20 0 5 -16 6
-35 2 -33 -6 -35 -5 -35 20 0 27 30 50 38 28 5 -17 32 -15 32 3 0 9 -12 20
-26 25 -31 12 -25 13 -52 -6z"/>
<path d="M1072 3984 c-25 -17 -31 -71 -10 -92 20 -20 65 -14 82 10 19 27 20
49 4 70 -20 25 -51 30 -76 12z m46 -47 c3 -22 -1 -27 -17 -27 -15 0 -21 6 -21
23 0 46 33 49 38 4z"/>
<path d="M1198 3989 c-29 -16 -22 -49 12 -60 17 -6 30 -15 30 -20 0 -12 -27
-11 -35 1 -3 6 -13 10 -21 10 -12 0 -12 -4 -4 -20 19 -36 90 -23 90 16 0 19
-7 26 -30 31 -16 3 -30 10 -30 15 0 5 13 7 30 3 34 -8 41 8 11 25 -24 12 -31
12 -53 -1z"/>
<path d="M3028 3953 c34 -2 88 -2 120 0 31 2 3 3 -63 3 -66 0 -92 -1 -57 -3z"/>
<path d="M3090 3880 c0 -5 25 -10 55 -10 30 0 55 5 55 10 0 6 -25 10 -55 10
-30 0 -55 -4 -55 -10z"/>
<path d="M280 3440 c0 -22 5 -40 10 -40 6 0 10 18 10 40 0 22 -4 40 -10 40 -5
0 -10 -18 -10 -40z"/>
<path d="M592 3464 c-9 -10 -9 -14 -1 -14 8 0 8 -4 1 -13 -7 -8 -7 -18 -2 -27
7 -10 10 -11 10 -2 0 6 5 12 11 12 5 0 7 -6 3 -12 -5 -9 -3 -9 9 1 9 7 14 18
11 23 -7 11 13 28 33 28 6 0 14 -15 16 -32 3 -29 4 -27 5 10 2 43 -11 55 -36
30 -9 -9 -12 -9 -12 3 0 12 -2 12 -10 -1 -7 -11 -12 -12 -17 -4 -6 9 -12 8
-21 -2z"/>
<path d="M316 3453 c-4 -4 3 -16 16 -26 l23 -19 -23 5 c-12 3 -20 1 -16 -4 7
-13 31 -11 40 2 4 7 -1 16 -11 21 -14 8 -15 12 -4 19 11 7 11 9 -2 9 -9 0 -19
-3 -23 -7z"/>
<path d="M370 3449 c0 -7 8 -18 18 -26 16 -14 16 -14 0 -9 -10 3 -18 1 -18 -4
0 -6 9 -10 20 -10 24 0 27 28 3 37 -15 6 -15 7 3 14 17 7 17 8 -3 8 -13 1 -23
-4 -23 -10z"/>
<path d="M431 3433 c-1 -29 2 -33 24 -33 22 0 25 4 24 33 -1 29 -2 29 -8 8 -9
-35 -29 -37 -34 -4 -4 27 -4 27 -6 -4z"/>
<path d="M494 3445 c-9 -23 3 -45 26 -45 11 0 20 4 20 10 0 5 -7 7 -15 4 -8
-4 -15 -1 -15 5 0 6 9 11 20 11 13 0 18 5 14 15 -4 8 -15 15 -25 15 -11 0 -22
-7 -25 -15z"/>
<path d="M250 3290 c0 -7 500 -10 1480 -10 980 0 1480 3 1480 10 0 7 -500 10
-1480 10 -980 0 -1480 -3 -1480 -10z"/>
<path d="M580 3112 c0 -13 -7 -18 -22 -18 -20 1 -23 -4 -23 -34 0 -32 2 -35
33 -37 l32 -1 0 54 c0 30 -4 54 -10 54 -5 0 -10 -8 -10 -18z m0 -52 c0 -11 -7
-20 -15 -20 -8 0 -15 9 -15 20 0 11 7 20 15 20 8 0 15 -9 15 -20z"/>
<path d="M738 3113 c-10 -12 -14 -31 -11 -55 6 -45 32 -53 34 -10 1 15 3 39 5
55 3 31 -6 35 -28 10z"/>
<path d="M1940 3075 c0 -56 16 -77 22 -28 4 39 28 42 28 4 0 -17 5 -31 11 -31
6 0 9 16 7 38 -3 31 -7 37 -25 36 -16 0 -23 5 -23 18 0 10 -4 18 -10 18 -5 0
-10 -25 -10 -55z"/>
<path d="M2512 3113 c-4 -10 -16 -18 -27 -18 -16 0 -20 -7 -20 -35 0 -32 3
-35 33 -38 l32 -3 0 55 c0 58 -5 69 -18 39z m-2 -53 c0 -11 -7 -20 -15 -20
-15 0 -21 21 -8 33 12 13 23 7 23 -13z"/>
<path d="M258 3096 c-17 -39 3 -76 41 -76 21 0 34 7 42 21 14 26 -2 45 -28 34
-12 -5 -14 -9 -5 -12 19 -7 14 -23 -8 -23 -16 0 -20 7 -20 31 0 30 2 31 31 25
22 -4 29 -2 27 7 -3 6 -19 13 -36 15 -26 3 -34 -1 -44 -22z"/>
<path d="M787 3107 c-10 -27 8 -82 28 -85 16 -3 18 -1 8 9 -17 17 -17 46 -1
51 9 3 8 9 -4 21 -20 20 -24 21 -31 4z"/>
<path d="M1390 3070 c0 -27 5 -50 10 -50 6 0 10 23 10 50 0 28 -4 50 -10 50
-5 0 -10 -22 -10 -50z"/>
<path d="M1432 3107 c-8 -9 -8 -24 -1 -50 14 -50 35 -48 34 3 -1 47 -16 68
-33 47z"/>
<path d="M1490 3100 c0 -11 5 -20 10 -20 6 0 10 9 10 20 0 11 -4 20 -10 20 -5
0 -10 -9 -10 -20z"/>
<path d="M1887 3107 c-9 -25 8 -82 26 -85 9 -2 17 1 17 7 0 6 -4 11 -10 11
-14 0 -12 38 2 42 9 3 8 9 -4 21 -20 20 -24 21 -31 4z"/>
<path d="M2207 3114 c-16 -16 -6 -44 18 -50 38 -9 31 -27 -7 -18 -29 6 -31 5
-19 -10 17 -20 55 -21 71 -1 15 18 6 33 -27 46 -13 5 -21 13 -18 19 4 7 13 6
27 -1 16 -9 19 -8 16 3 -5 14 -49 23 -61 12z"/>
<path d="M2784 3075 c-9 -25 -13 -49 -9 -53 4 -4 10 -1 12 6 6 15 35 16 51 0
20 -20 23 -3 6 45 -9 26 -22 47 -29 47 -7 0 -21 -20 -31 -45z m33 -7 c-3 -8
-6 -5 -6 6 -1 11 2 17 5 13 3 -3 4 -12 1 -19z"/>
<path d="M364 3086 c-3 -8 -4 -25 -2 -38 2 -18 9 -23 33 -23 24 0 31 5 33 23
2 13 -2 30 -8 38 -16 18 -49 18 -56 0z m46 -26 c0 -11 -7 -20 -15 -20 -8 0
-15 9 -15 20 0 11 7 20 15 20 8 0 15 -9 15 -20z"/>
<path d="M452 3088 c-25 -25 -6 -68 30 -68 9 0 22 9 28 20 22 40 -26 80 -58
48z m38 -28 c0 -11 -4 -20 -9 -20 -14 0 -23 18 -16 30 10 17 25 11 25 -10z"/>
<path d="M655 3091 c-3 -7 3 -11 17 -12 l23 0 -22 -11 c-35 -17 -30 -48 8 -48
29 0 30 2 27 38 -2 29 -8 38 -25 40 -11 2 -24 -2 -28 -7z"/>
<path d="M840 3080 c-14 -26 3 -60 30 -60 27 0 35 20 8 21 -22 1 -19 2 20 15
10 3 10 9 2 24 -14 26 -46 26 -60 0z"/>
<path d="M920 3059 c0 -22 5 -39 10 -39 6 0 10 11 10 25 0 14 7 28 15 31 23 9
18 22 -10 22 -22 0 -25 -5 -25 -39z"/>
<path d="M980 3059 c0 -21 5 -39 10 -39 6 0 10 14 10 31 0 38 24 35 28 -4 4
-36 22 -34 22 2 0 32 -14 47 -47 49 -20 1 -23 -4 -23 -39z"/>
<path d="M1071 3086 c-7 -8 -11 -25 -9 -38 2 -18 9 -23 33 -23 28 0 30 3 30
35 0 28 -4 36 -21 38 -11 2 -26 -4 -33 -12z m39 -26 c0 -11 -7 -20 -15 -20 -8
0 -15 9 -15 20 0 11 7 20 15 20 8 0 15 -9 15 -20z"/>
<path d="M1150 3081 c-25 -47 36 -83 64 -38 8 12 8 22 0 35 -16 25 -51 27 -64
3z m45 -21 c0 -7 -6 -15 -12 -17 -8 -3 -13 4 -13 17 0 13 5 20 13 18 6 -3 12
-11 12 -18z"/>
<path d="M1230 3059 c0 -44 17 -54 22 -12 4 39 28 42 28 4 0 -17 5 -31 11 -31
6 0 9 16 7 38 -3 34 -6 37 -35 39 -32 1 -33 0 -33 -38z"/>
<path d="M1534 3085 c-8 -19 3 -35 24 -36 10 -1 7 -4 -8 -9 -22 -6 -23 -8 -7
-15 41 -18 65 23 25 43 l-23 11 23 0 c13 1 20 5 17 11 -9 15 -45 12 -51 -5z"/>
<path d="M1645 3091 c-4 -7 3 -11 17 -11 l23 0 -25 -13 c-36 -18 -32 -41 8
-45 33 -3 33 -3 30 35 -2 30 -7 39 -25 41 -11 2 -24 -2 -28 -7z"/>
<path d="M1720 3059 c0 -21 5 -39 10 -39 6 0 10 14 10 31 0 38 24 35 28 -4 4
-36 22 -34 22 2 0 32 -14 47 -47 49 -20 1 -23 -4 -23 -39z"/>
<path d="M1811 3086 c-7 -8 -11 -25 -9 -38 2 -18 9 -23 33 -23 28 0 30 3 30
35 0 28 -4 36 -21 38 -11 2 -26 -4 -33 -12z m39 -26 c0 -11 -7 -20 -15 -20 -8
0 -15 9 -15 20 0 11 7 20 15 20 8 0 15 -9 15 -20z"/>
<path d="M2030 3080 c-14 -26 3 -60 30 -60 27 0 35 20 8 21 -22 1 -19 2 20 15
10 3 10 9 2 24 -14 26 -46 26 -60 0z"/>
<path d="M2110 3059 c0 -22 5 -39 10 -39 6 0 10 11 10 25 0 14 7 28 15 31 23
9 18 22 -10 22 -22 0 -25 -5 -25 -39z"/>
<path d="M2292 3063 c3 -35 6 -38 36 -40 31 -1 32 0 32 38 0 21 -4 39 -10 39
-5 0 -10 -13 -10 -30 0 -20 -5 -30 -15 -30 -10 0 -15 10 -15 30 0 17 -5 30
-11 30 -6 0 -9 -16 -7 -37z"/>
<path d="M2380 3059 c0 -21 5 -39 10 -39 6 0 10 14 10 31 0 38 24 35 28 -4 4
-36 22 -34 22 2 0 32 -14 47 -47 49 -20 1 -23 -4 -23 -39z"/>
<path d="M2555 3091 c-3 -7 3 -11 17 -12 l23 0 -22 -11 c-35 -17 -30 -48 8
-48 29 0 30 2 27 38 -2 29 -8 38 -25 40 -11 2 -24 -2 -28 -7z"/>
<path d="M2636 3058 c11 -33 12 -43 2 -49 -17 -11 -5 -21 15 -13 15 5 52 93
43 102 -10 9 -26 -10 -27 -31 -1 -20 -2 -19 -12 6 -6 15 -17 27 -23 27 -10 0
-10 -9 2 -42z"/>
<path d="M2872 3063 c3 -35 6 -38 36 -40 31 -1 32 0 32 38 0 21 -4 39 -10 39
-5 0 -10 -13 -10 -30 0 -20 -5 -30 -15 -30 -10 0 -15 10 -15 30 0 17 -5 30
-11 30 -6 0 -9 -16 -7 -37z"/>
<path d="M2961 3087 c-27 -27 0 -74 34 -60 13 4 16 3 11 -6 -5 -7 -17 -11 -27
-8 -23 6 -26 -8 -3 -17 21 -8 20 -8 38 10 9 8 16 32 16 53 0 35 -2 38 -29 39
-15 0 -33 -4 -40 -11z m39 -27 c0 -11 -4 -20 -9 -20 -14 0 -23 18 -16 30 10
17 25 11 25 -10z"/>
<path d="M1320 3030 c0 -5 5 -10 10 -10 6 0 10 5 10 10 0 6 -4 10 -10 10 -5 0
-10 -4 -10 -10z"/>
<path d="M2700 3013 c0 -22 2 -25 10 -13 13 20 13 40 0 40 -5 0 -10 -12 -10
-27z"/>
<path d="M3045 3030 c3 -5 10 -10 16 -10 5 0 9 5 9 10 0 6 -7 10 -16 10 -8 0
-12 -4 -9 -10z"/>
<path d="M3421 2960 c0 -33 1 -34 10 -11 6 16 6 28 -1 35 -7 7 -10 -1 -9 -24z"/>
<path d="M263 2933 c-7 -2 -13 -9 -13 -15 0 -6 7 -8 15 -4 12 4 15 -3 15 -34
0 -22 5 -40 10 -40 6 0 10 23 10 50 0 49 -6 56 -37 43z"/>
<path d="M334 2925 c-4 -9 -4 -19 0 -22 3 -3 1 -12 -5 -20 -17 -19 8 -45 40
-41 24 3 26 7 26 48 0 42 -2 45 -28 48 -18 2 -29 -2 -33 -13z m38 -10 c0 -5
-5 -11 -11 -13 -6 -2 -11 4 -11 13 0 9 5 15 11 13 6 -2 11 -8 11 -13z m8 -45
c0 -5 -7 -10 -15 -10 -8 0 -15 5 -15 10 0 6 7 10 15 10 8 0 15 -4 15 -10z"/>
<path d="M495 2929 c-11 -16 3 -23 19 -10 27 23 29 -10 2 -38 -34 -36 -33 -41
9 -41 19 0 35 5 35 10 0 6 -7 10 -15 10 -14 0 -13 3 1 25 9 14 14 32 10 40 -6
17 -51 20 -61 4z"/>
<path d="M587 2933 c-9 -8 -9 -56 -1 -77 10 -27 53 -20 65 11 14 37 -3 73 -34
73 -13 0 -27 -3 -30 -7z m43 -44 c0 -19 -5 -29 -15 -29 -15 0 -22 50 -9 63 12
12 24 -4 24 -34z"/>
<path d="M675 2929 c-11 -16 3 -23 19 -10 27 23 29 -10 2 -38 -34 -36 -33 -41
9 -41 19 0 35 5 35 10 0 6 -7 10 -15 10 -14 0 -13 3 1 25 9 14 14 32 10 40 -6
17 -51 20 -61 4z"/>
<path d="M771 2906 c-27 -42 -26 -46 3 -46 13 0 26 -6 29 -12 3 -10 8 -9 20 2
10 10 13 27 10 53 -7 48 -34 50 -62 3z m29 -11 c0 -8 -4 -15 -10 -15 -5 0 -7
7 -4 15 4 8 8 15 10 15 2 0 4 -7 4 -15z"/>
<path d="M416 2844 c-9 -22 3 -32 14 -14 12 19 12 30 1 30 -5 0 -12 -7 -15
-16z"/>
<path d="M850 2850 c0 -5 5 -10 10 -10 6 0 10 5 10 10 0 6 -4 10 -10 10 -5 0
-10 -4 -10 -10z"/>
<path d="M332 2633 c-5 -10 -5 -31 -1 -48 l7 -30 1 28 c1 33 28 37 33 5 2 -12
10 -24 18 -26 13 -5 13 -3 1 11 -7 9 -11 23 -8 30 3 8 1 20 -4 28 -6 10 -9 10
-9 2 0 -7 -7 -13 -15 -13 -9 0 -12 6 -9 15 8 21 -3 19 -14 -2z"/>
<path d="M690 2635 c0 -8 -9 -15 -19 -15 -10 0 -21 -7 -25 -15 -9 -25 4 -45
30 -45 22 0 24 4 24 45 0 25 -2 45 -5 45 -3 0 -5 -7 -5 -15z m-4 -36 c3 -6 1
-16 -5 -22 -9 -9 -14 -8 -21 3 -9 15 -4 30 10 30 5 0 12 -5 16 -11z"/>
<path d="M933 2605 c0 -27 2 -38 4 -22 2 15 10 27 18 27 8 0 16 -12 18 -27 l4
-28 2 28 c1 21 -4 30 -18 34 -11 3 -22 12 -24 22 -3 9 -5 -6 -4 -34z"/>
<path d="M1223 2605 c0 -27 2 -38 4 -22 2 15 2 37 0 50 -2 12 -4 0 -4 -28z"/>
<path d="M2130 2635 c0 -8 -9 -15 -21 -15 -30 0 -23 -54 9 -58 20 -3 22 1 22
42 0 25 -2 46 -5 46 -3 0 -5 -7 -5 -15z m0 -45 c0 -11 -7 -20 -15 -20 -8 0
-15 9 -15 20 0 11 7 20 15 20 8 0 15 -9 15 -20z"/>
<path d="M2502 2633 c-5 -10 -5 -31 -1 -48 6 -28 7 -28 9 -5 1 14 3 35 6 48 5
26 -2 29 -14 5z"/>
<path d="M269 2613 c-21 -60 -21 -59 -8 -45 16 15 49 16 49 0 0 -6 3 -9 6 -6
6 7 -22 78 -31 78 -3 0 -10 -12 -16 -27z m18 -15 c-3 -8 -6 -5 -6 6 -1 11 2
17 5 13 3 -3 4 -12 1 -19z"/>
<path d="M888 2628 c-7 -21 6 -61 22 -66 13 -5 13 -3 1 11 -7 9 -11 23 -8 30
3 8 2 19 -3 26 -6 10 -8 10 -12 -1z"/>
<path d="M1193 2600 c0 -25 2 -35 4 -22 2 12 2 32 0 45 -2 12 -4 2 -4 -23z"/>
<path d="M1280 2602 c0 -39 2 -43 23 -40 28 4 36 45 10 55 -10 4 -21 11 -25
17 -4 6 -8 -8 -8 -32z m40 -12 c0 -11 -7 -20 -15 -20 -8 0 -15 9 -15 20 0 11
7 20 15 20 8 0 15 -9 15 -20z"/>
<path d="M1444 2628 c-4 -6 -3 -8 4 -4 7 4 12 -7 15 -31 l4 -38 1 43 c2 40 -9
55 -24 30z"/>
<path d="M1494 2625 c-8 -20 4 -35 27 -35 12 0 17 -4 13 -11 -3 -6 -15 -9 -25
-6 -11 3 -17 1 -13 -4 18 -29 59 8 50 46 -7 28 -43 35 -52 10z m36 -10 c0 -8
-7 -15 -15 -15 -8 0 -15 7 -15 15 0 8 7 15 15 15 8 0 15 -7 15 -15z"/>
<path d="M1890 2625 c0 -8 9 -19 20 -25 27 -14 26 -34 -1 -27 -15 4 -19 3 -12
-4 15 -15 48 -7 48 11 0 8 -10 19 -22 25 -28 12 -30 29 -3 22 11 -3 20 -1 20
4 0 5 -11 9 -25 9 -15 0 -25 -6 -25 -15z"/>
<path d="M2360 2602 c0 -41 1 -43 28 -40 21 2 27 8 27 28 0 17 -6 26 -20 29
-11 2 -23 8 -27 15 -4 6 -8 -8 -8 -32z m48 -9 c-5 -25 -28 -28 -28 -4 0 12 6
21 16 21 9 0 14 -7 12 -17z"/>
<path d="M2738 2629 c-6 -17 3 -69 11 -69 7 0 6 69 -2 76 -3 3 -7 0 -9 -7z"/>
<path d="M2772 2600 c0 -33 2 -39 7 -21 9 35 29 37 34 4 4 -27 4 -27 6 5 1 25
-3 32 -18 32 -11 0 -22 6 -24 13 -3 6 -5 -8 -5 -33z"/>
<path d="M3100 2631 c0 -5 -9 -11 -21 -14 -29 -8 -22 -51 9 -55 20 -3 22 1 22
37 0 23 -2 41 -5 41 -3 0 -5 -4 -5 -9z m0 -41 c0 -11 -7 -20 -15 -20 -8 0 -15
9 -15 20 0 11 7 20 15 20 8 0 15 -9 15 -20z"/>
<path d="M543 2616 c4 -10 7 -26 7 -37 0 -10 3 -19 8 -19 13 0 6 64 -8 68 -9
3 -11 -1 -7 -12z"/>
<path d="M406 2605 c-9 -24 4 -45 28 -44 16 1 17 2 4 6 -24 6 -23 23 2 23 13
0 18 5 14 15 -4 8 -14 15 -24 15 -10 0 -20 -7 -24 -15z"/>
<path d="M471 2588 c2 -28 2 -29 6 -8 3 14 10 28 17 32 7 5 5 8 -6 8 -14 0
-18 -8 -17 -32z"/>
<path d="M584 2605 c-9 -23 4 -47 23 -43 11 2 19 14 21 31 3 22 -1 27 -18 27
-11 0 -23 -7 -26 -15z m36 -15 c0 -11 -7 -20 -15 -20 -8 0 -15 9 -15 20 0 11
7 20 15 20 8 0 15 -9 15 -20z"/>
<path d="M735 2611 c19 -8 19 -8 -3 -15 -28 -9 -24 -30 6 -34 19 -3 22 1 22
27 0 26 -4 31 -22 30 -22 0 -22 -1 -3 -8z m15 -31 c0 -5 -4 -10 -10 -10 -5 0
-10 5 -10 10 0 6 5 10 10 10 6 0 10 -4 10 -10z"/>
<path d="M775 2604 c5 -10 9 -29 9 -41 1 -31 5 -29 22 12 18 44 18 58 -1 25
-10 -18 -14 -20 -15 -8 0 9 -5 20 -12 24 -8 5 -9 2 -3 -12z"/>
<path d="M994 2605 c-9 -23 3 -45 26 -45 11 0 20 4 20 10 0 5 -6 7 -14 4 -8
-3 -17 -1 -21 5 -3 7 2 11 14 11 12 0 21 7 21 15 0 8 -9 15 -20 15 -11 0 -23
-7 -26 -15z"/>
<path d="M1061 2588 c2 -28 2 -29 6 -8 3 14 10 28 17 32 7 5 5 8 -6 8 -14 0
-18 -8 -17 -32z"/>
<path d="M1096 2605 c-9 -24 4 -45 28 -44 16 1 17 2 4 6 -24 6 -23 23 2 23 13
0 18 5 14 15 -4 8 -14 15 -24 15 -10 0 -20 -7 -24 -15z"/>
<path d="M1346 2605 c-9 -24 4 -45 28 -44 16 1 17 2 4 6 -24 6 -23 23 2 23 13
0 18 5 14 15 -4 8 -14 15 -24 15 -10 0 -20 -7 -24 -15z"/>
<path d="M1591 2588 c2 -31 2 -31 6 -5 2 15 10 27 18 27 8 0 16 -12 18 -27 l4
-28 2 28 c0 15 5 27 10 27 5 0 12 -12 14 -27 4 -26 4 -26 6 5 1 31 0 32 -39
32 -39 0 -40 -1 -39 -32z"/>
<path d="M1694 2606 c-9 -24 4 -48 23 -44 24 4 24 52 0 56 -9 2 -20 -4 -23
-12z m36 -16 c0 -11 -7 -20 -15 -20 -8 0 -15 9 -15 20 0 11 7 20 15 20 8 0 15
-9 15 -20z"/>
<path d="M1761 2588 c2 -28 2 -29 6 -8 3 14 10 28 17 32 7 5 5 8 -6 8 -14 0
-18 -8 -17 -32z"/>
<path d="M1796 2605 c-9 -24 4 -45 28 -44 16 1 17 2 4 6 -24 6 -23 23 2 23 13
0 18 5 14 15 -4 8 -14 15 -24 15 -10 0 -20 -7 -24 -15z"/>
<path d="M1961 2593 c-1 -29 2 -33 24 -33 22 0 25 4 24 33 -1 29 -2 29 -8 8
-9 -35 -29 -37 -34 -4 -4 27 -4 27 -6 -4z"/>
<path d="M2021 2588 c1 -30 2 -30 8 -9 9 35 29 37 34 4 4 -27 4 -27 6 5 1 28
-2 32 -24 32 -22 0 -25 -4 -24 -32z"/>
<path d="M2174 2611 c18 -7 18 -8 3 -14 -27 -10 -21 -37 8 -37 15 0 25 6 25
14 0 29 -13 46 -34 45 -20 0 -20 -1 -2 -8z m16 -31 c0 -5 -4 -10 -10 -10 -5 0
-10 5 -10 10 0 6 5 10 10 10 6 0 10 -4 10 -10z"/>
<path d="M2221 2593 c5 -14 8 -32 5 -40 -3 -7 -1 -13 3 -13 5 0 14 14 20 31
14 40 13 63 -1 29 l-10 -25 -9 23 c-4 12 -11 22 -13 22 -3 0 -1 -12 5 -27z"/>
<path d="M2280 2606 c0 -8 8 -17 18 -21 16 -7 15 -8 -3 -15 -16 -7 -17 -9 -3
-9 25 -1 33 20 12 32 -17 10 -17 11 1 18 19 7 18 8 -2 8 -13 1 -23 -5 -23 -13z"/>
<path d="M2434 2605 c-9 -23 3 -45 26 -45 11 0 20 4 20 10 0 5 -6 7 -14 4 -8
-3 -17 -1 -21 5 -3 7 2 11 14 11 12 0 21 7 21 15 0 8 -9 15 -20 15 -11 0 -23
-7 -26 -15z"/>
<path d="M2534 2605 c-9 -23 3 -45 25 -45 21 0 33 22 25 45 -4 8 -15 15 -25
15 -11 0 -22 -7 -25 -15z m42 -6 c10 -17 -13 -36 -27 -22 -12 12 -4 33 11 33
5 0 12 -5 16 -11z"/>
<path d="M2601 2588 c2 -28 2 -29 6 -8 3 14 10 28 17 32 7 5 5 8 -6 8 -14 0
-18 -8 -17 -32z"/>
<path d="M2644 2606 c-12 -33 23 -65 40 -37 4 5 -3 7 -14 4 -11 -3 -20 0 -20
6 0 6 9 11 21 11 12 0 19 5 17 13 -7 18 -37 21 -44 3z m33 -2 c-3 -3 -12 -4
-19 -1 -8 3 -5 6 6 6 11 1 17 -2 13 -5z"/>
<path d="M2844 2606 c-12 -33 23 -65 40 -37 4 5 -3 7 -14 4 -11 -3 -20 0 -20
6 0 6 9 11 21 11 12 0 19 5 17 13 -7 18 -37 21 -44 3z m33 -2 c-3 -3 -12 -4
-19 -1 -8 3 -5 6 6 6 11 1 17 -2 13 -5z"/>
<path d="M2934 2606 c-12 -33 23 -65 40 -37 4 5 -3 7 -14 4 -11 -3 -20 0 -20
6 0 6 9 11 21 11 12 0 19 5 17 13 -7 18 -37 21 -44 3z m33 -2 c-3 -3 -12 -4
-19 -1 -8 3 -5 6 6 6 11 1 17 -2 13 -5z"/>
<path d="M3001 2588 c2 -32 2 -32 6 -5 5 33 25 31 34 -4 4 -14 7 -17 8 -7 2
28 -10 48 -30 48 -15 0 -19 -7 -18 -32z"/>
<path d="M826 2553 c-6 -14 -5 -15 5 -6 7 7 10 15 7 18 -3 3 -9 -2 -12 -12z"/>
<path d="M332 2467 c-7 -7 -7 -25 -2 -47 7 -29 8 -31 10 -10 1 14 3 35 4 48 3
26 2 26 -12 9z"/>
<path d="M396 2461 c-4 -5 3 -7 14 -4 26 7 25 -7 -1 -41 l-20 -26 28 1 c22 0
24 2 10 8 -17 6 -17 8 -3 20 23 19 21 51 -3 51 -11 0 -22 -4 -25 -9z"/>
<path d="M464 2456 c-11 -28 0 -61 21 -61 16 0 20 7 20 35 0 25 -5 36 -18 38
-9 2 -20 -3 -23 -12z m36 -27 c0 -38 -24 -35 -28 4 -2 19 1 27 12 27 11 0 16
-10 16 -31z"/>
<path d="M530 2461 c0 -5 9 -7 20 -4 11 3 20 1 20 -4 0 -6 -9 -18 -20 -28 -27
-25 -25 -35 8 -34 18 1 21 3 9 6 -17 4 -18 6 -2 24 10 10 15 25 12 34 -7 16
-47 21 -47 6z"/>
<path d="M605 2440 c-15 -29 -15 -30 5 -30 11 0 20 -6 20 -12 0 -10 2 -10 8 0
10 15 3 72 -9 72 -5 0 -15 -13 -24 -30z m21 -17 c-10 -10 -19 5 -10 18 6 11 8
11 12 0 2 -7 1 -15 -2 -18z"/>
<path d="M257 2436 c-10 -26 4 -47 27 -44 30 4 30 52 0 56 -12 2 -24 -4 -27
-12z m39 -7 c3 -6 1 -16 -5 -22 -9 -9 -14 -8 -21 3 -9 15 -4 30 10 30 5 0 12
-5 16 -11z"/>
<path d="M3420 2273 c0 -24 3 -33 9 -25 7 12 4 62 -5 62 -2 0 -4 -17 -4 -37z"/>
<path d="M722 2085 c-1 -38 1 -46 9 -35 8 11 12 12 16 3 2 -7 9 -13 15 -13 6
0 6 6 -2 15 -7 8 -9 22 -6 31 5 14 4 15 -8 5 -12 -10 -15 -7 -19 16 -2 17 -5
8 -5 -22z"/>
<path d="M1583 2085 c0 -27 2 -38 4 -22 2 15 10 27 18 27 8 0 16 -12 18 -27
l4 -28 2 28 c1 21 -4 30 -18 34 -11 3 -22 12 -24 22 -3 9 -5 -6 -4 -34z"/>
<path d="M2482 2113 c-5 -10 -5 -31 -1 -48 6 -28 7 -28 9 -5 1 14 3 35 4 48 3
27 0 28 -12 5z"/>
<path d="M263 2113 c12 -3 17 -16 19 -41 l1 -37 4 35 c3 19 10 38 16 42 7 4
-4 7 -23 7 -19 -1 -27 -3 -17 -6z"/>
<path d="M332 2080 c1 -30 2 -36 5 -17 5 33 25 31 34 -4 7 -23 7 -23 8 4 1 18
-5 30 -16 34 -10 4 -21 11 -25 17 -4 6 -7 -9 -6 -34z"/>
<path d="M961 2104 c0 -11 3 -14 6 -6 3 7 2 16 -1 19 -3 4 -6 -2 -5 -13z"/>
<path d="M1241 2080 c0 -31 2 -40 8 -31 8 13 12 13 28 0 16 -13 17 -13 4 4
-11 14 -11 20 -1 32 8 9 9 15 2 15 -6 0 -14 -6 -18 -12 -6 -9 -10 -5 -15 12
-5 19 -7 15 -8 -20z"/>
<path d="M1772 2080 c0 -33 2 -39 7 -21 9 35 29 37 34 4 4 -27 4 -27 6 5 1 25
-3 32 -18 32 -11 0 -22 6 -24 13 -3 6 -5 -8 -5 -33z"/>
<path d="M2006 2103 c-6 -14 -5 -15 5 -6 7 7 10 15 7 18 -3 3 -9 -2 -12 -12z"/>
<path d="M2353 2080 c0 -25 2 -35 4 -22 2 12 2 32 0 45 -2 12 -4 2 -4 -23z"/>
<path d="M2438 2109 c-6 -17 3 -69 11 -69 7 0 6 69 -2 76 -3 3 -7 0 -9 -7z"/>
<path d="M2873 2080 c0 -25 2 -35 4 -22 2 12 2 32 0 45 -2 12 -4 2 -4 -23z"/>
<path d="M2963 2080 c0 -25 2 -35 4 -22 2 12 2 32 0 45 -2 12 -4 2 -4 -23z"/>
<path d="M1733 2096 c4 -10 7 -26 7 -37 0 -10 3 -19 8 -19 13 0 6 64 -8 68 -9
3 -11 -1 -7 -12z"/>
<path d="M392 2070 c0 -19 2 -27 5 -17 2 9 2 25 0 35 -3 9 -5 1 -5 -18z"/>
<path d="M420 2089 c0 -7 8 -18 18 -26 16 -14 16 -14 0 -9 -10 3 -18 1 -18 -4
0 -6 9 -10 20 -10 24 0 27 28 3 37 -15 6 -15 7 3 14 17 7 17 8 -3 8 -13 1 -23
-4 -23 -10z"/>
<path d="M505 2086 c17 -53 16 -52 32 -23 8 16 12 31 9 34 -3 3 -10 -5 -15
-18 -7 -16 -10 -19 -10 -7 -1 9 -5 20 -11 23 -5 3 -8 -1 -5 -9z"/>
<path d="M570 2087 c0 -9 -4 -17 -10 -17 -5 0 -10 -7 -10 -15 0 -8 4 -15 9
-15 10 0 25 50 16 58 -3 3 -5 -2 -5 -11z"/>
<path d="M594 2086 c-12 -33 23 -65 40 -37 4 5 -3 7 -14 4 -11 -3 -20 0 -20 6
0 6 9 11 21 11 12 0 19 5 17 13 -7 18 -37 21 -44 3z m33 -2 c-3 -3 -12 -4 -19
-1 -8 3 -5 6 6 6 11 1 17 -2 13 -5z"/>
<path d="M654 2085 c-9 -23 3 -45 26 -45 11 0 20 4 20 10 0 5 -6 7 -14 4 -8
-3 -17 -1 -21 5 -3 7 2 11 14 11 12 0 21 7 21 15 0 8 -9 15 -20 15 -11 0 -23
-7 -26 -15z"/>
<path d="M811 2085 c0 -11 4 -27 9 -35 7 -12 11 -10 18 10 l9 24 7 -25 c6 -22
7 -22 17 -6 6 10 8 25 6 35 -3 11 -5 9 -6 -8 l-2 -25 -14 25 -15 25 -7 -25 -7
-25 -7 25 c-6 20 -7 21 -8 5z"/>
<path d="M894 2085 c-9 -23 3 -45 26 -45 11 0 20 4 20 10 0 5 -6 7 -14 4 -8
-3 -17 -1 -21 5 -3 7 2 11 14 11 12 0 21 7 21 15 0 8 -9 15 -20 15 -11 0 -23
-7 -26 -15z"/>
<path d="M991 2068 c2 -28 2 -29 6 -8 3 14 10 28 17 32 7 5 5 8 -6 8 -14 0
-18 -8 -17 -32z"/>
<path d="M1034 2086 c-12 -33 23 -65 40 -37 4 5 -3 7 -14 4 -11 -3 -20 0 -20
6 0 6 9 11 21 11 12 0 19 5 17 13 -7 18 -37 21 -44 3z m33 -2 c-3 -3 -12 -4
-19 -1 -8 3 -5 6 6 6 11 1 17 -2 13 -5z"/>
<path d="M1140 2091 c25 -7 25 -7 3 -13 -32 -9 -30 -38 3 -38 22 0 25 4 22 28
-2 21 -9 27 -28 29 l-25 2 25 -8z m10 -31 c0 -5 -4 -10 -10 -10 -5 0 -10 5
-10 10 0 6 5 10 10 10 6 0 10 -4 10 -10z"/>
<path d="M1186 2093 c-4 -4 3 -16 16 -26 l23 -19 -24 6 c-17 3 -21 2 -13 -6
12 -12 42 -4 42 11 0 5 -10 13 -22 17 -22 7 -22 7 -3 15 14 5 16 8 4 8 -9 1
-19 -2 -23 -6z"/>
<path d="M1302 2070 c0 -19 2 -27 5 -17 2 9 2 25 0 35 -3 9 -5 1 -5 -18z"/>
<path d="M1331 2068 c2 -30 2 -31 6 -5 5 34 30 36 36 2 4 -23 4 -23 3 2 -1 21
-7 29 -23 31 -20 3 -23 -1 -22 -30z"/>
<path d="M1393 2084 c-3 -9 2 -23 13 -32 17 -16 17 -16 4 1 -14 19 -1 45 17
34 16 -10 7 -50 -13 -58 -18 -7 -18 -8 2 -8 23 -1 34 16 34 55 0 19 -5 24 -25
24 -14 0 -28 -7 -32 -16z"/>
<path d="M1491 2090 c0 -8 4 -24 9 -35 8 -19 9 -19 16 4 l7 23 13 -23 c9 -18
14 -20 17 -9 3 8 8 23 11 33 3 11 2 16 -4 12 -6 -3 -10 -14 -11 -23 0 -11 -4
-8 -10 8 -10 24 -11 24 -21 5 -11 -19 -11 -19 -19 0 -5 13 -8 14 -8 5z"/>
<path d="M1640 2098 c0 -4 5 -19 10 -34 8 -21 8 -29 -2 -36 -10 -6 -10 -8 -1
-8 14 0 47 69 38 79 -3 3 -9 -5 -12 -18 l-6 -23 -13 23 c-7 13 -13 21 -14 17z"/>
<path d="M1836 2085 c-9 -24 4 -45 28 -44 16 1 17 2 4 6 -24 6 -23 23 2 23 13
0 18 5 14 15 -4 8 -14 15 -24 15 -10 0 -20 -7 -24 -15z"/>
<path d="M1901 2068 c2 -28 2 -29 6 -8 3 14 10 28 17 32 7 5 5 8 -6 8 -14 0
-18 -8 -17 -32z"/>
<path d="M1944 2086 c-12 -33 23 -65 40 -37 4 5 -3 7 -14 4 -11 -3 -20 0 -20
6 0 6 9 11 21 11 12 0 19 5 17 13 -7 18 -37 21 -44 3z m33 -2 c-3 -3 -12 -4
-19 -1 -8 3 -5 6 6 6 11 1 17 -2 13 -5z"/>
<path d="M2030 2089 c0 -7 8 -18 18 -26 16 -14 16 -14 0 -9 -10 3 -18 1 -18
-4 0 -6 9 -10 20 -10 24 0 27 28 3 37 -15 6 -15 7 3 14 17 7 17 8 -3 8 -13 1
-23 -4 -23 -10z"/>
<path d="M2121 2068 c2 -32 2 -32 6 -5 5 33 25 31 34 -4 4 -14 7 -17 8 -7 2
28 -10 48 -30 48 -15 0 -19 -7 -18 -32z"/>
<path d="M2184 2085 c-9 -23 4 -47 23 -43 11 2 19 14 21 31 3 22 -1 27 -18 27
-11 0 -23 -7 -26 -15z m36 -15 c0 -11 -7 -20 -15 -20 -8 0 -15 9 -15 20 0 11
7 20 15 20 8 0 15 -9 15 -20z"/>
<path d="M2280 2058 c0 -24 4 -38 8 -32 4 6 15 13 25 17 10 4 17 17 17 32 0
20 -5 25 -25 25 -23 0 -25 -4 -25 -42z m40 12 c0 -11 -7 -20 -15 -20 -8 0 -15
9 -15 20 0 11 7 20 15 20 8 0 15 -9 15 -20z"/>
<path d="M2395 2091 c19 -8 19 -8 -3 -15 -28 -9 -24 -30 6 -34 19 -3 22 1 22
27 0 26 -4 31 -22 30 -22 0 -22 -1 -3 -8z m15 -31 c0 -5 -7 -10 -16 -10 -8 0
-12 5 -9 10 3 6 10 10 16 10 5 0 9 -4 9 -10z"/>
<path d="M2514 2085 c-9 -23 4 -47 23 -43 11 2 19 14 21 31 3 22 -1 27 -18 27
-11 0 -23 -7 -26 -15z m36 -15 c0 -11 -7 -20 -15 -20 -8 0 -15 9 -15 20 0 11
7 20 15 20 8 0 15 -9 15 -20z"/>
<path d="M2581 2068 c2 -28 2 -29 6 -8 3 14 10 28 17 32 7 5 5 8 -6 8 -14 0
-18 -8 -17 -32z"/>
<path d="M2621 2068 c2 -32 2 -32 6 -5 5 33 25 31 34 -4 7 -24 7 -24 8 4 1 15
5 27 10 27 5 0 12 -12 14 -27 4 -26 4 -26 6 5 1 31 0 32 -39 32 -39 0 -40 -1
-39 -32z"/>
<path d="M2750 2086 c0 -8 8 -17 18 -21 16 -7 15 -8 -3 -15 -16 -7 -17 -9 -3
-9 25 -1 33 20 12 32 -17 10 -17 11 1 18 19 7 18 8 -2 8 -13 1 -23 -5 -23 -13z"/>
<path d="M2807 2086 c-10 -26 4 -47 27 -44 15 2 21 10 21 28 0 29 -38 41 -48
16z m39 -7 c3 -6 1 -16 -5 -22 -9 -9 -14 -8 -21 3 -9 15 -4 30 10 30 5 0 12
-5 16 -11z"/>
<path d="M2904 2086 c-12 -33 23 -65 40 -37 4 5 -3 7 -14 4 -11 -3 -20 0 -20
6 0 6 9 11 21 11 12 0 19 5 17 13 -7 18 -37 21 -44 3z m33 -2 c-3 -3 -12 -4
-19 -1 -8 3 -5 6 6 6 11 1 17 -2 13 -5z"/>
<path d="M2994 2063 c0 -24 4 -43 9 -43 4 0 7 2 7 4 0 2 7 20 15 40 8 20 13
36 10 36 -3 0 -10 -10 -14 -22 l-9 -23 -10 25 c-9 22 -10 20 -8 -17z"/>
<path d="M262 1943 c-5 -10 -5 -31 -1 -48 6 -28 7 -28 9 -5 1 14 3 35 6 48 5
26 -2 29 -14 5z"/>
<path d="M650 1945 c0 -8 -9 -15 -19 -15 -10 0 -21 -7 -25 -15 -9 -25 4 -45
30 -45 22 0 24 4 24 45 0 25 -2 45 -5 45 -3 0 -5 -7 -5 -15z m-4 -36 c3 -6 1
-16 -5 -22 -9 -9 -14 -8 -21 3 -9 15 -4 30 10 30 5 0 12 -5 16 -11z"/>
<path d="M1322 1943 c-5 -10 -5 -31 -1 -48 6 -28 7 -28 9 -5 1 14 3 35 4 48 3
27 0 28 -12 5z"/>
<path d="M928 1939 c-6 -17 3 -69 11 -69 7 0 6 69 -2 76 -3 3 -7 0 -9 -7z"/>
<path d="M1418 1918 c-2 -25 -8 -33 -22 -31 -12 1 -15 -2 -8 -9 20 -20 42 0
42 37 0 44 -8 46 -12 3z"/>
<path d="M1571 1934 c0 -11 3 -14 6 -6 3 7 2 16 -1 19 -3 4 -6 -2 -5 -13z"/>
<path d="M1628 1938 c-7 -21 6 -61 22 -66 13 -5 13 -3 1 11 -7 9 -11 23 -8 30
3 8 2 19 -3 26 -6 10 -8 10 -12 -1z"/>
<path d="M1792 1910 c0 -33 2 -39 7 -21 9 35 29 37 34 4 4 -27 4 -27 6 5 1 25
-3 32 -18 32 -11 0 -22 6 -24 13 -3 6 -5 -8 -5 -33z"/>
<path d="M2258 1939 c-6 -17 3 -69 11 -69 7 0 6 69 -2 76 -3 3 -7 0 -9 -7z"/>
<path d="M2671 1934 c0 -11 3 -14 6 -6 3 7 2 16 -1 19 -3 4 -6 -2 -5 -13z"/>
<path d="M294 1915 c-9 -23 4 -47 23 -43 11 2 19 14 21 31 3 22 -1 27 -18 27
-11 0 -23 -7 -26 -15z m36 -15 c0 -11 -7 -20 -15 -20 -8 0 -15 9 -15 20 0 11
7 20 15 20 8 0 15 -9 15 -20z"/>
<path d="M364 1915 c-13 -32 23 -63 40 -36 4 5 -3 7 -14 4 -16 -4 -20 0 -20
17 0 17 4 21 20 17 11 -3 18 -1 14 4 -8 14 -34 11 -40 -6z"/>
<path d="M424 1900 c1 -18 7 -26 24 -28 19 -3 22 1 21 30 -2 30 -2 31 -6 6 -5
-34 -30 -37 -36 -5 -3 19 -4 19 -3 -3z"/>
<path d="M490 1916 c0 -8 8 -17 18 -21 16 -7 15 -8 -3 -15 -16 -7 -17 -9 -3
-9 25 -1 33 20 12 32 -17 10 -17 11 1 18 19 7 18 8 -2 8 -13 1 -23 -5 -23 -13z"/>
<path d="M544 1915 c-9 -23 3 -45 26 -45 11 0 20 4 20 10 0 5 -6 7 -14 4 -8
-3 -17 -1 -21 5 -3 7 2 11 14 11 12 0 21 7 21 15 0 8 -9 15 -20 15 -11 0 -23
-7 -26 -15z"/>
<path d="M707 1916 c-10 -26 4 -47 27 -44 15 2 21 10 21 28 0 29 -38 41 -48
16z m39 -7 c3 -6 1 -16 -5 -22 -9 -9 -14 -8 -21 3 -9 15 -4 30 10 30 5 0 12
-5 16 -11z"/>
<path d="M771 1898 c2 -31 2 -31 6 -5 2 15 10 27 18 27 8 0 16 -12 18 -27 4
-26 4 -26 6 5 1 28 -2 32 -24 32 -22 0 -25 -4 -24 -32z"/>
<path d="M870 1916 c0 -8 8 -17 18 -21 16 -7 15 -8 -3 -15 -16 -7 -17 -9 -3
-9 25 -1 33 20 12 32 -17 10 -17 11 1 18 19 7 18 8 -2 8 -13 1 -23 -5 -23 -13z"/>
<path d="M964 1915 c-9 -23 3 -45 25 -45 10 0 21 7 25 15 8 23 -4 45 -25 45
-11 0 -22 -7 -25 -15z m42 -6 c10 -17 -13 -36 -27 -22 -12 12 -4 33 11 33 5 0
12 -5 16 -11z"/>
<path d="M1031 1898 c2 -28 2 -29 6 -8 3 14 10 28 17 32 7 5 5 8 -6 8 -14 0
-18 -8 -17 -32z"/>
<path d="M1072 1900 c0 -19 2 -27 5 -17 2 9 2 25 0 35 -3 9 -5 1 -5 -18z"/>
<path d="M1096 1915 c-9 -24 4 -45 28 -44 16 1 17 2 4 6 -24 6 -23 23 2 23 13
0 18 5 14 15 -4 8 -14 15 -24 15 -10 0 -20 -7 -24 -15z"/>
<path d="M1160 1919 c0 -7 8 -18 18 -26 16 -14 16 -14 0 -9 -10 3 -18 1 -18
-4 0 -6 9 -10 20 -10 24 0 27 28 3 37 -15 6 -15 7 3 14 17 7 17 8 -3 8 -13 1
-23 -4 -23 -10z"/>
<path d="M1254 1916 c-9 -24 4 -48 23 -44 12 2 18 12 18 28 0 29 -32 41 -41
16z m36 -16 c0 -11 -7 -20 -15 -20 -8 0 -15 9 -15 20 0 11 7 20 15 20 8 0 15
-9 15 -20z"/>
<path d="M1444 1915 c-9 -23 3 -45 25 -45 21 0 33 22 25 45 -4 8 -15 15 -25
15 -11 0 -22 -7 -25 -15z m42 -6 c10 -17 -13 -36 -27 -22 -12 12 -4 33 11 33
5 0 12 -5 16 -11z"/>
<path d="M1510 1919 c0 -7 8 -18 18 -26 16 -14 16 -14 0 -9 -10 3 -18 1 -18
-4 0 -6 9 -10 20 -10 24 0 27 28 3 37 -15 6 -15 7 3 14 17 7 17 8 -3 8 -13 1
-23 -4 -23 -10z"/>
<path d="M1674 1916 c-12 -33 23 -65 40 -37 4 5 -3 7 -14 4 -11 -3 -20 0 -20
6 0 6 9 11 21 11 12 0 19 5 17 13 -7 18 -37 21 -44 3z m33 -2 c-3 -3 -12 -4
-19 -1 -8 3 -5 6 6 6 11 1 17 -2 13 -5z"/>
<path d="M1734 1915 c-13 -32 23 -63 40 -36 4 5 -3 7 -14 4 -16 -4 -20 0 -20
17 0 17 4 21 20 17 11 -3 20 -1 20 4 0 15 -40 10 -46 -6z"/>
<path d="M1894 1916 c-12 -33 23 -65 40 -37 4 5 -3 7 -14 4 -11 -3 -20 0 -20
6 0 6 9 11 21 11 12 0 19 5 17 13 -7 18 -37 21 -44 3z m33 -2 c-3 -3 -12 -4
-19 -1 -8 3 -5 6 6 6 11 1 17 -2 13 -5z"/>
<path d="M1954 1915 c-9 -23 3 -45 26 -45 11 0 20 4 20 9 0 5 -8 8 -17 7 -10
0 -18 6 -18 14 0 8 8 14 18 14 9 -1 17 2 17 7 0 15 -40 10 -46 -6z"/>
<path d="M2017 1916 c-10 -26 4 -47 27 -44 15 2 21 10 21 28 0 29 -38 41 -48
16z m39 -7 c3 -6 1 -16 -5 -22 -9 -9 -14 -8 -21 3 -9 15 -4 30 10 30 5 0 12
-5 16 -11z"/>
<path d="M2080 1915 c0 -8 7 -15 15 -15 8 0 15 -5 15 -11 0 -6 -7 -9 -15 -5
-8 3 -15 1 -15 -4 0 -13 37 -13 45 -1 3 5 -4 16 -16 24 -19 14 -20 15 -2 20
15 4 14 5 -4 6 -14 1 -23 -5 -23 -14z"/>
<path d="M2141 1903 c5 -14 8 -32 5 -40 -3 -7 -1 -13 3 -13 5 0 14 14 20 31
14 40 13 63 -1 29 l-10 -25 -9 23 c-4 12 -11 22 -13 22 -3 0 -1 -12 5 -27z"/>
<path d="M2200 1916 c0 -8 8 -17 18 -21 16 -7 15 -8 -3 -15 -16 -7 -17 -9 -3
-9 25 -1 33 20 12 32 -17 10 -17 11 1 18 19 7 18 8 -2 8 -13 1 -23 -5 -23 -13z"/>
<path d="M2294 1916 c-12 -33 23 -65 40 -37 4 5 -3 7 -14 4 -11 -3 -20 0 -20
6 0 6 9 11 21 11 12 0 19 5 17 13 -7 18 -37 21 -44 3z m33 -2 c-3 -3 -12 -4
-19 -1 -8 3 -5 6 6 6 11 1 17 -2 13 -5z"/>
<path d="M2361 1898 c2 -31 2 -31 6 -5 2 15 9 27 14 27 5 0 9 -12 10 -27 1
-28 1 -28 8 -4 9 35 29 37 34 4 4 -27 4 -27 6 5 1 31 0 32 -39 32 -39 0 -40
-1 -39 -32z"/>
<path d="M2515 1916 c17 -53 16 -52 32 -23 8 16 12 31 9 34 -3 3 -10 -5 -15
-18 -7 -16 -10 -19 -10 -7 -1 9 -5 20 -11 23 -5 3 -8 -1 -5 -9z"/>
<path d="M2580 1917 c0 -9 -4 -17 -10 -17 -5 0 -10 -7 -10 -15 0 -8 4 -15 9
-15 10 0 25 50 16 58 -3 3 -5 -2 -5 -11z"/>
<path d="M2604 1916 c-12 -33 23 -65 40 -37 4 5 -3 7 -14 4 -11 -3 -20 0 -20
6 0 6 9 11 21 11 12 0 19 5 17 13 -7 18 -37 21 -44 3z m33 -2 c-3 -3 -12 -4
-19 -1 -8 3 -5 6 6 6 11 1 17 -2 13 -5z"/>
<path d="M2701 1898 c2 -28 2 -29 6 -8 3 14 10 28 17 32 7 5 5 8 -6 8 -14 0
-18 -8 -17 -32z"/>
<path d="M2736 1915 c-9 -24 4 -45 28 -44 16 1 17 2 4 6 -24 6 -23 23 2 23 13
0 18 5 14 15 -4 8 -14 15 -24 15 -10 0 -20 -7 -24 -15z"/>
<path d="M2455 1869 c-4 -6 -5 -12 -2 -15 2 -3 7 2 10 11 7 17 1 20 -8 4z"/>
<path d="M1522 1773 c-5 -10 -5 -31 -1 -48 7 -30 7 -30 8 -3 0 14 7 29 14 31
9 4 9 6 0 6 -7 1 -10 8 -7 16 8 21 -3 19 -14 -2z"/>
<path d="M2512 1777 c-7 -7 -7 -25 -2 -47 7 -29 8 -31 10 -10 1 14 3 35 4 48
3 26 2 26 -12 9z"/>
<path d="M3043 1745 c0 -27 2 -38 4 -22 2 15 10 27 18 27 8 0 16 -12 18 -27
l4 -28 2 28 c1 21 -4 30 -18 34 -11 3 -22 12 -24 22 -3 9 -5 -6 -4 -34z"/>
<path d="M538 1769 c-6 -17 3 -69 11 -69 7 0 6 69 -2 76 -3 3 -7 0 -9 -7z"/>
<path d="M768 1769 c-6 -17 3 -69 11 -69 7 0 6 69 -2 76 -3 3 -7 0 -9 -7z"/>
<path d="M802 1740 c0 -33 2 -39 7 -21 9 35 29 37 34 4 4 -27 4 -27 6 5 1 25
-3 32 -18 32 -11 0 -22 6 -24 13 -3 6 -5 -8 -5 -33z"/>
<path d="M1098 1769 c-6 -17 3 -69 11 -69 7 0 6 69 -2 76 -3 3 -7 0 -9 -7z"/>
<path d="M2011 1740 c0 -31 2 -40 8 -31 8 13 12 13 28 0 16 -13 17 -13 4 4
-11 14 -11 20 -1 32 8 9 9 15 2 15 -6 0 -14 -6 -18 -12 -6 -9 -10 -5 -15 12
-5 19 -7 15 -8 -20z"/>
<path d="M2603 1740 c0 -25 2 -35 4 -22 2 12 2 32 0 45 -2 12 -4 2 -4 -23z"/>
<path d="M2633 1740 c0 -25 2 -35 4 -22 2 12 2 32 0 45 -2 12 -4 2 -4 -23z"/>
<path d="M2998 1768 c-7 -21 6 -61 22 -66 13 -5 13 -3 1 11 -7 9 -11 23 -8 30
3 8 2 19 -3 26 -6 10 -8 10 -12 -1z"/>
<path d="M261 1728 c2 -28 2 -29 6 -8 3 14 10 28 17 32 7 5 5 8 -6 8 -14 0
-18 -8 -17 -32z"/>
<path d="M296 1745 c-9 -24 4 -45 28 -44 16 1 17 2 4 6 -24 6 -23 23 2 23 13
0 18 5 14 15 -4 8 -14 15 -24 15 -10 0 -20 -7 -24 -15z"/>
<path d="M360 1718 c0 -24 4 -38 8 -32 4 6 15 13 25 17 10 4 17 17 17 32 0 20
-5 25 -25 25 -23 0 -25 -4 -25 -42z m40 12 c0 -11 -7 -20 -15 -20 -8 0 -15 9
-15 20 0 11 7 20 15 20 8 0 15 -9 15 -20z"/>
<path d="M427 1746 c-10 -26 4 -47 27 -44 15 2 21 10 21 28 0 29 -38 41 -48
16z m39 -7 c3 -6 1 -16 -5 -22 -9 -9 -14 -8 -21 3 -9 15 -4 30 10 30 5 0 12
-5 16 -11z"/>
<path d="M491 1728 c1 -22 3 -26 6 -13 3 11 10 26 15 33 8 9 6 12 -6 12 -12 0
-16 -9 -15 -32z"/>
<path d="M572 1730 c0 -19 2 -27 5 -17 2 9 2 25 0 35 -3 9 -5 1 -5 -18z"/>
<path d="M601 1728 c2 -31 2 -31 6 -5 6 35 30 35 36 0 4 -26 4 -26 6 5 1 28
-2 32 -24 32 -22 0 -25 -4 -24 -32z"/>
<path d="M666 1743 c-4 -9 -2 -21 3 -26 5 -5 7 -16 4 -24 -4 -11 0 -14 18 -11
20 2 25 10 27 41 3 33 1 37 -21 37 -14 0 -28 -7 -31 -17z m39 -23 c0 -13 -6
-25 -13 -26 -7 -1 -8 0 -2 3 6 3 4 11 -5 20 -16 16 -11 37 8 30 7 -2 12 -14
12 -27z"/>
<path d="M874 1746 c-12 -33 23 -65 40 -37 4 5 -3 7 -14 4 -11 -3 -20 0 -20 6
0 6 9 11 21 11 12 0 19 5 17 13 -7 18 -37 21 -44 3z m33 -2 c-3 -3 -12 -4 -19
-1 -8 3 -5 6 6 6 11 1 17 -2 13 -5z"/>
<path d="M964 1745 c-9 -23 3 -45 25 -45 10 0 21 7 25 15 8 23 -4 45 -25 45
-11 0 -22 -7 -25 -15z m42 -6 c10 -17 -13 -36 -27 -22 -12 12 -4 33 11 33 5 0
12 -5 16 -11z"/>
<path d="M1031 1733 c-1 -29 2 -33 24 -33 22 0 25 4 24 33 -1 29 -2 29 -8 8
-9 -35 -29 -37 -34 -4 -4 27 -4 27 -6 -4z"/>
<path d="M1134 1745 c-9 -23 3 -45 26 -45 11 0 20 4 20 9 0 5 -8 8 -17 7 -10
0 -18 6 -18 14 0 8 8 14 18 14 9 -1 17 2 17 7 0 15 -40 10 -46 -6z"/>
<path d="M1194 1745 c-9 -23 3 -45 25 -45 10 0 21 7 25 15 8 23 -4 45 -25 45
-11 0 -22 -7 -25 -15z m42 -6 c10 -17 -13 -36 -27 -22 -12 12 -4 33 11 33 5 0
12 -5 16 -11z"/>
<path d="M1261 1728 c2 -31 2 -31 6 -5 2 15 10 27 18 27 8 0 16 -12 18 -27 l4
-28 2 28 c0 15 5 27 10 27 5 0 12 -12 14 -27 4 -26 4 -26 6 5 1 31 0 32 -39
32 -39 0 -40 -1 -39 -32z"/>
<path d="M1364 1746 c-12 -33 23 -65 40 -37 4 5 -3 7 -14 4 -11 -3 -20 0 -20
6 0 6 9 11 21 11 12 0 19 5 17 13 -7 18 -37 21 -44 3z m33 -2 c-3 -3 -12 -4
-19 -1 -8 3 -5 6 6 6 11 1 17 -2 13 -5z"/>
<path d="M1454 1745 c-9 -23 4 -47 23 -43 11 2 19 14 21 31 3 22 -1 27 -18 27
-11 0 -23 -7 -26 -15z m36 -15 c0 -11 -7 -20 -15 -20 -8 0 -15 9 -15 20 0 11
7 20 15 20 8 0 15 -9 15 -20z"/>
<path d="M1594 1746 c-9 -24 4 -48 23 -44 24 4 24 52 0 56 -9 2 -20 -4 -23
-12z m36 -16 c0 -11 -7 -20 -15 -20 -8 0 -15 9 -15 20 0 11 7 20 15 20 8 0 15
-9 15 -20z"/>
<path d="M1653 1735 c2 -23 7 -31 25 -33 19 -3 22 1 21 30 -2 31 -2 31 -6 5
-5 -33 -24 -31 -35 4 -6 22 -7 21 -5 -6z"/>
<path d="M1721 1728 c2 -28 2 -29 6 -8 3 14 10 28 17 32 7 5 5 8 -6 8 -14 0
-18 -8 -17 -32z"/>
<path d="M1797 1753 c-13 -13 -7 -44 11 -50 9 -4 20 -11 24 -17 4 -6 8 8 8 32
0 34 -3 42 -18 42 -10 0 -22 -3 -25 -7z m33 -23 c0 -11 -7 -20 -15 -20 -8 0
-15 9 -15 20 0 11 7 20 15 20 8 0 15 -9 15 -20z"/>
<path d="M1861 1733 c-1 -29 2 -33 24 -33 22 0 25 4 24 33 -1 29 -2 29 -8 8
-9 -35 -29 -37 -34 -4 -4 27 -4 27 -6 -4z"/>
<path d="M1922 1730 c0 -19 2 -27 5 -17 2 9 2 25 0 35 -3 9 -5 1 -5 -18z"/>
<path d="M1954 1745 c-13 -32 23 -63 40 -36 4 5 -3 7 -14 4 -16 -4 -20 0 -20
17 0 17 4 21 20 17 11 -3 18 -1 14 4 -8 14 -34 11 -40 -6z"/>
<path d="M2100 1745 c0 -8 7 -15 15 -15 8 0 15 -5 15 -11 0 -6 -7 -9 -15 -5
-8 3 -15 1 -15 -4 0 -13 37 -13 45 -1 3 5 -4 16 -16 24 -19 14 -20 15 -2 20
15 4 14 5 -4 6 -14 1 -23 -5 -23 -14z"/>
<path d="M2164 1730 c1 -18 7 -26 24 -28 19 -3 22 1 21 30 -2 30 -2 31 -6 6
-5 -34 -30 -37 -36 -5 -3 19 -4 19 -3 -3z"/>
<path d="M2231 1728 c2 -31 2 -31 6 -5 5 34 29 35 37 2 8 -31 22 -32 30 -2 9
34 6 45 -6 17 l-10 -25 -9 23 c-5 13 -17 22 -29 22 -16 0 -20 -6 -19 -32z"/>
<path d="M2326 1745 c-9 -24 4 -45 28 -44 16 1 17 2 4 6 -24 6 -23 23 2 23 13
0 18 5 14 15 -4 8 -14 15 -24 15 -10 0 -20 -7 -24 -15z"/>
<path d="M2394 1723 c0 -24 4 -43 9 -43 4 0 7 2 7 4 0 2 7 20 15 40 8 20 13
36 10 36 -3 0 -10 -10 -14 -22 l-9 -23 -10 25 c-9 22 -10 20 -8 -17z"/>
<path d="M2544 1746 c-9 -24 4 -48 23 -44 12 2 18 12 18 28 0 29 -32 41 -41
16z m36 -16 c0 -11 -7 -20 -15 -20 -8 0 -15 9 -15 20 0 11 7 20 15 20 8 0 15
-9 15 -20z"/>
<path d="M2664 1746 c-9 -24 4 -48 23 -44 12 2 18 12 18 28 0 29 -32 41 -41
16z m36 -16 c0 -11 -7 -20 -15 -20 -8 0 -15 9 -15 20 0 11 7 20 15 20 8 0 15
-9 15 -20z"/>
<path d="M2721 1750 c0 -8 4 -24 9 -35 8 -19 9 -19 16 4 l7 23 13 -23 c9 -18
14 -20 17 -9 3 8 8 23 11 33 3 11 2 16 -4 12 -6 -3 -10 -14 -11 -23 0 -11 -4
-8 -10 8 -10 24 -11 24 -21 5 -11 -19 -11 -19 -19 0 -5 13 -8 14 -8 5z"/>
<path d="M2812 1730 c0 -19 2 -27 5 -17 2 9 2 25 0 35 -3 9 -5 1 -5 -18z"/>
<path d="M2831 1728 c1 -30 2 -30 8 -9 9 35 29 37 34 4 4 -27 4 -27 6 5 1 28
-2 32 -24 32 -22 0 -25 -4 -24 -32z"/>
<path d="M2900 1735 c0 -22 9 -30 33 -26 4 0 7 -4 7 -10 0 -7 -9 -9 -21 -6
-16 4 -19 3 -11 -5 20 -20 42 -1 42 37 0 31 -3 35 -25 35 -20 0 -25 -5 -25
-25z m38 -2 c-4 -22 -22 -20 -26 1 -2 10 3 16 13 16 10 0 15 -7 13 -17z"/>
<path d="M3104 1745 c-9 -23 3 -45 26 -45 11 0 20 4 20 10 0 5 -6 7 -14 4 -8
-3 -17 -1 -21 5 -3 7 2 11 14 11 12 0 21 7 21 15 0 8 -9 15 -20 15 -11 0 -23
-7 -26 -15z"/>
<path d="M2441 1694 c0 -11 3 -14 6 -6 3 7 2 16 -1 19 -3 4 -6 -2 -5 -13z"/>
<path d="M552 1597 c-7 -7 -7 -25 -2 -47 7 -29 8 -31 10 -10 1 14 3 35 4 48 3
26 2 26 -12 9z"/>
<path d="M1342 1565 c-1 -38 1 -46 9 -35 8 11 12 12 16 3 2 -7 9 -13 15 -13 6
0 6 6 -2 15 -7 8 -9 22 -6 31 5 14 4 15 -8 5 -12 -10 -15 -7 -19 16 -2 17 -5
8 -5 -22z"/>
<path d="M1431 1567 c-1 -45 1 -48 22 -45 30 4 39 58 8 58 -11 0 -22 8 -24 18
-3 9 -5 -5 -6 -31z m39 -18 c0 -24 -23 -21 -28 4 -2 10 3 17 12 17 10 0 16 -9
16 -21z"/>
<path d="M1593 1565 c0 -27 2 -38 4 -22 2 15 2 37 0 50 -2 12 -4 0 -4 -28z"/>
<path d="M1660 1595 c0 -8 -9 -15 -19 -15 -10 0 -21 -7 -25 -15 -9 -25 4 -45
30 -45 22 0 24 4 24 45 0 25 -2 45 -5 45 -3 0 -5 -7 -5 -15z m-4 -36 c3 -6 1
-16 -5 -22 -9 -9 -14 -8 -21 3 -9 15 -4 30 10 30 5 0 12 -5 16 -11z"/>
<path d="M2320 1595 c0 -8 -9 -15 -19 -15 -10 0 -21 -7 -25 -15 -9 -25 4 -45
30 -45 22 0 24 4 24 45 0 25 -2 45 -5 45 -3 0 -5 -7 -5 -15z m-4 -36 c3 -6 1
-16 -5 -22 -9 -9 -14 -8 -21 3 -9 15 -4 30 10 30 5 0 12 -5 16 -11z"/>
<path d="M408 1589 c-6 -17 3 -69 11 -69 7 0 6 69 -2 76 -3 3 -7 0 -9 -7z"/>
<path d="M611 1558 c1 -38 2 -40 8 -14 l6 30 13 -29 14 -30 13 25 13 24 5 -24
c3 -16 5 -10 6 18 1 50 -4 53 -23 10 l-14 -33 -12 33 c-17 45 -30 40 -29 -10z"/>
<path d="M831 1560 c0 -31 2 -40 8 -31 8 13 12 13 27 0 16 -13 16 -12 6 7 -8
16 -8 24 0 32 9 9 9 12 1 12 -7 0 -15 -6 -19 -12 -6 -9 -10 -5 -15 12 -5 19
-7 15 -8 -20z"/>
<path d="M896 1583 c-6 -14 -5 -15 5 -6 7 7 10 15 7 18 -3 3 -9 -2 -12 -12z"/>
<path d="M1010 1581 c0 -10 9 -21 20 -24 11 -3 20 -11 20 -17 0 -7 -8 -10 -20
-7 -11 3 -20 1 -20 -4 0 -5 11 -9 25 -9 31 0 35 35 5 45 -11 3 -20 11 -20 17
0 6 9 8 20 5 11 -3 20 -1 20 4 0 5 -11 9 -25 9 -18 0 -25 -5 -25 -19z"/>
<path d="M1078 1588 c-3 -7 -2 -24 2 -38 5 -20 13 -25 43 -27 35 -3 37 -2 37
27 0 25 -4 30 -22 29 -22 0 -22 -1 -3 -8 19 -8 19 -8 -2 -15 -13 -4 -23 -12
-23 -17 0 -6 -5 -7 -11 -3 -6 3 -9 14 -6 24 6 22 -8 48 -15 28z m72 -48 c0 -5
-4 -10 -10 -10 -5 0 -10 5 -10 10 0 6 5 10 10 10 6 0 10 -4 10 -10z"/>
<path d="M1223 1560 c0 -25 2 -35 4 -22 2 12 2 32 0 45 -2 12 -4 2 -4 -23z"/>
<path d="M1880 1592 c0 -6 10 -8 23 -5 21 4 21 4 4 -10 -15 -13 -16 -15 -2
-21 27 -10 17 -29 -12 -21 -21 5 -25 4 -17 -5 7 -7 20 -10 30 -8 14 2 19 12
19 38 0 29 -4 36 -22 38 -13 2 -23 -1 -23 -6z"/>
<path d="M2438 1589 c-6 -17 3 -69 11 -69 7 0 6 69 -2 76 -3 3 -7 0 -9 -7z"/>
<path d="M2538 1589 c-6 -17 3 -69 11 -69 7 0 6 69 -2 76 -3 3 -7 0 -9 -7z"/>
<path d="M256 1563 c-4 -9 -2 -21 3 -26 5 -5 7 -16 4 -24 -4 -11 0 -14 18 -11
20 2 25 10 27 41 3 33 1 37 -21 37 -14 0 -28 -7 -31 -17z m39 -23 c0 -13 -6
-25 -13 -26 -7 -1 -8 0 -2 3 6 3 4 11 -5 20 -16 16 -11 37 8 30 7 -2 12 -14
12 -27z"/>
<path d="M322 1550 c0 -19 2 -27 5 -17 2 9 2 25 0 35 -3 9 -5 1 -5 -18z"/>
<path d="M350 1569 c0 -7 8 -18 18 -26 16 -14 16 -14 0 -9 -10 3 -18 1 -18 -4
0 -6 9 -10 20 -10 24 0 27 28 3 37 -15 6 -15 7 3 14 17 7 17 8 -3 8 -13 1 -23
-4 -23 -10z"/>
<path d="M477 1566 c-10 -26 4 -47 27 -44 15 2 21 10 21 28 0 29 -38 41 -48
16z m39 -7 c3 -6 1 -16 -5 -22 -9 -9 -14 -8 -21 3 -9 15 -4 30 10 30 5 0 12
-5 16 -11z"/>
<path d="M714 1550 c1 -18 7 -26 24 -28 19 -3 22 1 21 30 -2 30 -2 31 -6 6 -5
-34 -30 -37 -36 -5 -3 19 -4 19 -3 -3z"/>
<path d="M780 1566 c0 -8 8 -17 18 -21 16 -7 15 -8 -3 -15 -16 -7 -17 -9 -3
-9 25 -1 33 20 12 32 -17 10 -17 11 1 18 19 7 18 8 -2 8 -13 1 -23 -5 -23 -13z"/>
<path d="M920 1569 c0 -7 8 -18 18 -26 16 -14 16 -14 0 -9 -10 3 -18 1 -18 -4
0 -6 9 -10 20 -10 24 0 27 28 3 37 -15 6 -15 7 3 14 17 7 17 8 -3 8 -13 1 -23
-4 -23 -10z"/>
<path d="M1181 1548 c2 -28 2 -29 6 -8 3 14 10 28 17 32 7 5 5 8 -6 8 -14 0
-18 -8 -17 -32z"/>
<path d="M1252 1550 c0 -19 2 -27 5 -17 2 9 2 25 0 35 -3 9 -5 1 -5 -18z"/>
<path d="M1271 1548 c1 -30 2 -30 8 -9 9 35 29 37 34 4 4 -27 4 -27 6 5 1 28
-2 32 -24 32 -22 0 -25 -4 -24 -32z"/>
<path d="M1501 1553 c-1 -29 2 -33 24 -33 22 0 25 4 24 33 -1 29 -2 29 -8 8
-9 -35 -29 -37 -34 -4 -4 27 -4 27 -6 -4z"/>
<path d="M1562 1550 c0 -19 2 -27 5 -17 2 9 2 25 0 35 -3 9 -5 1 -5 -18z"/>
<path d="M1682 1550 c0 -19 2 -27 5 -17 2 9 2 25 0 35 -3 9 -5 1 -5 -18z"/>
<path d="M1711 1548 c2 -31 2 -31 6 -5 2 15 10 27 18 27 8 0 16 -12 18 -27 4
-26 4 -26 6 5 1 28 -2 32 -24 32 -22 0 -25 -4 -24 -32z"/>
<path d="M1776 1563 c-4 -9 -2 -21 3 -26 5 -5 7 -16 4 -24 -4 -11 0 -14 18
-11 20 2 25 10 27 41 3 33 1 37 -21 37 -14 0 -28 -7 -31 -17z m39 -23 c0 -13
-6 -25 -13 -26 -7 -1 -8 0 -2 3 6 3 4 11 -5 20 -16 16 -11 37 8 30 7 -2 12
-14 12 -27z"/>
<path d="M1973 1564 c-3 -9 2 -23 13 -32 17 -16 17 -16 4 1 -14 19 -1 45 17
34 16 -10 7 -50 -13 -58 -18 -7 -18 -8 2 -8 23 -1 34 16 34 55 0 19 -5 24 -25
24 -14 0 -28 -7 -32 -16z"/>
<path d="M2041 1548 c2 -28 2 -29 6 -8 3 14 10 28 17 32 7 5 5 8 -6 8 -14 0
-18 -8 -17 -32z"/>
<path d="M2084 1565 c-9 -23 4 -47 23 -43 11 2 19 14 21 31 3 22 -1 27 -18 27
-11 0 -23 -7 -26 -15z m36 -15 c0 -11 -7 -20 -15 -20 -8 0 -15 9 -15 20 0 11
7 20 15 20 8 0 15 -9 15 -20z"/>
<path d="M2151 1553 c-1 -29 2 -33 24 -33 22 0 25 4 24 33 -1 29 -2 29 -8 8
-9 -35 -29 -37 -34 -4 -4 27 -4 27 -6 -4z"/>
<path d="M2211 1548 c2 -31 2 -31 6 -5 2 15 10 27 18 27 8 0 16 -12 18 -27 4
-26 4 -26 6 5 1 28 -2 32 -24 32 -22 0 -25 -4 -24 -32z"/>
<path d="M2380 1566 c0 -8 8 -17 18 -21 16 -7 15 -8 -3 -15 -16 -7 -17 -9 -3
-9 25 -1 33 20 12 32 -17 10 -17 11 1 18 19 7 18 8 -2 8 -13 1 -23 -5 -23 -13z"/>
<path d="M2495 1571 c19 -8 19 -8 -3 -15 -28 -9 -24 -30 6 -34 19 -3 22 1 22
27 0 26 -4 31 -22 30 -22 0 -22 -1 -3 -8z m15 -31 c0 -5 -7 -10 -16 -10 -8 0
-12 5 -9 10 3 6 10 10 16 10 5 0 9 -4 9 -10z"/>
<path d="M2572 1550 c0 -19 2 -27 5 -17 2 9 2 25 0 35 -3 9 -5 1 -5 -18z"/>
<path d="M2604 1566 c-9 -24 4 -48 23 -44 12 2 18 12 18 28 0 29 -32 41 -41
16z m36 -16 c0 -11 -7 -20 -15 -20 -8 0 -15 9 -15 20 0 11 7 20 15 20 8 0 15
-9 15 -20z"/>
<path d="M2671 1548 c2 -32 2 -32 6 -5 5 33 25 31 34 -4 4 -14 7 -17 8 -7 2
28 -10 48 -30 48 -15 0 -19 -7 -18 -32z"/>
<path d="M2730 1565 c0 -8 7 -15 15 -15 8 0 15 -5 15 -11 0 -6 -7 -9 -15 -5
-8 3 -15 1 -15 -4 0 -13 37 -13 45 -1 3 5 -4 16 -16 24 -19 14 -20 15 -2 20
15 4 14 5 -4 6 -14 1 -23 -5 -23 -14z"/>
<path d="M2822 1550 c0 -19 2 -27 5 -17 2 9 2 25 0 35 -3 9 -5 1 -5 -18z"/>
<path d="M2851 1548 c2 -32 2 -32 6 -5 5 33 25 31 34 -4 4 -14 7 -17 8 -7 2
28 -10 48 -30 48 -15 0 -19 -7 -18 -32z"/>
<path d="M262 1390 c1 -32 2 -37 5 -16 l5 29 23 -29 24 -29 -1 45 c-1 32 -2
37 -5 16 l-5 -29 -23 29 -24 29 1 -45z"/>
<path d="M820 1421 c0 -5 -9 -11 -21 -14 -29 -8 -22 -51 9 -55 20 -3 22 1 22
37 0 23 -2 41 -5 41 -3 0 -5 -4 -5 -9z m0 -41 c0 -11 -7 -20 -15 -20 -8 0 -15
9 -15 20 0 11 7 20 15 20 8 0 15 -9 15 -20z"/>
<path d="M1112 1390 c1 -30 2 -36 5 -17 5 33 25 31 34 -4 7 -23 7 -23 8 4 1
18 -5 30 -16 34 -10 4 -21 11 -25 17 -4 6 -7 -9 -6 -34z"/>
<path d="M342 1380 c0 -19 2 -27 5 -17 2 9 2 25 0 35 -3 9 -5 1 -5 -18z"/>
<path d="M363 1394 c-3 -9 2 -23 13 -32 17 -16 17 -16 4 1 -14 19 -1 45 17 34
16 -10 7 -50 -13 -58 -18 -7 -18 -8 2 -8 23 -1 34 16 34 55 0 19 -5 24 -25 24
-14 0 -28 -7 -32 -16z"/>
<path d="M434 1395 c-9 -23 3 -45 26 -45 11 0 20 4 20 10 0 5 -6 7 -14 4 -8
-3 -17 -1 -21 5 -3 7 2 11 14 11 12 0 21 7 21 15 0 8 -9 15 -20 15 -11 0 -23
-7 -26 -15z"/>
<path d="M501 1378 c2 -28 2 -29 6 -8 3 14 10 28 17 32 7 5 5 8 -6 8 -14 0
-18 -8 -17 -32z"/>
<path d="M542 1380 c0 -19 2 -27 5 -17 2 9 2 25 0 35 -3 9 -5 1 -5 -18z"/>
<path d="M585 1401 c19 -8 19 -8 -3 -15 -28 -9 -24 -30 6 -34 19 -3 22 1 22
27 0 26 -4 31 -22 30 -22 0 -22 -1 -3 -8z m15 -31 c0 -5 -7 -10 -16 -10 -8 0
-12 5 -9 10 3 6 10 10 16 10 5 0 9 -4 9 -10z"/>
<path d="M675 1401 c19 -8 19 -8 -3 -15 -28 -9 -24 -30 6 -34 19 -3 22 1 22
27 0 26 -4 31 -22 30 -22 0 -22 -1 -3 -8z m15 -31 c0 -5 -4 -10 -10 -10 -5 0
-10 5 -10 10 0 6 5 10 10 10 6 0 10 -4 10 -10z"/>
<path d="M721 1378 c2 -32 2 -32 6 -5 5 33 25 31 34 -4 4 -14 7 -17 8 -7 2 28
-10 48 -30 48 -15 0 -19 -7 -18 -32z"/>
<path d="M881 1378 c2 -31 2 -31 6 -5 2 15 10 27 18 27 8 0 16 -12 18 -27 l4
-28 2 28 c0 15 5 27 10 27 5 0 12 -12 14 -27 4 -26 4 -26 6 5 1 31 0 32 -39
32 -39 0 -40 -1 -39 -32z"/>
<path d="M981 1383 c-1 -29 2 -33 24 -33 22 0 25 4 24 33 -1 29 -2 29 -8 8 -9
-35 -29 -37 -34 -4 -4 27 -4 27 -6 -4z"/>
<path d="M1044 1395 c-9 -23 3 -45 26 -45 11 0 20 4 20 9 0 5 -8 8 -17 7 -10
0 -18 6 -18 14 0 8 8 14 18 14 9 -1 17 2 17 7 0 15 -40 10 -46 -6z"/>
<path d="M1201 1378 c2 -31 2 -31 6 -5 2 15 10 27 18 27 8 0 16 -12 18 -27 l4
-28 2 28 c0 15 5 27 10 27 5 0 12 -12 14 -27 4 -26 4 -26 6 5 1 31 0 32 -39
32 -39 0 -40 -1 -39 -32z"/>
<path d="M1304 1396 c-9 -24 4 -48 23 -44 24 4 24 52 0 56 -9 2 -20 -4 -23
-12z m36 -16 c0 -11 -7 -20 -15 -20 -8 0 -15 9 -15 20 0 11 7 20 15 20 8 0 15
-9 15 -20z"/>
<path d="M1371 1378 c2 -28 2 -29 6 -8 3 14 10 28 17 32 7 5 5 8 -6 8 -14 0
-18 -8 -17 -32z"/>
<path d="M1406 1395 c-9 -24 4 -45 28 -44 16 1 17 2 4 6 -24 6 -23 23 2 23 13
0 18 5 14 15 -4 8 -14 15 -24 15 -10 0 -20 -7 -24 -15z"/>
<path d="M980 1085 c0 -8 -9 -15 -19 -15 -10 0 -21 -7 -25 -15 -9 -25 4 -45
30 -45 22 0 24 4 24 45 0 25 -2 45 -5 45 -3 0 -5 -7 -5 -15z m-4 -36 c3 -6 1
-16 -5 -22 -9 -9 -14 -8 -21 3 -9 15 -4 30 10 30 5 0 12 -5 16 -11z"/>
<path d="M1813 1055 c0 -27 2 -38 4 -22 2 15 10 27 18 27 8 0 16 -12 18 -27
l4 -28 2 28 c1 21 -4 30 -18 34 -11 3 -22 12 -24 22 -3 9 -5 -6 -4 -34z"/>
<path d="M261 1048 c1 -24 4 -33 6 -21 2 12 12 24 21 26 15 4 15 5 0 6 -26 2
-22 19 5 24 19 4 18 4 -5 6 -27 1 -28 -1 -27 -41z"/>
<path d="M448 1079 c-6 -17 3 -69 11 -69 7 0 6 69 -2 76 -3 3 -7 0 -9 -7z"/>
<path d="M518 1079 c-6 -17 3 -69 11 -69 7 0 6 69 -2 76 -3 3 -7 0 -9 -7z"/>
<path d="M1166 1081 c-4 -5 4 -7 16 -3 21 5 22 4 9 -12 -8 -9 -12 -19 -9 -21
9 -9 30 24 23 35 -8 12 -32 13 -39 1z"/>
<path d="M1281 1056 c-1 -29 -4 -37 -16 -32 -8 3 -15 1 -15 -4 0 -15 30 -12
36 4 3 8 4 27 1 43 -3 23 -4 21 -6 -11z"/>
<path d="M1700 1078 c0 -9 5 -29 11 -45 l11 -28 13 30 12 30 8 -27 c10 -38 19
-35 32 12 5 22 6 40 2 40 -5 0 -9 -9 -9 -19 0 -11 -4 -23 -10 -26 -5 -3 -10 3
-10 14 0 32 -19 35 -26 4 l-7 -28 -13 30 c-8 17 -13 23 -14 13z"/>
<path d="M1938 1079 c-6 -17 3 -69 11 -69 7 0 6 69 -2 76 -3 3 -7 0 -9 -7z"/>
<path d="M2041 1054 c-7 -19 -10 -38 -7 -41 3 -4 6 -1 6 5 0 7 9 12 20 12 11
0 20 -4 20 -10 0 -5 4 -10 9 -10 5 0 2 18 -6 40 -9 22 -19 40 -23 40 -3 0 -12
-16 -19 -36z m25 -11 c-10 -10 -19 5 -10 18 6 11 8 11 12 0 2 -7 1 -15 -2 -18z"/>
<path d="M2332 1050 c0 -33 2 -39 7 -21 9 35 29 37 34 4 4 -27 4 -27 6 5 1 25
-3 32 -18 32 -11 0 -22 6 -24 13 -3 6 -5 -8 -5 -33z"/>
<path d="M2653 1050 c0 -25 2 -35 4 -22 2 12 2 32 0 45 -2 12 -4 2 -4 -23z"/>
<path d="M322 1040 c0 -19 2 -27 5 -17 2 9 2 25 0 35 -3 9 -5 1 -5 -18z"/>
<path d="M351 1038 c2 -28 2 -29 6 -8 3 14 10 28 17 32 7 5 5 8 -6 8 -14 0
-18 -8 -17 -32z"/>
<path d="M390 1056 c0 -8 8 -17 18 -21 16 -7 15 -8 -3 -15 -16 -7 -17 -9 -3
-9 25 -1 33 20 12 32 -17 10 -17 11 1 18 19 7 18 8 -2 8 -13 1 -23 -5 -23 -13z"/>
<path d="M552 1040 c0 -19 2 -27 5 -17 2 9 2 25 0 35 -3 9 -5 1 -5 -18z"/>
<path d="M581 1038 c2 -32 2 -32 6 -5 5 33 25 31 34 -4 7 -24 7 -24 8 4 1 15
5 27 10 27 5 0 12 -12 14 -27 4 -26 4 -26 6 5 1 31 0 32 -39 32 -39 0 -40 -1
-39 -32z"/>
<path d="M676 1055 c-9 -24 4 -45 28 -44 16 1 17 2 4 6 -24 6 -23 23 2 23 13
0 18 5 14 15 -4 8 -14 15 -24 15 -10 0 -20 -7 -24 -15z"/>
<path d="M771 1038 c2 -28 2 -29 6 -8 3 14 10 28 17 32 7 5 5 8 -6 8 -14 0
-18 -8 -17 -32z"/>
<path d="M814 1056 c-12 -33 23 -65 40 -37 4 5 -3 7 -14 4 -11 -3 -20 0 -20 6
0 6 9 11 21 11 12 0 19 5 17 13 -7 18 -37 21 -44 3z m33 -2 c-3 -3 -12 -4 -19
-1 -8 3 -5 6 6 6 11 1 17 -2 13 -5z"/>
<path d="M895 1061 c19 -8 19 -8 -3 -15 -28 -9 -24 -30 6 -34 19 -3 22 1 22
27 0 26 -4 31 -22 30 -22 0 -22 -1 -3 -8z m15 -31 c0 -5 -7 -10 -16 -10 -8 0
-12 5 -9 10 3 6 10 10 16 10 5 0 9 -4 9 -10z"/>
<path d="M1002 1040 c0 -19 2 -27 5 -17 2 9 2 25 0 35 -3 9 -5 1 -5 -18z"/>
<path d="M1031 1038 c2 -30 2 -31 6 -5 5 34 30 36 36 2 4 -23 4 -23 3 2 -1 21
-7 29 -23 31 -20 3 -23 -1 -22 -30z"/>
<path d="M1093 1054 c-3 -9 2 -23 13 -32 17 -16 17 -16 4 1 -14 19 -1 45 17
34 16 -10 7 -50 -13 -58 -18 -7 -18 -8 2 -8 23 -1 34 16 34 55 0 19 -5 24 -25
24 -14 0 -28 -7 -32 -16z"/>
<path d="M1314 1056 c-9 -24 4 -48 23 -44 12 2 18 12 18 28 0 29 -32 41 -41
16z m36 -16 c0 -11 -7 -20 -15 -20 -8 0 -15 9 -15 20 0 11 7 20 15 20 8 0 15
-9 15 -20z"/>
<path d="M1382 1040 c0 -19 2 -27 5 -17 2 9 2 25 0 35 -3 9 -5 1 -5 -18z"/>
<path d="M1401 1038 c2 -31 2 -31 6 -5 2 15 10 27 18 27 8 0 16 -12 18 -27 4
-26 4 -26 6 5 1 28 -2 32 -24 32 -22 0 -25 -4 -24 -32z"/>
<path d="M1497 1056 c-10 -26 4 -47 27 -44 15 2 21 10 21 28 0 29 -38 41 -48
16z m39 -7 c3 -6 1 -16 -5 -22 -9 -9 -14 -8 -21 3 -9 15 -4 30 10 30 5 0 12
-5 16 -11z"/>
<path d="M1564 1040 c1 -18 7 -26 24 -28 19 -3 22 1 21 30 -2 30 -2 31 -6 6
-5 -34 -30 -37 -36 -5 -3 19 -4 19 -3 -3z"/>
<path d="M1631 1038 c2 -28 2 -29 6 -8 3 14 10 28 17 32 7 5 5 8 -6 8 -14 0
-18 -8 -17 -32z"/>
<path d="M1895 1061 c19 -8 19 -8 -3 -15 -28 -9 -24 -30 6 -34 19 -3 22 1 22
27 0 26 -4 31 -22 30 -22 0 -22 -1 -3 -8z m15 -31 c0 -5 -7 -10 -16 -10 -8 0
-12 5 -9 10 3 6 10 10 16 10 5 0 9 -4 9 -10z"/>
<path d="M1976 1063 c-4 -4 3 -16 16 -26 l23 -19 -24 6 c-17 3 -21 2 -13 -6
12 -12 42 -4 42 11 0 5 -10 13 -22 17 -22 7 -22 7 -3 15 14 5 16 8 4 8 -9 1
-19 -2 -23 -6z"/>
<path d="M2110 1028 c0 -24 4 -38 8 -32 4 6 15 13 25 17 26 10 18 51 -10 55
-21 3 -23 -1 -23 -40z m40 12 c0 -11 -7 -20 -15 -20 -8 0 -15 9 -15 20 0 11 7
20 15 20 8 0 15 -9 15 -20z"/>
<path d="M2170 1028 c0 -24 4 -38 8 -32 4 7 16 13 27 15 14 3 20 12 20 29 0
20 -6 26 -27 28 -27 3 -28 1 -28 -40z m46 21 c3 -6 1 -16 -5 -22 -9 -9 -14 -8
-21 3 -9 15 -4 30 10 30 5 0 12 -5 16 -11z"/>
<path d="M2274 1055 c-13 -32 23 -63 40 -36 4 5 -3 7 -14 4 -16 -4 -20 0 -20
17 0 17 4 21 20 17 11 -3 20 -1 20 4 0 15 -40 10 -46 -6z"/>
<path d="M2420 1061 c25 -7 25 -7 3 -13 -32 -9 -30 -38 3 -38 22 0 25 4 22 28
-2 21 -9 27 -28 29 l-25 2 25 -8z m10 -31 c0 -5 -4 -10 -10 -10 -5 0 -10 5
-10 10 0 6 5 10 10 10 6 0 10 -4 10 -10z"/>
<path d="M2461 1038 c2 -31 2 -31 6 -5 2 15 10 27 18 27 8 0 16 -12 18 -27 4
-26 4 -26 6 5 1 28 -2 32 -24 32 -22 0 -25 -4 -24 -32z"/>
<path d="M2531 1038 c2 -32 2 -32 6 -5 5 33 25 31 34 -4 4 -14 7 -17 8 -7 2
28 -10 48 -30 48 -15 0 -19 -7 -18 -32z"/>
<path d="M2594 1056 c-12 -33 23 -65 40 -37 4 5 -3 7 -14 4 -11 -3 -20 0 -20
6 0 6 9 11 21 11 12 0 19 5 17 13 -7 18 -37 21 -44 3z m33 -2 c-3 -3 -12 -4
-19 -1 -8 3 -5 6 6 6 11 1 17 -2 13 -5z"/>
<path d="M2710 1055 c0 -8 7 -15 15 -15 8 0 15 -5 15 -11 0 -6 -7 -9 -15 -5
-8 3 -15 1 -15 -4 0 -13 37 -13 45 -1 3 5 -4 16 -16 24 -19 14 -20 15 -2 20
15 4 14 5 -4 6 -14 1 -23 -5 -23 -14z"/>
<path d="M2774 1056 c-9 -24 4 -48 23 -44 12 2 18 12 18 28 0 29 -32 41 -41
16z m36 -16 c0 -11 -7 -20 -15 -20 -8 0 -15 9 -15 20 0 11 7 20 15 20 8 0 15
-9 15 -20z"/>
<path d="M2871 1043 c5 -14 8 -32 5 -40 -3 -7 -1 -13 3 -13 5 0 14 14 20 31
14 40 13 63 -1 29 l-10 -25 -9 23 c-4 12 -11 22 -13 22 -3 0 -1 -12 5 -27z"/>
<path d="M2924 1055 c-9 -23 3 -45 25 -45 21 0 33 22 25 45 -4 8 -15 15 -25
15 -11 0 -22 -7 -25 -15z m42 -6 c10 -17 -13 -36 -27 -22 -12 12 -4 33 11 33
5 0 12 -5 16 -11z"/>
<path d="M2991 1043 c-1 -29 2 -33 24 -33 22 0 25 4 24 33 -1 29 -2 29 -8 8
-9 -35 -29 -37 -34 -4 -4 27 -4 27 -6 -4z"/>
<path d="M708 899 c-6 -17 3 -69 11 -69 7 0 6 69 -2 76 -3 3 -7 0 -9 -7z"/>
<path d="M778 899 c-6 -17 3 -69 11 -69 7 0 6 69 -2 76 -3 3 -7 0 -9 -7z"/>
<path d="M1502 870 c0 -33 2 -39 7 -21 9 35 29 37 34 4 4 -27 4 -27 6 5 1 25
-3 32 -18 32 -11 0 -22 6 -24 13 -3 6 -5 -8 -5 -33z"/>
<path d="M2068 878 c-2 -25 -8 -33 -22 -31 -12 1 -15 -2 -8 -9 20 -20 42 0 42
37 0 44 -8 46 -12 3z"/>
<path d="M2282 870 c0 -33 2 -39 7 -21 9 35 29 37 34 4 4 -27 4 -27 6 5 1 25
-3 32 -18 32 -11 0 -22 6 -24 13 -3 6 -5 -8 -5 -33z"/>
<path d="M1463 886 c4 -10 7 -26 7 -37 0 -10 3 -19 8 -19 13 0 6 64 -8 68 -9
3 -11 -1 -7 -12z"/>
<path d="M261 858 c2 -32 2 -32 6 -5 5 33 25 31 34 -4 4 -14 7 -17 8 -7 2 28
-10 48 -30 48 -15 0 -19 -7 -18 -32z"/>
<path d="M324 876 c-12 -33 23 -65 40 -37 4 5 -3 7 -14 4 -11 -3 -20 0 -20 6
0 6 9 11 21 11 12 0 19 5 17 13 -7 18 -37 21 -44 3z m33 -2 c-3 -3 -12 -4 -19
-1 -8 3 -5 6 6 6 11 1 17 -2 13 -5z"/>
<path d="M380 883 c1 -4 7 -19 15 -33 l13 -25 11 28 c15 39 13 47 -4 17 -10
-18 -14 -20 -15 -8 0 9 -4 20 -10 23 -5 3 -10 3 -10 -2z"/>
<path d="M444 876 c-12 -33 23 -65 40 -37 4 5 -3 7 -14 4 -11 -3 -20 0 -20 6
0 6 9 11 21 11 12 0 19 5 17 13 -7 18 -37 21 -44 3z m33 -2 c-3 -3 -12 -4 -19
-1 -8 3 -5 6 6 6 11 1 17 -2 13 -5z"/>
<path d="M501 858 c1 -22 3 -26 6 -13 3 11 10 26 15 33 8 9 6 12 -6 12 -12 0
-16 -9 -15 -32z"/>
<path d="M576 873 c-4 -9 -2 -21 3 -26 5 -5 7 -16 4 -24 -4 -11 0 -14 18 -11
20 2 25 10 27 41 3 33 1 37 -21 37 -14 0 -28 -7 -31 -17z m39 -23 c0 -13 -6
-25 -13 -26 -7 -1 -8 0 -2 3 6 3 4 11 -5 20 -16 16 -11 37 8 30 7 -2 12 -14
12 -27z"/>
<path d="M644 875 c-9 -23 3 -45 26 -45 11 0 20 4 20 10 0 5 -6 7 -14 4 -8 -3
-17 -1 -21 5 -3 7 2 11 14 11 12 0 21 7 21 15 0 8 -9 15 -20 15 -11 0 -23 -7
-26 -15z"/>
<path d="M817 876 c-10 -26 4 -47 27 -44 15 2 21 10 21 28 0 29 -38 41 -48 16z
m39 -7 c3 -6 1 -16 -5 -22 -9 -9 -14 -8 -21 3 -9 15 -4 30 10 30 5 0 12 -5 16
-11z"/>
<path d="M911 858 c2 -31 2 -31 6 -5 2 15 10 27 18 27 8 0 16 -12 18 -27 l4
-28 2 28 c0 15 5 27 10 27 5 0 12 -12 14 -27 4 -26 4 -26 6 5 1 31 0 32 -39
32 -39 0 -40 -1 -39 -32z"/>
<path d="M1012 860 c0 -19 2 -27 5 -17 2 9 2 25 0 35 -3 9 -5 1 -5 -18z"/>
<path d="M1040 876 c0 -8 8 -17 18 -21 16 -7 15 -8 -3 -15 -16 -7 -17 -9 -3
-9 25 -1 33 20 12 32 -17 10 -17 11 1 18 19 7 18 8 -2 8 -13 1 -23 -5 -23 -13z"/>
<path d="M1096 883 c-4 -4 3 -16 16 -26 l23 -19 -24 6 c-17 3 -21 2 -13 -6 12
-12 42 -4 42 11 0 5 -10 13 -22 17 -22 7 -22 7 -3 15 14 5 16 8 4 8 -9 1 -19
-2 -23 -6z"/>
<path d="M1200 881 c25 -7 25 -7 3 -13 -32 -9 -30 -38 3 -38 22 0 25 4 22 28
-2 21 -9 27 -28 29 l-25 2 25 -8z m10 -31 c0 -5 -4 -10 -10 -10 -5 0 -10 5
-10 10 0 6 5 10 10 10 6 0 10 -4 10 -10z"/>
<path d="M1241 858 c1 -30 2 -30 8 -9 9 35 29 37 34 4 4 -27 4 -27 6 5 1 28
-2 32 -24 32 -22 0 -25 -4 -24 -32z"/>
<path d="M1311 863 c5 -14 8 -32 5 -40 -3 -7 -1 -13 3 -13 5 0 14 14 20 31 14
40 13 63 -1 29 l-10 -25 -9 23 c-4 12 -11 22 -13 22 -3 0 -1 -12 5 -27z"/>
<path d="M1397 876 c-10 -26 4 -47 27 -44 15 2 21 10 21 28 0 29 -38 41 -48
16z m39 -7 c3 -6 1 -16 -5 -22 -9 -9 -14 -8 -21 3 -9 15 -4 30 10 30 5 0 12
-5 16 -11z"/>
<path d="M1566 875 c-9 -24 4 -45 28 -44 16 1 17 2 4 6 -24 6 -23 23 2 23 13
0 18 5 14 15 -4 8 -14 15 -24 15 -10 0 -20 -7 -24 -15z"/>
<path d="M1631 858 c2 -28 2 -29 6 -8 3 14 10 28 17 32 7 5 5 8 -6 8 -14 0
-18 -8 -17 -32z"/>
<path d="M1702 860 c0 -19 2 -27 5 -17 2 9 2 25 0 35 -3 9 -5 1 -5 -18z"/>
<path d="M1730 879 c0 -7 8 -18 18 -26 16 -14 16 -14 0 -9 -10 3 -18 1 -18 -4
0 -6 9 -10 20 -10 24 0 27 28 3 37 -15 6 -15 7 3 14 17 7 17 8 -3 8 -13 1 -23
-4 -23 -10z"/>
<path d="M1790 876 c0 -8 8 -17 18 -21 16 -7 15 -8 -3 -15 -16 -7 -17 -9 -3
-9 25 -1 33 20 12 32 -17 10 -17 11 1 18 19 7 18 8 -2 8 -13 1 -23 -5 -23 -13z"/>
<path d="M1843 865 c2 -23 7 -31 25 -33 19 -3 22 1 21 30 -2 31 -2 31 -6 5 -5
-33 -24 -31 -35 4 -6 22 -7 21 -5 -6z"/>
<path d="M1914 876 c-12 -33 23 -65 40 -37 4 5 -3 7 -14 4 -11 -3 -20 0 -20 6
0 6 9 11 21 11 12 0 19 5 17 13 -7 18 -37 21 -44 3z m33 -2 c-3 -3 -12 -4 -19
-1 -8 3 -5 6 6 6 11 1 17 -2 13 -5z"/>
<path d="M2094 875 c-9 -23 3 -45 25 -45 10 0 21 7 25 15 8 23 -4 45 -25 45
-11 0 -22 -7 -25 -15z m42 -6 c10 -17 -13 -36 -27 -22 -12 12 -4 33 11 33 5 0
12 -5 16 -11z"/>
<path d="M2162 860 c0 -19 2 -27 5 -17 2 9 2 25 0 35 -3 9 -5 1 -5 -18z"/>
<path d="M2191 858 c2 -32 2 -32 6 -5 5 33 25 31 34 -4 4 -14 7 -17 8 -7 2 28
-10 48 -30 48 -15 0 -19 -7 -18 -32z"/>
<path d="M2346 875 c-9 -24 4 -45 28 -44 16 1 17 2 4 6 -24 6 -23 23 2 23 13
0 18 5 14 15 -4 8 -14 15 -24 15 -10 0 -20 -7 -24 -15z"/>
<path d="M2411 858 c2 -28 2 -29 6 -8 3 14 10 28 17 32 7 5 5 8 -6 8 -14 0
-18 -8 -17 -32z"/>
<path d="M2454 876 c-12 -33 23 -65 40 -37 4 5 -3 7 -14 4 -11 -3 -20 0 -20 6
0 6 9 11 21 11 12 0 19 5 17 13 -7 18 -37 21 -44 3z m33 -2 c-3 -3 -12 -4 -19
-1 -8 3 -5 6 6 6 11 1 17 -2 13 -5z"/>
<path d="M2148 803 c67 -2 177 -2 245 0 67 1 12 3 -123 3 -135 0 -190 -2 -122
-3z"/>
<path d="M543 535 c0 -27 2 -38 4 -22 2 15 10 27 18 27 8 0 16 -12 18 -27 l4
-28 2 28 c1 21 -4 30 -18 34 -11 3 -22 12 -24 22 -3 9 -5 -6 -4 -34z"/>
<path d="M1033 535 c0 -27 2 -38 4 -22 2 15 2 37 0 50 -2 12 -4 0 -4 -28z"/>
<path d="M2170 565 c0 -8 -9 -15 -21 -15 -30 0 -23 -54 9 -58 20 -3 22 1 22
42 0 25 -2 46 -5 46 -3 0 -5 -7 -5 -15z m0 -45 c0 -11 -7 -20 -15 -20 -8 0
-15 9 -15 20 0 11 7 20 15 20 8 0 15 -9 15 -20z"/>
<path d="M2382 563 c-5 -10 -5 -31 -1 -48 7 -30 7 -30 8 -3 0 14 7 29 14 31 9
4 9 6 0 6 -7 1 -10 8 -7 16 8 21 -3 19 -14 -2z"/>
<path d="M264 548 c9 -12 16 -32 17 -43 1 -15 3 -13 9 8 5 16 14 35 21 43 7 8
7 14 1 14 -5 0 -13 -8 -17 -17 -6 -17 -7 -17 -19 0 -19 25 -30 21 -12 -5z"/>
<path d="M831 564 c-1 -6 4 -26 11 -45 l12 -34 12 30 12 30 11 -29 c7 -16 13
-27 15 -25 9 10 24 79 15 74 -5 -4 -9 -15 -9 -26 0 -11 -4 -17 -10 -14 -5 3
-10 15 -10 26 0 29 -17 23 -25 -8 l-7 -28 -13 30 c-7 17 -14 25 -14 19z"/>
<path d="M1138 558 c-7 -21 6 -61 22 -66 13 -5 13 -3 1 11 -7 9 -11 23 -8 30
3 8 2 19 -3 26 -6 10 -8 10 -12 -1z"/>
<path d="M1377 530 c-8 -22 -11 -40 -6 -40 5 0 9 5 9 10 0 6 9 10 20 10 11 0
20 -5 20 -12 0 -6 3 -9 6 -5 7 7 -17 77 -26 77 -4 0 -14 -18 -23 -40z m33 -1
c0 -5 -4 -9 -10 -9 -5 0 -10 7 -10 16 0 8 5 12 10 9 6 -3 10 -10 10 -16z"/>
<path d="M1593 530 c0 -25 2 -35 4 -22 2 12 2 32 0 45 -2 12 -4 2 -4 -23z"/>
<path d="M2590 561 c0 -5 -10 -11 -22 -13 -17 -2 -23 -10 -23 -28 0 -20 6 -26
28 -28 26 -3 27 -1 27 37 0 23 -2 41 -5 41 -3 0 -5 -4 -5 -9z m-4 -32 c10 -17
-13 -36 -27 -22 -12 12 -4 33 11 33 5 0 12 -5 16 -11z"/>
<path d="M2611 533 c-1 -39 1 -43 23 -43 26 0 39 20 30 45 -4 8 -14 15 -24 15
-10 0 -21 6 -23 13 -3 6 -6 -7 -6 -30z m45 -4 c10 -17 -13 -36 -27 -22 -12 12
-4 33 11 33 5 0 12 -5 16 -11z"/>
<path d="M2801 530 c0 -31 2 -40 8 -31 8 13 12 13 27 0 16 -13 16 -12 6 7 -8
16 -8 24 0 32 9 9 9 12 1 12 -7 0 -15 -6 -19 -12 -6 -9 -10 -5 -15 12 -5 19
-7 15 -8 -20z"/>
<path d="M324 536 c-9 -24 4 -48 23 -44 12 2 18 12 18 28 0 29 -32 41 -41 16z
m36 -16 c0 -11 -7 -20 -15 -20 -8 0 -15 9 -15 20 0 11 7 20 15 20 8 0 15 -9
15 -20z"/>
<path d="M383 525 c2 -23 7 -31 25 -33 19 -3 22 1 21 30 -2 31 -2 31 -6 5 -5
-33 -24 -31 -35 4 -6 22 -7 21 -5 -6z"/>
<path d="M480 539 c0 -7 8 -18 18 -26 16 -14 16 -14 0 -9 -10 3 -18 1 -18 -4
0 -6 9 -10 20 -10 24 0 27 28 3 37 -15 6 -15 7 3 14 17 7 17 8 -3 8 -13 1 -23
-4 -23 -10z"/>
<path d="M625 541 c19 -8 19 -8 -3 -15 -28 -9 -24 -30 6 -34 19 -3 22 1 22 27
0 26 -4 31 -22 30 -22 0 -22 -1 -3 -8z m15 -31 c0 -5 -7 -10 -16 -10 -8 0 -12
5 -9 10 3 6 10 10 16 10 5 0 9 -4 9 -10z"/>
<path d="M661 518 c1 -22 3 -26 6 -13 3 11 10 26 15 33 8 9 6 12 -6 12 -12 0
-16 -9 -15 -32z"/>
<path d="M704 535 c-9 -23 3 -45 26 -45 11 0 20 4 20 10 0 5 -6 7 -14 4 -8 -3
-17 -1 -21 5 -3 7 2 11 14 11 12 0 21 7 21 15 0 8 -9 15 -20 15 -11 0 -23 -7
-26 -15z"/>
<path d="M934 535 c-9 -23 3 -45 26 -45 11 0 20 4 20 10 0 5 -6 7 -14 4 -8 -3
-17 -1 -21 5 -3 7 2 11 14 11 12 0 21 7 21 15 0 8 -9 15 -20 15 -11 0 -23 -7
-26 -15z"/>
<path d="M1052 520 c0 -19 2 -27 5 -17 2 9 2 25 0 35 -3 9 -5 1 -5 -18z"/>
<path d="M1080 535 c0 -8 7 -15 15 -15 8 0 15 -5 15 -11 0 -6 -7 -9 -15 -5 -8
3 -15 1 -15 -4 0 -13 37 -13 45 -1 3 5 -4 16 -16 24 -19 14 -20 15 -2 20 15 4
14 5 -4 6 -14 1 -23 -5 -23 -14z"/>
<path d="M1176 535 c-9 -24 4 -45 28 -44 16 1 17 2 4 6 -24 6 -23 23 2 23 13
0 18 5 14 15 -4 8 -14 15 -24 15 -10 0 -20 -7 -24 -15z"/>
<path d="M1241 518 c2 -31 2 -31 6 -5 2 15 10 27 18 27 8 0 16 -12 18 -27 4
-26 4 -26 6 5 1 28 -2 32 -24 32 -22 0 -25 -4 -24 -32z"/>
<path d="M1440 535 c0 -8 7 -15 15 -15 8 0 15 -5 15 -11 0 -6 -7 -9 -15 -5 -8
3 -15 1 -15 -4 0 -13 37 -13 45 -1 3 5 -4 16 -16 24 -19 14 -20 15 -2 20 15 4
14 5 -4 6 -14 1 -23 -5 -23 -14z"/>
<path d="M1550 541 c25 -7 25 -7 3 -13 -32 -9 -30 -38 3 -38 22 0 25 4 22 28
-2 21 -9 27 -28 29 l-25 2 25 -8z m10 -31 c0 -5 -4 -10 -10 -10 -5 0 -10 5
-10 10 0 6 5 10 10 10 6 0 10 -4 10 -10z"/>
<path d="M1621 535 c0 -11 4 -27 9 -35 7 -12 11 -10 18 10 l9 24 7 -25 c6 -22
7 -22 17 -6 6 10 8 25 6 35 -3 11 -5 9 -6 -8 l-2 -25 -14 25 -15 25 -7 -25 -7
-25 -7 25 c-6 20 -7 21 -8 5z"/>
<path d="M1725 541 c19 -8 19 -8 -3 -15 -28 -9 -24 -30 6 -34 19 -3 22 1 22
27 0 26 -4 31 -22 30 -22 0 -22 -1 -3 -8z m15 -31 c0 -5 -7 -10 -16 -10 -8 0
-12 5 -9 10 3 6 10 10 16 10 5 0 9 -4 9 -10z"/>
<path d="M1765 534 c5 -10 9 -29 9 -41 1 -31 5 -29 22 12 18 44 18 58 -1 25
-10 -18 -14 -20 -15 -8 0 9 -5 20 -12 24 -8 5 -9 2 -3 -12z"/>
<path d="M1820 535 c0 -8 7 -15 15 -15 8 0 15 -5 15 -11 0 -6 -7 -9 -15 -5 -8
3 -15 1 -15 -4 0 -13 37 -13 45 -1 3 5 -4 16 -16 24 -19 14 -20 15 -2 20 15 4
14 5 -4 6 -14 1 -23 -5 -23 -14z"/>
<path d="M1940 535 c0 -8 7 -15 15 -15 8 0 15 -5 15 -11 0 -6 -7 -9 -15 -5 -8
3 -15 1 -15 -4 0 -13 37 -13 45 -1 3 5 -4 16 -16 24 -19 14 -20 15 -2 20 15 4
14 5 -4 6 -14 1 -23 -5 -23 -14z"/>
<path d="M2004 536 c-12 -33 23 -65 40 -37 4 5 -3 7 -14 4 -11 -3 -20 0 -20 6
0 6 9 11 21 11 12 0 19 5 17 13 -7 18 -37 21 -44 3z m33 -2 c-3 -3 -12 -4 -19
-1 -8 3 -5 6 6 6 11 1 17 -2 13 -5z"/>
<path d="M2061 518 c1 -30 2 -30 8 -9 9 35 29 37 34 4 4 -27 4 -27 6 5 1 28
-2 32 -24 32 -22 0 -25 -4 -24 -32z"/>
<path d="M2231 523 c-1 -29 2 -33 24 -33 22 0 25 4 24 33 -1 29 -2 29 -8 8 -9
-35 -29 -37 -34 -4 -4 27 -4 27 -6 -4z"/>
<path d="M2290 535 c0 -8 7 -15 15 -15 8 0 15 -5 15 -11 0 -6 -7 -9 -15 -5 -8
3 -15 1 -15 -4 0 -13 37 -13 45 -1 3 5 -4 16 -16 24 -19 14 -20 15 -2 20 15 4
14 5 -4 6 -14 1 -23 -5 -23 -14z"/>
<path d="M2416 535 c-9 -24 4 -45 28 -44 16 1 17 2 4 6 -24 6 -23 23 2 23 13
0 18 5 14 15 -4 8 -14 15 -24 15 -10 0 -20 -7 -24 -15z"/>
<path d="M2484 536 c-12 -33 23 -65 40 -37 4 5 -3 7 -14 4 -11 -3 -20 0 -20 6
0 6 9 11 21 11 12 0 19 5 17 13 -7 18 -37 21 -44 3z m33 -2 c-3 -3 -12 -4 -19
-1 -8 3 -5 6 6 6 11 1 17 -2 13 -5z"/>
<path d="M2700 541 c25 -7 25 -7 3 -13 -32 -9 -30 -38 3 -38 22 0 25 4 22 28
-2 21 -9 27 -28 29 l-25 2 25 -8z m10 -31 c0 -5 -4 -10 -10 -10 -5 0 -10 5
-10 10 0 6 5 10 10 10 6 0 10 -4 10 -10z"/>
<path d="M2744 535 c-13 -32 23 -63 40 -36 4 5 -3 7 -14 4 -16 -4 -20 0 -20
17 0 17 4 21 20 17 11 -3 20 -1 20 4 0 15 -40 10 -46 -6z"/>
<path d="M1881 484 c0 -11 3 -14 6 -6 3 7 2 16 -1 19 -3 4 -6 -2 -5 -13z"/>
<path d="M1133 365 c0 -27 2 -38 4 -22 2 15 2 37 0 50 -2 12 -4 0 -4 -28z"/>
<path d="M318 389 c-6 -17 3 -69 11 -69 7 0 6 69 -2 76 -3 3 -7 0 -9 -7z"/>
<path d="M388 389 c-6 -17 3 -69 11 -69 7 0 6 69 -2 76 -3 3 -7 0 -9 -7z"/>
<path d="M552 360 c0 -33 2 -39 7 -21 9 35 29 37 34 4 4 -27 4 -27 6 5 1 25
-3 32 -18 32 -11 0 -22 6 -24 13 -3 6 -5 -8 -5 -33z"/>
<path d="M1218 388 c-7 -21 6 -61 22 -66 13 -5 13 -3 1 11 -7 9 -11 23 -8 30
3 8 2 19 -3 26 -6 10 -8 10 -12 -1z"/>
<path d="M1258 388 c-7 -21 6 -61 22 -66 13 -5 13 -3 1 11 -7 9 -11 23 -8 30
3 8 2 19 -3 26 -6 10 -8 10 -12 -1z"/>
<path d="M1409 379 c-17 -33 3 -69 38 -68 27 1 27 1 4 8 -34 9 -48 35 -32 55
18 21 48 20 60 -1 9 -16 10 -16 11 -2 0 34 -64 40 -81 8z"/>
<path d="M1763 360 c0 -25 2 -35 4 -22 2 12 2 32 0 45 -2 12 -4 2 -4 -23z"/>
<path d="M275 371 c19 -8 19 -8 -3 -15 -28 -9 -24 -30 6 -34 19 -3 22 1 22 27
0 26 -4 31 -22 30 -22 0 -22 -1 -3 -8z m15 -31 c0 -5 -4 -10 -10 -10 -5 0 -10
5 -10 10 0 6 5 10 10 10 6 0 10 -4 10 -10z"/>
<path d="M426 365 c-9 -24 4 -45 28 -44 16 1 17 2 4 6 -24 6 -23 23 2 23 13 0
18 5 14 15 -4 8 -14 15 -24 15 -10 0 -20 -7 -24 -15z"/>
<path d="M494 365 c-13 -32 23 -63 40 -36 4 5 -3 7 -14 4 -16 -4 -20 0 -20 17
0 17 4 21 20 17 11 -3 18 -1 14 4 -8 14 -34 11 -40 -6z"/>
<path d="M622 350 c0 -19 2 -27 5 -17 2 9 2 25 0 35 -3 9 -5 1 -5 -18z"/>
<path d="M641 348 c1 -30 2 -30 8 -9 9 35 29 37 34 4 4 -27 4 -27 6 5 1 28 -2
32 -24 32 -22 0 -25 -4 -24 -32z"/>
<path d="M710 343 c-3 -23 -2 -39 3 -34 5 5 7 24 5 42 -3 33 -4 33 -8 -8z"/>
<path d="M734 365 c-9 -23 3 -45 25 -45 21 0 33 22 25 45 -4 8 -15 15 -25 15
-11 0 -22 -7 -25 -15z m42 -6 c10 -17 -13 -36 -27 -22 -12 12 -4 33 11 33 5 0
12 -5 16 -11z"/>
<path d="M800 369 c0 -7 8 -18 18 -26 16 -14 16 -14 0 -9 -10 3 -18 1 -18 -4
0 -6 9 -10 20 -10 24 0 27 28 3 37 -15 6 -15 7 3 14 17 7 17 8 -3 8 -13 1 -23
-4 -23 -10z"/>
<path d="M861 348 c2 -30 2 -31 6 -5 5 34 30 36 36 2 4 -23 4 -23 3 2 -1 21
-7 29 -23 31 -20 3 -23 -1 -22 -30z"/>
<path d="M924 365 c-9 -23 3 -45 26 -45 11 0 20 4 20 10 0 5 -6 7 -14 4 -8 -3
-17 -1 -21 5 -3 7 2 11 14 11 12 0 21 7 21 15 0 8 -9 15 -20 15 -11 0 -23 -7
-26 -15z"/>
<path d="M985 366 c17 -53 16 -52 32 -23 8 16 12 31 9 34 -3 3 -10 -5 -15 -18
-7 -16 -10 -19 -10 -7 -1 9 -5 20 -11 23 -5 3 -8 -1 -5 -9z"/>
<path d="M1050 367 c0 -9 -4 -17 -10 -17 -5 0 -10 -7 -10 -15 0 -8 4 -15 9
-15 10 0 25 50 16 58 -3 3 -5 -2 -5 -11z"/>
<path d="M1070 365 c0 -8 7 -15 15 -15 8 0 15 -5 15 -11 0 -6 -7 -9 -15 -5 -8
3 -15 1 -15 -4 0 -13 37 -13 45 -1 3 5 -4 16 -16 24 -19 14 -20 15 -2 20 15 4
14 5 -4 6 -14 1 -23 -5 -23 -14z"/>
<path d="M1156 365 c-9 -24 4 -45 28 -44 16 1 17 2 4 6 -24 6 -23 23 2 23 13
0 18 5 14 15 -4 8 -14 15 -24 15 -10 0 -20 -7 -24 -15z"/>
<path d="M1304 366 c-12 -33 23 -65 40 -37 4 5 -3 7 -14 4 -11 -3 -20 0 -20 6
0 6 9 11 21 11 12 0 19 5 17 13 -7 18 -37 21 -44 3z m33 -2 c-3 -3 -12 -4 -19
-1 -8 3 -5 6 6 6 11 1 17 -2 13 -5z"/>
<path d="M1361 348 c2 -28 2 -29 6 -8 3 14 10 28 17 32 7 5 5 8 -6 8 -14 0
-18 -8 -17 -32z"/>
<path d="M1435 372 c-3 -3 -5 -14 -5 -24 0 -13 8 -18 30 -18 17 0 30 5 30 11
0 5 -4 7 -10 4 -5 -3 -10 2 -10 13 0 17 -23 26 -35 14z m25 -23 c0 -5 -4 -9
-10 -9 -5 0 -10 7 -10 16 0 8 5 12 10 9 6 -3 10 -10 10 -16z"/>
<path d="M1506 363 c-4 -9 -2 -21 3 -26 5 -5 7 -16 4 -24 -4 -11 0 -14 18 -11
20 2 25 10 27 41 3 33 1 37 -21 37 -14 0 -28 -7 -31 -17z m39 -23 c0 -13 -6
-25 -13 -26 -7 -1 -8 0 -2 3 6 3 4 11 -5 20 -16 16 -11 37 8 30 7 -2 12 -14
12 -27z"/>
<path d="M1571 348 c1 -29 2 -30 8 -9 9 35 29 37 34 4 l4 -28 2 28 c1 34 28
36 34 2 4 -23 4 -23 3 2 -1 25 -5 28 -43 31 -43 3 -43 3 -42 -30z"/>
<path d="M1695 371 c19 -8 19 -8 -3 -15 -28 -9 -24 -30 6 -34 19 -3 22 1 22
27 0 26 -4 31 -22 30 -22 0 -22 -1 -3 -8z m15 -31 c0 -5 -7 -10 -16 -10 -8 0
-12 5 -9 10 3 6 10 10 16 10 5 0 9 -4 9 -10z"/>
<path d="M1732 350 c0 -19 2 -27 5 -17 2 9 2 25 0 35 -3 9 -5 1 -5 -18z"/>
<path d="M1816 365 c-13 -34 31 -64 50 -34 4 7 0 9 -14 5 -29 -10 -38 22 -9
34 22 9 22 9 1 9 -12 1 -24 -6 -28 -14z"/>
<path d="M1884 366 c-9 -24 4 -48 23 -44 12 2 18 12 18 28 0 29 -32 41 -41 16z
m36 -16 c0 -11 -7 -20 -15 -20 -8 0 -15 9 -15 20 0 11 7 20 15 20 8 0 15 -9
15 -20z"/>
<path d="M1941 348 c1 -29 2 -30 8 -9 9 35 29 37 34 4 l4 -28 2 28 c1 34 28
36 34 2 4 -23 4 -23 3 2 -1 25 -5 28 -43 31 -43 3 -43 3 -42 -30z"/>
<path d="M1340 15 c0 -12 14 -15 76 -15 56 0 75 3 72 13 -3 8 -30 13 -76 15
-60 2 -72 0 -72 -13z"/>
<path d="M2215 20 c-3 -6 1 -7 9 -4 18 7 21 14 7 14 -6 0 -13 -4 -16 -10z"/>
</g>
</svg>
